STARTFONT 2.1
COMMENT GENERATED BY "et2bdf 1.1"
COMMENT AUTHOR mleisher@nmsu.edu (Mark Leisher)
COMMENT DATE Fri Jun 12 03:17:03 1992
COMMENT
FONT taipeim24
SIZE 24 75 75
FONTBOUNDINGBOX 24 24 0 -2
STARTPROPERTIES 4
COPYRIGHT "Public Domain"
DEFAULT_CHAR 41280
FONT_ASCENT 22
FONT_DESCENT 2
ENDPROPERTIES
CHARS 13503
STARTCHAR a140
ENCODING 41280
SWIDTH 301 0
DWIDTH 24 0
BBX 24 24 0 -2
BITMAP
000000
000000
000000
000000
000000
000000
000000
000000
000000
000000
000000
000000
000000
000000
000000
000000
000000
000000
000000
000000
000000
000000
000000
000000
ENDCHAR
STARTCHAR a141
ENCODING 41281
SWIDTH 301 0
DWIDTH 24 0
BBX 24 24 0 -2
BITMAP
000000
000000
000000
000000
000000
000000
000000
000000
000000
000000
000000
000000
000000
000000
000000
000000
000000
060000
0f0000
0f0000
070000
030000
060000
0c0000
ENDCHAR
STARTCHAR a142
ENCODING 41282
SWIDTH 301 0
DWIDTH 24 0
BBX 24 24 0 -2
BITMAP
000000
000000
000000
000000
000000
000000
000000
000000
000000
000000
000000
000000
000000
000000
000000
000000
000000
600000
180000
0c0000
060000
070000
030000
030000
ENDCHAR
STARTCHAR a143
ENCODING 41283
SWIDTH 301 0
DWIDTH 24 0
BBX 24 24 0 -2
BITMAP
000000
000000
000000
000000
000000
000000
000000
000000
000000
000000
000000
000000
000000
000000
000000
000000
0f0000
108000
204000
204000
204000
204000
108000
0f0000
ENDCHAR
STARTCHAR a144
ENCODING 41284
SWIDTH 301 0
DWIDTH 24 0
BBX 24 24 0 -2
BITMAP
000000
000000
000000
000000
000000
000000
000000
000000
000000
000000
000000
000000
000000
000000
000000
000000
000000
000000
060000
0f0000
0f0000
060000
000000
000000
ENDCHAR
STARTCHAR a145
ENCODING 41285
SWIDTH 301 0
DWIDTH 24 0
BBX 24 24 0 -2
BITMAP
000000
000000
000000
000000
000000
000000
000000
000000
000000
001800
003c00
007e00
007e00
003c00
001800
000000
000000
000000
000000
000000
000000
000000
000000
000000
ENDCHAR
STARTCHAR a146
ENCODING 41286
SWIDTH 301 0
DWIDTH 24 0
BBX 24 24 0 -2
BITMAP
000000
000000
000000
000000
000000
000000
001800
003c00
003c00
001800
000000
000000
000000
000000
001800
003c00
003c00
001c00
000c00
001800
003000
000000
000000
000000
ENDCHAR
STARTCHAR a147
ENCODING 41287
SWIDTH 301 0
DWIDTH 24 0
BBX 24 24 0 -2
BITMAP
000000
000000
000000
000000
000000
000000
001800
003c00
003c00
001800
000000
000000
000000
000000
001800
003c00
003c00
001800
000000
000000
000000
000000
000000
000000
ENDCHAR
STARTCHAR a148
ENCODING 41288
SWIDTH 301 0
DWIDTH 24 0
BBX 24 24 0 -2
BITMAP
000000
007800
018600
030300
060180
070180
070180
020300
000300
000600
000c00
000c00
000800
001800
001000
001000
001000
000000
000000
001000
003800
003800
001000
000000
ENDCHAR
STARTCHAR a149
ENCODING 41289
SWIDTH 301 0
DWIDTH 24 0
BBX 24 24 0 -2
BITMAP
000000
001000
003800
003800
003800
003800
003800
003800
003800
003800
001000
001000
001000
001000
001000
001000
001000
000000
000000
001000
003800
003800
001000
000000
ENDCHAR
STARTCHAR a14a
ENCODING 41290
SWIDTH 301 0
DWIDTH 24 0
BBX 24 24 0 -2
BITMAP
000000
000000
000000
000000
000000
000000
001800
003c00
003c00
001800
000000
000000
000000
000000
001800
003c00
003c00
001800
000000
000000
000000
000000
000000
000000
ENDCHAR
STARTCHAR a14b
ENCODING 41291
SWIDTH 301 0
DWIDTH 24 0
BBX 24 24 0 -2
BITMAP
000000
000000
000000
000000
000000
000000
000000
000000
000000
30180c
783c1e
30180c
000000
000000
000000
000000
000000
000000
000000
000000
000000
000000
000000
000000
ENDCHAR
STARTCHAR a14c
ENCODING 41292
SWIDTH 301 0
DWIDTH 24 0
BBX 24 24 0 -2
BITMAP
000000
000000
000000
000000
000000
000000
000000
000000
000000
0300c0
0781e0
0300c0
000000
000000
000000
000000
000000
000000
000000
000000
000000
000000
000000
000000
ENDCHAR
STARTCHAR a14d
ENCODING 41293
SWIDTH 301 0
DWIDTH 24 0
BBX 24 24 0 -2
BITMAP
000000
000000
000000
000000
000000
000000
000000
000000
000000
000000
000000
000000
000000
000000
000000
000000
000000
000000
180000
180000
080000
080000
100000
200000
ENDCHAR
STARTCHAR a14e
ENCODING 41294
SWIDTH 301 0
DWIDTH 24 0
BBX 24 24 0 -2
BITMAP
000000
000000
000000
000000
000000
000000
000000
000000
000000
000000
000000
000000
000000
000000
000000
000000
000000
000000
080000
040000
020000
030000
030000
030000
ENDCHAR
STARTCHAR a14f
ENCODING 41295
SWIDTH 301 0
DWIDTH 24 0
BBX 24 24 0 -2
BITMAP
000000
000000
000000
000000
000000
000000
000000
000000
000000
000000
000000
000000
000000
000000
000000
000000
000000
000000
000000
060000
060000
000000
000000
000000
ENDCHAR
STARTCHAR a150
ENCODING 41296
SWIDTH 301 0
DWIDTH 24 0
BBX 24 24 0 -2
BITMAP
000000
000000
000000
000000
000000
000000
000000
000000
000000
180000
3c0000
3c0000
180000
000000
000000
000000
000000
000000
000000
000000
000000
000000
000000
000000
ENDCHAR
STARTCHAR a151
ENCODING 41297
SWIDTH 301 0
DWIDTH 24 0
BBX 24 24 0 -2
BITMAP
000000
000000
000000
000000
000000
000000
000000
001800
001800
000000
000000
000000
000000
000000
000000
001800
001800
000800
000800
001000
002000
000000
000000
000000
ENDCHAR
STARTCHAR a152
ENCODING 41298
SWIDTH 301 0
DWIDTH 24 0
BBX 24 24 0 -2
BITMAP
000000
000000
000000
000000
000000
000000
000000
001800
001800
000000
000000
000000
000000
000000
000000
001800
001800
000000
000000
000000
000000
000000
000000
000000
ENDCHAR
STARTCHAR a153
ENCODING 41299
SWIDTH 301 0
DWIDTH 24 0
BBX 24 24 0 -2
BITMAP
000000
000000
000000
000000
003c00
006600
00c300
00c300
004600
000400
000c00
000800
000800
000800
000800
000000
000000
000800
001c00
000800
000000
000000
000000
000000
ENDCHAR
STARTCHAR a154
ENCODING 41300
SWIDTH 301 0
DWIDTH 24 0
BBX 24 24 0 -2
BITMAP
000000
000000
000000
001000
001000
001000
001000
001000
001000
001000
001000
001000
001000
001000
001000
000000
000000
001000
001000
001000
000000
000000
000000
000000
ENDCHAR
STARTCHAR a155
ENCODING 41301
SWIDTH 301 0
DWIDTH 24 0
BBX 24 24 0 -2
BITMAP
001800
001800
001800
001800
001800
001800
001800
001800
001800
001800
001800
001800
001800
001800
001800
001800
001800
001800
001800
001800
001800
001800
001800
001800
ENDCHAR
STARTCHAR a156
ENCODING 41302
SWIDTH 301 0
DWIDTH 24 0
BBX 24 24 0 -2
BITMAP
000000
000000
000000
000000
000000
000000
000000
000000
000000
000000
000000
0ffff0
0ffff0
000000
000000
000000
000000
000000
000000
000000
000000
000000
000000
000000
ENDCHAR
STARTCHAR a157
ENCODING 41303
SWIDTH 301 0
DWIDTH 24 0
BBX 24 24 0 -2
BITMAP
001000
001000
001000
001000
001000
001000
001000
001000
001000
001000
001000
001000
001000
001000
001000
001000
001000
001000
001000
001000
001000
001000
001000
001000
ENDCHAR
STARTCHAR a158
ENCODING 41304
SWIDTH 301 0
DWIDTH 24 0
BBX 24 24 0 -2
BITMAP
000000
000000
000000
000000
000000
000000
000000
000000
000000
000000
000000
000000
0ffff0
000000
000000
000000
000000
000000
000000
000000
000000
000000
000000
000000
ENDCHAR
STARTCHAR a159
ENCODING 41305
SWIDTH 301 0
DWIDTH 24 0
BBX 24 24 0 -2
BITMAP
000000
600000
600000
600000
600000
600000
600000
600000
600000
600000
600000
600000
600000
600000
600000
600000
600000
600000
600000
600000
600000
600000
600000
000000
ENDCHAR
STARTCHAR a15a
ENCODING 41306
SWIDTH 301 0
DWIDTH 24 0
BBX 24 24 0 -2
BITMAP
000000
000000
000000
000000
000000
000000
000000
000000
000000
000000
000000
000000
000000
000000
000000
000000
000000
000000
000000
000000
000000
000000
ffffff
ffffff
ENDCHAR
STARTCHAR a15b
ENCODING 41307
SWIDTH 301 0
DWIDTH 24 0
BBX 24 24 0 -2
BITMAP
300000
180000
0c0000
060000
040000
0c0000
180000
300000
100000
180000
0c0000
060000
040000
0c0000
180000
300000
180000
0c0000
060000
030000
060000
0c0000
180000
300000
ENDCHAR
STARTCHAR a15c
ENCODING 41308
SWIDTH 301 0
DWIDTH 24 0
BBX 24 24 0 -2
BITMAP
000000
000000
000000
000000
000000
000000
000000
000000
000000
000000
000000
000000
000000
000000
000000
000000
000000
101010
3c3c3c
666666
c3c3c3
810101
000000
000000
ENDCHAR
STARTCHAR a15d
ENCODING 41309
SWIDTH 301 0
DWIDTH 24 0
BBX 24 24 0 -2
BITMAP
000002
000004
000008
000018
000010
000030
000030
000060
000060
000060
000060
000060
000060
000060
000060
000060
000060
000030
000030
000010
000018
000008
000004
000002
ENDCHAR
STARTCHAR a15e
ENCODING 41310
SWIDTH 301 0
DWIDTH 24 0
BBX 24 24 0 -2
BITMAP
400000
200000
100000
180000
080000
0c0000
0c0000
060000
060000
060000
060000
060000
060000
060000
060000
060000
060000
0c0000
0c0000
080000
180000
100000
200000
400000
ENDCHAR
STARTCHAR a15f
ENCODING 41311
SWIDTH 301 0
DWIDTH 24 0
BBX 24 24 0 -2
BITMAP
000000
000000
000000
000000
000000
000000
000000
000000
000000
000000
000000
000000
01ffc0
07ffe0
1e0078
30000c
600006
c00003
800001
000000
000000
000000
000000
000000
ENDCHAR
STARTCHAR a160
ENCODING 41312
SWIDTH 301 0
DWIDTH 24 0
BBX 24 24 0 -2
BITMAP
000000
000000
000000
000000
000000
800001
c00003
600006
30000c
1e0078
07ffe0
01ff80
000000
000000
000000
000000
000000
000000
000000
000000
000000
000000
000000
000000
ENDCHAR
STARTCHAR a161
ENCODING 41313
SWIDTH 301 0
DWIDTH 24 0
BBX 24 24 0 -2
BITMAP
00001e
000030
000060
000060
000060
000060
000060
000060
000060
000060
0000c0
000180
000180
0000c0
000060
000060
000060
000060
000060
000060
000060
000060
000030
00001e
ENDCHAR
STARTCHAR a162
ENCODING 41314
SWIDTH 301 0
DWIDTH 24 0
BBX 24 24 0 -2
BITMAP
780000
0c0000
060000
060000
060000
060000
060000
060000
060000
060000
030000
018000
018000
030000
060000
060000
060000
060000
060000
060000
060000
060000
0c0000
780000
ENDCHAR
STARTCHAR a163
ENCODING 41315
SWIDTH 301 0
DWIDTH 24 0
BBX 24 24 0 -2
BITMAP
000000
000000
000000
000000
000000
000000
000000
000000
000000
000000
000000
000000
001000
003800
1feff8
7fc7fe
ff83ff
c00003
800001
800001
000000
000000
000000
000000
ENDCHAR
STARTCHAR a164
ENCODING 41316
SWIDTH 301 0
DWIDTH 24 0
BBX 24 24 0 -2
BITMAP
000000
000000
000000
000000
800001
800001
c00003
ffc1ff
7fe3fe
1ff7f8
001c00
000800
000000
000000
000000
000000
000000
000000
000000
000000
000000
000000
000000
000000
ENDCHAR
STARTCHAR a165
ENCODING 41317
SWIDTH 301 0
DWIDTH 24 0
BBX 24 24 0 -2
BITMAP
00001c
000070
0001c0
000100
000100
000100
000100
000100
000100
000100
000100
000100
000100
000100
000100
000100
000100
000100
000100
000100
000100
0001c0
000070
00001c
ENDCHAR
STARTCHAR a166
ENCODING 41318
SWIDTH 301 0
DWIDTH 24 0
BBX 24 24 0 -2
BITMAP
380000
0e0000
038000
008000
008000
008000
008000
008000
008000
008000
008000
008000
008000
008000
008000
008000
008000
008000
008000
008000
008000
038000
0e0000
380000
ENDCHAR
STARTCHAR a167
ENCODING 41319
SWIDTH 301 0
DWIDTH 24 0
BBX 24 24 0 -2
BITMAP
000000
000000
000000
000000
000000
000000
000000
000000
000000
000000
000000
000000
1ffff8
3ffffc
30000c
600006
600006
c00003
c00003
800001
000000
000000
000000
000000
ENDCHAR
STARTCHAR a168
ENCODING 41320
SWIDTH 301 0
DWIDTH 24 0
BBX 24 24 0 -2
BITMAP
000000
000000
000000
000000
800001
c00003
c00003
600006
700006
30000c
3ffffc
1ffff8
000000
000000
000000
000000
000000
000000
000000
000000
000000
000000
000000
000000
ENDCHAR
STARTCHAR a169
ENCODING 41321
SWIDTH 301 0
DWIDTH 24 0
BBX 24 24 0 -2
BITMAP
0003fc
0003f8
0003f0
0003e0
0003c0
0003c0
000380
000380
000380
000300
000300
000300
000300
000300
000300
000380
000380
000380
0003c0
0003c0
0003e0
0003f0
0003f8
0003fc
ENDCHAR
STARTCHAR a16a
ENCODING 41322
SWIDTH 301 0
DWIDTH 24 0
BBX 24 24 0 -2
BITMAP
3fc000
1fc000
0fc000
07c000
03c000
03c000
01c000
01c000
01c000
00c000
00c000
00c000
00c000
00c000
00c000
01c000
01c000
01c000
03c000
03c000
07c000
0fc000
1fc000
3fc000
ENDCHAR
STARTCHAR a16b
ENCODING 41323
SWIDTH 301 0
DWIDTH 24 0
BBX 24 24 0 -2
BITMAP
000000
000000
000000
000000
000000
000000
000000
000000
000000
000000
000000
000000
ffffff
ffffff
ff81ff
fc003f
f0000f
e00007
c00003
800001
000000
000000
000000
000000
ENDCHAR
STARTCHAR a16c
ENCODING 41324
SWIDTH 301 0
DWIDTH 24 0
BBX 24 24 0 -2
BITMAP
000000
000000
000000
000000
800001
c00003
e00007
f0000f
fc003f
ff81ff
ffffff
ffffff
000000
000000
000000
000000
000000
000000
000000
000000
000000
000000
000000
000000
ENDCHAR
STARTCHAR a16d
ENCODING 41325
SWIDTH 301 0
DWIDTH 24 0
BBX 24 24 0 -2
BITMAP
000044
0000cc
000088
000198
000110
000330
000220
000660
000440
000cc0
000880
001100
001100
000880
000cc0
000440
000660
000220
000330
000110
000198
000088
0000cc
000044
ENDCHAR
STARTCHAR a16e
ENCODING 41326
SWIDTH 301 0
DWIDTH 24 0
BBX 24 24 0 -2
BITMAP
220000
330000
110000
198000
088000
0cc000
044000
066000
022000
033000
011000
008800
008800
011000
033000
022000
066000
044000
0cc000
088000
198000
110000
330000
220000
ENDCHAR
STARTCHAR a16f
ENCODING 41327
SWIDTH 301 0
DWIDTH 24 0
BBX 24 24 0 -2
BITMAP
000000
000000
000000
000000
000000
000000
000000
000000
000000
001800
007e00
01c380
0700e0
1c1838
707e0e
c1c383
0700e0
1c0038
70000e
c00003
000000
000000
000000
000000
ENDCHAR
STARTCHAR a170
ENCODING 41328
SWIDTH 301 0
DWIDTH 24 0
BBX 24 24 0 -2
BITMAP
000000
000000
000000
000000
c00003
70000e
1c0038
0700e0
c1c383
707e0e
1c1838
0700e0
01c380
007e00
001c00
000000
000000
000000
000000
000000
000000
000000
000000
000000
ENDCHAR
STARTCHAR a171
ENCODING 41329
SWIDTH 301 0
DWIDTH 24 0
BBX 24 24 0 -2
BITMAP
000004
00000c
000008
000018
000010
000030
000020
000060
000040
0000c0
000080
000100
000100
000080
0000c0
000040
000060
000020
000030
000010
000018
000008
00000c
000004
ENDCHAR
STARTCHAR a172
ENCODING 41330
SWIDTH 301 0
DWIDTH 24 0
BBX 24 24 0 -2
BITMAP
200000
300000
100000
180000
080000
0c0000
040000
060000
020000
030000
010000
008000
008000
010000
030000
020000
060000
040000
0c0000
080000
180000
100000
300000
200000
ENDCHAR
STARTCHAR a173
ENCODING 41331
SWIDTH 301 0
DWIDTH 24 0
BBX 24 24 0 -2
BITMAP
000000
000000
000000
000000
000000
000000
000000
000000
000000
000000
000000
000000
000800
001c00
003600
006300
00c180
0180c0
070070
1e003c
78000f
000000
000000
000000
ENDCHAR
STARTCHAR a174
ENCODING 41332
SWIDTH 301 0
DWIDTH 24 0
BBX 24 24 0 -2
BITMAP
000000
000000
000000
78000f
1e003c
070070
0180c0
00c180
006300
003600
001c00
000800
000000
000000
000000
000000
000000
000000
000000
000000
000000
000000
000000
000000
ENDCHAR
STARTCHAR a175
ENCODING 41333
SWIDTH 301 0
DWIDTH 24 0
BBX 24 24 0 -2
BITMAP
0007fc
000400
000400
000400
000400
000400
000400
000400
000400
000400
000400
000400
000400
000400
000400
000000
000000
000000
000000
000000
000000
000000
000000
000000
ENDCHAR
STARTCHAR a176
ENCODING 41334
SWIDTH 301 0
DWIDTH 24 0
BBX 24 24 0 -2
BITMAP
000000
000000
000000
000000
000000
000000
000000
000000
000000
002000
002000
002000
002000
002000
002000
002000
002000
002000
002000
002000
002000
002000
002000
3fe000
ENDCHAR
STARTCHAR a177
ENCODING 41335
SWIDTH 301 0
DWIDTH 24 0
BBX 24 24 0 -2
BITMAP
000000
000000
000000
000000
000000
000000
000000
000000
000000
000000
000000
000000
3ffffc
3ffffc
00000c
00000c
00000c
00000c
00000c
00000c
00000c
00000c
000000
000000
ENDCHAR
STARTCHAR a178
ENCODING 41336
SWIDTH 301 0
DWIDTH 24 0
BBX 24 24 0 -2
BITMAP
000000
000000
300000
300000
300000
300000
300000
300000
300000
300000
3ffffc
3ffffc
000000
000000
000000
000000
000000
000000
000000
000000
000000
000000
000000
000000
ENDCHAR
STARTCHAR a179
ENCODING 41337
SWIDTH 301 0
DWIDTH 24 0
BBX 24 24 0 -2
BITMAP
0007fc
000404
000404
0004fc
000480
000480
000480
000480
000480
000480
000480
000480
000480
000480
000480
000480
000780
000000
000000
000000
000000
000000
000000
000000
ENDCHAR
STARTCHAR a17a
ENCODING 41338
SWIDTH 301 0
DWIDTH 24 0
BBX 24 24 0 -2
BITMAP
000000
000000
000000
000000
000000
000000
000000
01e000
012000
012000
012000
012000
012000
012000
012000
012000
012000
012000
012000
012000
3f2000
202000
202000
3fe000
ENDCHAR
STARTCHAR a17b
ENCODING 41339
SWIDTH 301 0
DWIDTH 24 0
BBX 24 24 0 -2
BITMAP
000000
000000
000000
000000
000000
000000
000000
000000
000000
000000
000000
000000
3ffffc
200004
200004
3fffe4
000024
000024
000024
000024
000024
00003c
000000
000000
ENDCHAR
STARTCHAR a17c
ENCODING 41340
SWIDTH 301 0
DWIDTH 24 0
BBX 24 24 0 -2
BITMAP
000000
000000
3c0000
240000
240000
240000
240000
240000
27fffc
200004
200004
3ffffc
000000
000000
000000
000000
000000
000000
000000
000000
000000
000000
000000
000000
ENDCHAR
STARTCHAR a17d
ENCODING 41341
SWIDTH 301 0
DWIDTH 24 0
BBX 24 24 0 -2
BITMAP
000000
000000
000000
000000
000000
000008
000010
000030
000020
000060
000060
000060
000060
000060
000060
000060
000020
000030
000010
000008
000000
000000
000000
000000
ENDCHAR
STARTCHAR a17e
ENCODING 41342
SWIDTH 301 0
DWIDTH 24 0
BBX 24 24 0 -2
BITMAP
000000
000000
000000
000000
000000
100000
080000
0c0000
040000
060000
060000
060000
060000
060000
060000
060000
040000
0c0000
080000
100000
000000
000000
000000
000000
ENDCHAR
STARTCHAR a1a1
ENCODING 41377
SWIDTH 301 0
DWIDTH 24 0
BBX 24 24 0 -2
BITMAP
000000
000000
000000
000000
000038
000060
000060
000060
000060
000060
000060
0000c0
0000c0
000060
000060
000060
000060
000060
000060
000038
000000
000000
000000
000000
ENDCHAR
STARTCHAR a1a2
ENCODING 41378
SWIDTH 301 0
DWIDTH 24 0
BBX 24 24 0 -2
BITMAP
000000
000000
000000
000000
1c0000
060000
060000
060000
060000
060000
060000
030000
030000
060000
060000
060000
060000
060000
060000
1c0000
000000
000000
000000
000000
ENDCHAR
STARTCHAR a1a3
ENCODING 41379
SWIDTH 301 0
DWIDTH 24 0
BBX 24 24 0 -2
BITMAP
000000
000000
000000
000000
000040
000080
000100
000100
000100
000100
000100
000100
000100
000100
000100
000100
000100
000100
000080
000040
000000
000000
000000
000000
ENDCHAR
STARTCHAR a1a4
ENCODING 41380
SWIDTH 301 0
DWIDTH 24 0
BBX 24 24 0 -2
BITMAP
000000
000000
000000
000000
020000
010000
008000
008000
008000
008000
008000
008000
008000
008000
008000
008000
008000
008000
010000
020000
000000
000000
000000
000000
ENDCHAR
STARTCHAR a1a5
ENCODING 41381
SWIDTH 301 0
DWIDTH 24 0
BBX 24 24 0 -2
BITMAP
00000c
000030
000060
0000c0
0000f0
0000f8
0000f8
000070
000000
000000
000000
000000
000000
000000
000000
000000
000000
000000
000000
000000
000000
000000
000000
000000
ENDCHAR
STARTCHAR a1a6
ENCODING 41382
SWIDTH 301 0
DWIDTH 24 0
BBX 24 24 0 -2
BITMAP
0e0000
1f0000
1f0000
0f0000
030000
060000
0c0000
300000
000000
000000
000000
000000
000000
000000
000000
000000
000000
000000
000000
000000
000000
000000
000000
000000
ENDCHAR
STARTCHAR a1a7
ENCODING 41383
SWIDTH 301 0
DWIDTH 24 0
BBX 24 24 0 -2
BITMAP
000186
00030c
000618
000e38
000f3c
000f3c
000618
000000
000000
000000
000000
000000
000000
000000
000000
000000
000000
000000
000000
000000
000000
000000
000000
000000
ENDCHAR
STARTCHAR a1a8
ENCODING 41384
SWIDTH 301 0
DWIDTH 24 0
BBX 24 24 0 -2
BITMAP
186000
3cf000
3cf000
1c7000
186000
30c000
618000
000000
000000
000000
000000
000000
000000
000000
000000
000000
000000
000000
000000
000000
000000
000000
000000
000000
ENDCHAR
STARTCHAR a1a9
ENCODING 41385
SWIDTH 301 0
DWIDTH 24 0
BBX 24 24 0 -2
BITMAP
010000
238000
738000
71c000
38e000
1c6000
0c3000
061000
020000
000000
000000
000000
000000
000000
000000
000000
000000
000000
000000
000000
000000
000000
000000
000000
ENDCHAR
STARTCHAR a1aa
ENCODING 41386
SWIDTH 301 0
DWIDTH 24 0
BBX 24 24 0 -2
BITMAP
000080
0001c4
0001ce
00038e
00071c
000638
000c30
000860
000040
000000
000000
000000
000000
000000
000000
000000
000000
000000
000000
000000
000000
000000
000000
000000
ENDCHAR
STARTCHAR a1ab
ENCODING 41387
SWIDTH 301 0
DWIDTH 24 0
BBX 24 24 0 -2
BITMAP
006000
00f000
003c00
000700
000000
000000
000000
000000
000000
000000
000000
000000
000000
000000
000000
000000
000000
000000
000000
000000
000000
000000
000000
000000
ENDCHAR
STARTCHAR a1ac
ENCODING 41388
SWIDTH 301 0
DWIDTH 24 0
BBX 24 24 0 -2
BITMAP
000600
000f00
003800
00e000
000000
000000
000000
000000
000000
000000
000000
000000
000000
000000
000000
000000
000000
000000
000000
000000
000000
000000
000000
000000
ENDCHAR
STARTCHAR a1ad
ENCODING 41389
SWIDTH 301 0
DWIDTH 24 0
BBX 24 24 0 -2
BITMAP
000000
000180
018180
018180
018180
018180
0181f0
01ff80
0f8180
018180
018180
018180
018180
018180
018180
0181f0
01ff80
0f8180
018180
018180
018180
018180
018000
000000
ENDCHAR
STARTCHAR a1ae
ENCODING 41390
SWIDTH 301 0
DWIDTH 24 0
BBX 24 24 0 -2
BITMAP
000000
000000
01f000
031800
060c00
060c00
060c00
060c00
033800
01e000
038000
06c000
0e61f0
0c7040
1c3840
1818c0
180c80
1c0f80
0c0700
0e0380
078dc0
01f878
000000
000000
ENDCHAR
STARTCHAR a1af
ENCODING 41391
SWIDTH 301 0
DWIDTH 24 0
BBX 24 24 0 -2
BITMAP
000000
000000
000000
000000
000000
30000c
181818
0e1870
0318c0
01db80
007e00
3ffffc
3ffffc
007e00
01db80
0318c0
0e1870
181818
30000c
000000
000000
000000
000000
000000
ENDCHAR
STARTCHAR a1b0
ENCODING 41392
SWIDTH 301 0
DWIDTH 24 0
BBX 24 24 0 -2
BITMAP
000000
000000
000000
000000
181818
0c3c30
063c60
0318c0
018180
00c300
0c6630
1e3c78
1e1878
0c3c30
006600
00c300
018180
0318c0
063c60
0c3c30
181818
000000
000000
000000
ENDCHAR
STARTCHAR a1b1
ENCODING 41393
SWIDTH 301 0
DWIDTH 24 0
BBX 24 24 0 -2
BITMAP
000000
003c00
004200
008300
008700
008600
00c000
007000
003800
00ce00
010700
010180
018080
00e080
007100
001e00
000e00
000300
000100
004100
00e100
00e100
006200
003c00
ENDCHAR
STARTCHAR a1b2
ENCODING 41394
SWIDTH 301 0
DWIDTH 24 0
BBX 24 24 0 -2
BITMAP
000000
000000
000000
000000
000000
000000
000000
000000
018180
01c1c0
018180
018180
018180
030300
030300
020200
060600
080400
100800
201000
000000
000000
000000
000000
ENDCHAR
STARTCHAR a1b3
ENCODING 41395
SWIDTH 301 0
DWIDTH 24 0
BBX 24 24 0 -2
BITMAP
000000
000000
007e00
01c380
0700e0
0c0030
080010
180018
100008
30000c
200004
200004
200004
200004
30000c
100008
180018
080010
0c0030
0700e0
01c380
007e00
000000
000000
ENDCHAR
STARTCHAR a1b4
ENCODING 41396
SWIDTH 301 0
DWIDTH 24 0
BBX 24 24 0 -2
BITMAP
000000
000000
007e00
01ff80
07ffe0
0ffff0
0ffff0
1ffff8
1ffff8
3ffffc
3ffffc
3ffffc
3ffffc
3ffffc
3ffffc
1ffff8
1ffff8
1ffff0
0ffff0
07ffe0
01ff80
007e00
000000
000000
ENDCHAR
STARTCHAR a1b5
ENCODING 41397
SWIDTH 301 0
DWIDTH 24 0
BBX 24 24 0 -2
BITMAP
000000
001000
003800
006c00
004400
00c600
008200
018300
030180
020080
0600c0
040040
0c0060
180030
100010
300018
200008
60000c
400004
fffffe
000000
000000
000000
000000
ENDCHAR
STARTCHAR a1b6
ENCODING 41398
SWIDTH 301 0
DWIDTH 24 0
BBX 24 24 0 -2
BITMAP
000000
001000
003800
007c00
007c00
00fe00
00fe00
01ff00
03ff80
03ff80
07ffc0
07ffc0
0fffe0
1ffff0
1ffff0
3ffff8
3ffff8
7ffffc
7ffffc
fffffe
000000
000000
000000
000000
ENDCHAR
STARTCHAR a1b7
ENCODING 41399
SWIDTH 301 0
DWIDTH 24 0
BBX 24 24 0 -2
BITMAP
000000
000000
007e00
01c380
0700e0
0c3c30
08c310
198198
1300c8
32004c
240024
240024
240024
240024
32004c
1300c8
198198
08c310
0c3c30
0700e0
01c380
007e00
000000
000000
ENDCHAR
STARTCHAR a1b8
ENCODING 41400
SWIDTH 301 0
DWIDTH 24 0
BBX 24 24 0 -2
BITMAP
001000
001000
001000
003800
002800
006c00
004400
004400
00c600
ffc3ff
600006
38001c
0c0030
0700e0
018180
030080
0310c0
023840
026c40
06c740
0781e0
0600e0
0c0060
080020
ENDCHAR
STARTCHAR a1b9
ENCODING 41401
SWIDTH 301 0
DWIDTH 24 0
BBX 24 24 0 -2
BITMAP
001000
001000
001000
003800
003800
007c00
007c00
007c00
00fe00
ffffff
7ffffe
3ffffc
0ffff0
07ffe0
01ff80
03ff80
03ffc0
03ffc0
03efc0
07c7c0
0781e0
0600e0
0c0060
080020
ENDCHAR
STARTCHAR a1ba
ENCODING 41402
SWIDTH 301 0
DWIDTH 24 0
BBX 24 24 0 -2
BITMAP
000800
001c00
003600
006300
00c180
0180c0
030060
060030
0c0018
18000c
300006
600003
300006
18000c
0c0018
060030
030060
0180c0
00c180
006300
003600
001c00
000800
000000
ENDCHAR
STARTCHAR a1bb
ENCODING 41403
SWIDTH 301 0
DWIDTH 24 0
BBX 24 24 0 -2
BITMAP
000800
001c00
003e00
007f00
00ff80
01ffc0
03ffe0
07fff0
0ffff8
1ffffc
3ffffe
7fffff
3ffffe
1ffffc
0ffff8
07fff0
03ffe0
01ffc0
00ff80
007f00
003e00
001c00
000800
000000
ENDCHAR
STARTCHAR a1bc
ENCODING 41404
SWIDTH 301 0
DWIDTH 24 0
BBX 24 24 0 -2
BITMAP
000000
000000
3ffffc
200004
200004
200004
200004
200004
200004
200004
200004
200004
200004
200004
200004
200004
200004
200004
200004
200004
200004
3ffffc
000000
000000
ENDCHAR
STARTCHAR a1bd
ENCODING 41405
SWIDTH 301 0
DWIDTH 24 0
BBX 24 24 0 -2
BITMAP
000000
000000
3ffffc
3ffffc
3ffffc
3ffffc
3ffffc
3ffffc
3ffffc
3ffffc
3ffffc
3ffffc
3ffffc
3ffffc
3ffffc
3ffffc
3ffffc
3ffffc
3ffffc
3ffffc
3ffffc
3ffffc
000000
000000
ENDCHAR
STARTCHAR a1be
ENCODING 41406
SWIDTH 301 0
DWIDTH 24 0
BBX 24 24 0 -2
BITMAP
000000
000000
000000
000000
fffffe
400004
60000c
200008
300018
100010
180030
0c0060
040040
0600c0
020080
030180
018300
008200
00c600
004400
006c00
003800
001000
000000
ENDCHAR
STARTCHAR a1bf
ENCODING 41407
SWIDTH 301 0
DWIDTH 24 0
BBX 24 24 0 -2
BITMAP
000000
000000
000000
000000
fffffe
7ffffc
7ffffc
3ffff8
3ffff8
1ffff0
1ffff0
0fffe0
07ffc0
07ffc0
03ff80
03ff80
01ff00
00fe00
00fe00
007c00
007c00
003800
001000
000000
ENDCHAR
STARTCHAR a1c0
ENCODING 41408
SWIDTH 301 0
DWIDTH 24 0
BBX 24 24 0 -2
BITMAP
000000
000000
007e00
01c380
0700e0
0c0030
080110
19ff98
101808
30180c
211804
219804
219fc4
219804
31980c
119808
1bffd8
080010
0c0030
0700e0
01c380
007e00
000000
000000
ENDCHAR
STARTCHAR a1c1
ENCODING 41409
SWIDTH 301 0
DWIDTH 24 0
BBX 24 24 0 -2
BITMAP
000003
078006
18c00c
306018
600030
600060
c000c0
c00180
c00300
c00600
c18c00
631878
3c318c
006306
00c606
018606
030c06
060c06
0c0c0c
180c0c
300c18
600630
c003c0
800000
ENDCHAR
STARTCHAR a1c2
ENCODING 41410
SWIDTH 301 0
DWIDTH 24 0
BBX 24 24 0 -2
BITMAP
ffffff
000000
000000
000000
000000
000000
000000
000000
000000
000000
000000
000000
000000
000000
000000
000000
000000
000000
000000
000000
000000
000000
000000
000000
ENDCHAR
STARTCHAR a1c3
ENCODING 41411
SWIDTH 301 0
DWIDTH 24 0
BBX 24 24 0 -2
BITMAP
ffffff
ffffff
000000
000000
000000
000000
000000
000000
000000
000000
000000
000000
000000
000000
000000
000000
000000
000000
000000
000000
000000
000000
000000
000000
ENDCHAR
STARTCHAR a1c4
ENCODING 41412
SWIDTH 301 0
DWIDTH 24 0
BBX 24 24 0 -2
BITMAP
000000
000000
000000
000000
000000
000000
000000
000000
000000
000000
000000
000000
000000
000000
000000
000000
000000
000000
000000
000000
000000
000000
000000
ffffff
ENDCHAR
STARTCHAR a1c5
ENCODING 41413
SWIDTH 301 0
DWIDTH 24 0
BBX 24 24 0 -2
BITMAP
000000
000000
000000
000000
000000
000000
000000
000000
000000
000000
000000
000000
000000
000000
000000
000000
000000
000000
000000
000000
000000
000000
ffffff
ffffff
ENDCHAR
STARTCHAR a1c6
ENCODING 41414
SWIDTH 301 0
DWIDTH 24 0
BBX 24 24 0 -2
BITMAP
3c3c3c
3c3c3c
000000
000000
000000
000000
000000
000000
000000
000000
000000
000000
000000
000000
000000
000000
000000
000000
000000
000000
000000
000000
000000
000000
ENDCHAR
STARTCHAR a1c7
ENCODING 41415
SWIDTH 301 0
DWIDTH 24 0
BBX 24 24 0 -2
BITMAP
3f18fc
3f18fc
000000
000000
000000
000000
000000
000000
000000
000000
000000
000000
000000
000000
000000
000000
000000
000000
000000
000000
000000
000000
000000
000000
ENDCHAR
STARTCHAR a1c8
ENCODING 41416
SWIDTH 301 0
DWIDTH 24 0
BBX 24 24 0 -2
BITMAP
000000
000000
000000
000000
000000
000000
000000
000000
000000
000000
000000
000000
000000
000000
000000
000000
000000
000000
000000
000000
000000
000000
1e3c3c
1e3c3c
ENDCHAR
STARTCHAR a1c9
ENCODING 41417
SWIDTH 301 0
DWIDTH 24 0
BBX 24 24 0 -2
BITMAP
000000
000000
000000
000000
000000
000000
000000
000000
000000
000000
000000
000000
000000
000000
000000
000000
000000
000000
000000
000000
000000
000000
1f99f8
1f99f8
ENDCHAR
STARTCHAR a1ca
ENCODING 41418
SWIDTH 301 0
DWIDTH 24 0
BBX 24 24 0 -2
BITMAP
000000
000000
000000
0300c0
0781e0
0cc330
186618
303c0c
601806
000000
000000
000000
000000
000000
000000
000000
000000
000000
000000
000000
000000
000000
000000
000000
ENDCHAR
STARTCHAR a1cb
ENCODING 41419
SWIDTH 301 0
DWIDTH 24 0
BBX 24 24 0 -2
BITMAP
000000
000000
000000
0700e0
0f81f0
1fc3f8
39e79c
70fe0f
e03c07
000000
000000
000000
000000
000000
000000
000000
000000
000000
000000
000000
000000
000000
000000
000000
ENDCHAR
STARTCHAR a1cc
ENCODING 41420
SWIDTH 301 0
DWIDTH 24 0
BBX 24 24 0 -2
BITMAP
000000
000000
000000
000000
008800
008800
008800
008800
07ff00
008800
008800
008800
008800
07ff00
008800
008800
008800
008800
000000
000000
000000
000000
000000
000000
ENDCHAR
STARTCHAR a1cd
ENCODING 41421
SWIDTH 301 0
DWIDTH 24 0
BBX 24 24 0 -2
BITMAP
000000
000000
000000
000000
000000
000000
00e000
01b000
011000
011000
01b000
00e000
00e000
01b000
0319c0
030c80
030780
018f00
00f9c0
000000
000000
000000
000000
000000
ENDCHAR
STARTCHAR a1ce
ENCODING 41422
SWIDTH 301 0
DWIDTH 24 0
BBX 24 24 0 -2
BITMAP
000000
000000
830400
c30c00
631800
231000
333000
1b6000
0b4000
0fc000
078000
030000
030000
078000
0fc000
0b4000
1b6000
333000
231000
631800
c30c00
830400
000000
000000
ENDCHAR
STARTCHAR a1cf
ENCODING 41423
SWIDTH 301 0
DWIDTH 24 0
BBX 24 24 0 -2
BITMAP
000000
000000
000000
001800
001800
001800
001800
001800
001800
001800
001800
1ffff8
1ffff8
001800
001800
001800
001800
001800
001800
001800
001800
000000
000000
000000
ENDCHAR
STARTCHAR a1d0
ENCODING 41424
SWIDTH 301 0
DWIDTH 24 0
BBX 24 24 0 -2
BITMAP
000000
000000
000000
000000
000000
000000
000000
000000
000000
000000
000000
1ffff8
1ffff8
000000
000000
000000
000000
000000
000000
000000
000000
000000
000000
000000
ENDCHAR
STARTCHAR a1d1
ENCODING 41425
SWIDTH 301 0
DWIDTH 24 0
BBX 24 24 0 -2
BITMAP
000000
000000
000000
000000
0c0030
060060
0300c0
018180
00c300
006600
003c00
001800
003c00
006600
00c300
018180
0300c0
060060
0c0030
000000
000000
000000
000000
000000
ENDCHAR
STARTCHAR a1d2
ENCODING 41426
SWIDTH 301 0
DWIDTH 24 0
BBX 24 24 0 -2
BITMAP
000000
000000
000000
001800
003c00
003c00
001800
000000
000000
000000
000000
3ffffc
3ffffc
000000
000000
000000
000000
001800
003c00
003c00
001800
000000
000000
000000
ENDCHAR
STARTCHAR a1d3
ENCODING 41427
SWIDTH 301 0
DWIDTH 24 0
BBX 24 24 0 -2
BITMAP
000000
000000
001800
001800
001800
001800
001800
001800
001800
001800
1ffff8
1ffff8
001800
001800
001800
001800
001800
001800
001800
000000
1ffff8
1ffff8
000000
000000
ENDCHAR
STARTCHAR a1d4
ENCODING 41428
SWIDTH 301 0
DWIDTH 24 0
BBX 24 24 0 -2
BITMAP
000000
000000
000000
000000
007ff0
004000
004000
00c000
008000
008000
018000
010000
010000
630000
220000
320000
120000
160000
1c0000
0c0000
080000
000000
000000
000000
ENDCHAR
STARTCHAR a1d5
ENCODING 41429
SWIDTH 301 0
DWIDTH 24 0
BBX 24 24 0 -2
BITMAP
000000
000000
000000
000018
000070
0001c0
000700
001c00
007000
01c000
070000
1c0000
300000
1c0000
070000
01c000
007000
001c00
000700
0001c0
000070
000018
000000
000000
ENDCHAR
STARTCHAR a1d6
ENCODING 41430
SWIDTH 301 0
DWIDTH 24 0
BBX 24 24 0 -2
BITMAP
000000
000000
000000
300000
1c0000
070000
01c000
007000
001c00
000700
0001c0
000070
000018
000070
0001c0
000700
001c00
007000
01c000
070000
1c0000
300000
000000
000000
ENDCHAR
STARTCHAR a1d7
ENCODING 41431
SWIDTH 301 0
DWIDTH 24 0
BBX 24 24 0 -2
BITMAP
000000
000000
000000
000000
000000
000000
000000
000000
1ffff8
1ffff8
000000
000000
000000
000000
1ffff8
1ffff8
000000
000000
000000
000000
000000
000000
000000
000000
ENDCHAR
STARTCHAR a1d8
ENCODING 41432
SWIDTH 301 0
DWIDTH 24 0
BBX 24 24 0 -2
BITMAP
000000
000000
000018
0000f0
000780
003c00
01e000
0f0000
380000
0f0000
01e000
003c00
000780
0000f0
000018
000000
1ffff8
1ffff8
000000
000000
1ffff8
1ffff8
000000
000000
ENDCHAR
STARTCHAR a1d9
ENCODING 41433
SWIDTH 301 0
DWIDTH 24 0
BBX 24 24 0 -2
BITMAP
000000
000000
180000
0f0000
01e000
003c00
000780
0000f0
00001c
0000f0
000780
003c00
01e000
0f0000
180000
000000
1ffff8
1ffff8
000000
000000
1ffff8
1ffff8
000000
000000
ENDCHAR
STARTCHAR a1da
ENCODING 41434
SWIDTH 301 0
DWIDTH 24 0
BBX 24 24 0 -2
BITMAP
000000
000080
000080
000180
000100
000300
000200
000600
1ffff8
1ffff8
000800
001800
001000
003000
1ffff8
1ffff8
004000
00c000
008000
018000
010000
030000
020000
000000
ENDCHAR
STARTCHAR a1db
ENCODING 41435
SWIDTH 301 0
DWIDTH 24 0
BBX 24 24 0 -2
BITMAP
000000
000000
000000
000000
000000
000000
000000
0f00f0
108108
204204
402402
401802
401802
402402
204204
108108
0f00f0
000000
000000
000000
000000
000000
000000
000000
ENDCHAR
STARTCHAR a1dc
ENCODING 41436
SWIDTH 301 0
DWIDTH 24 0
BBX 24 24 0 -2
BITMAP
000000
000000
000000
000000
180000
3c0000
3c0000
180000
000000
7ffffe
7ffffe
000000
000000
7ffffe
7ffffe
000000
000018
00003c
00003c
000018
000000
000000
000000
000000
ENDCHAR
STARTCHAR a1dd
ENCODING 41437
SWIDTH 301 0
DWIDTH 24 0
BBX 24 24 0 -2
BITMAP
000000
000000
000000
000000
000000
000000
7ffffe
7ffffe
000000
000000
7ffffe
7ffffe
000000
000000
7ffffe
7ffffe
000000
000000
000000
000000
000000
000000
000000
000000
ENDCHAR
STARTCHAR a1de
ENCODING 41438
SWIDTH 301 0
DWIDTH 24 0
BBX 24 24 0 -2
BITMAP
000000
000000
000000
000000
000000
000000
000800
000800
000800
000800
000800
01ffc0
000800
000800
000800
000800
000800
000000
000000
000000
000000
000000
000000
000000
ENDCHAR
STARTCHAR a1df
ENCODING 41439
SWIDTH 301 0
DWIDTH 24 0
BBX 24 24 0 -2
BITMAP
000000
000000
000000
000000
000000
000000
000000
000000
000000
000000
000000
03ffc0
03ffc0
000000
000000
000000
000000
000000
000000
000000
000000
000000
000000
000000
ENDCHAR
STARTCHAR a1e0
ENCODING 41440
SWIDTH 301 0
DWIDTH 24 0
BBX 24 24 0 -2
BITMAP
000000
000000
000000
000000
000000
000000
001800
003000
006000
00c000
018000
030000
060000
030000
018000
00c000
006000
003000
001800
000000
000000
000000
000000
000000
ENDCHAR
STARTCHAR a1e1
ENCODING 41441
SWIDTH 301 0
DWIDTH 24 0
BBX 24 24 0 -2
BITMAP
000000
000000
000000
000000
000000
000000
001800
000c00
000600
000300
000180
0000c0
000060
0000c0
000180
000300
000600
000c00
001800
000000
000000
000000
000000
000000
ENDCHAR
STARTCHAR a1e2
ENCODING 41442
SWIDTH 301 0
DWIDTH 24 0
BBX 24 24 0 -2
BITMAP
000000
000000
000000
000000
000000
000000
000000
000000
03ffc0
000000
000000
000000
000000
000000
03ffc0
000000
000000
000000
000000
000000
000000
000000
000000
000000
ENDCHAR
STARTCHAR a1e3
ENCODING 41443
SWIDTH 301 0
DWIDTH 24 0
BBX 24 24 0 -2
BITMAP
000000
000000
000000
000000
000000
000000
000000
000000
000000
0f8000
3fe000
607803
c01e06
0007fc
0001f0
000000
000000
000000
000000
000000
000000
000000
000000
000000
ENDCHAR
STARTCHAR a1e4
ENCODING 41444
SWIDTH 301 0
DWIDTH 24 0
BBX 24 24 0 -2
BITMAP
000000
000000
007e00
00ff00
018180
0300c0
0700c0
060060
0c0060
0c0030
180030
180030
180018
300018
300018
300018
300018
300018
300018
100010
100010
000000
000000
000000
ENDCHAR
STARTCHAR a1e5
ENCODING 41445
SWIDTH 301 0
DWIDTH 24 0
BBX 24 24 0 -2
BITMAP
000000
000000
000000
080010
080010
180018
180018
180018
180018
180018
180018
180018
0c0030
0c0030
0c0030
060060
060060
0300c0
0300c0
018180
00ff00
007e00
000000
000000
ENDCHAR
STARTCHAR a1e6
ENCODING 41446
SWIDTH 301 0
DWIDTH 24 0
BBX 24 24 0 -2
BITMAP
000000
000000
000000
000000
001800
001800
001800
001800
001800
001800
001800
001800
001800
001800
001800
001800
001800
3ffffc
3ffffc
000000
000000
000000
000000
000000
ENDCHAR
STARTCHAR a1e7
ENCODING 41447
SWIDTH 301 0
DWIDTH 24 0
BBX 24 24 0 -2
BITMAP
000000
000000
000000
000000
000030
000060
0000c0
000180
000300
000600
000c00
001800
003000
006000
00c000
018000
030000
060000
0ffff8
1ffff8
000000
000000
000000
000000
ENDCHAR
STARTCHAR a1e8
ENCODING 41448
SWIDTH 301 0
DWIDTH 24 0
BBX 24 24 0 -2
BITMAP
000000
000000
000000
180000
180000
180000
180000
180000
180000
180000
180000
180000
180000
180000
180000
180000
180000
180000
1ffff8
1ffff8
000000
000000
000000
000000
ENDCHAR
STARTCHAR a1e9
ENCODING 41449
SWIDTH 301 0
DWIDTH 24 0
BBX 24 24 0 -2
BITMAP
000000
000000
000000
000018
000038
000078
0000d8
000198
000318
000618
000c18
001818
003018
006018
00c018
018018
030018
060018
0c0018
1ffff8
1ffff8
000000
000000
000000
ENDCHAR
STARTCHAR a1ea
ENCODING 41450
SWIDTH 301 0
DWIDTH 24 0
BBX 24 24 0 -2
BITMAP
000000
000000
f00000
300000
300000
300000
300000
300000
300000
30f07b
31998f
31098c
33098c
3604d8
360478
3604c0
3604f0
330dbc
31090c
319b06
fcf306
000306
0001fc
000000
ENDCHAR
STARTCHAR a1eb
ENCODING 41451
SWIDTH 301 0
DWIDTH 24 0
BBX 24 24 0 -2
BITMAP
000000
000000
f00000
300000
300000
300000
300000
300000
31e7c0
306860
307030
306030
306030
306030
306030
306030
306030
306030
306030
306030
fdf0fc
000000
000000
000000
ENDCHAR
STARTCHAR a1ec
ENCODING 41452
SWIDTH 301 0
DWIDTH 24 0
BBX 24 24 0 -2
BITMAP
0001c0
000360
000630
000630
000c30
000c00
000c00
000c00
000c00
000c00
001800
001800
001800
001800
001800
001800
001800
001800
003000
0c3000
0c6000
0c6000
06c000
038000
ENDCHAR
STARTCHAR a1ed
ENCODING 41453
SWIDTH 301 0
DWIDTH 24 0
BBX 24 24 0 -2
BITMAP
0001c0
000360
000630
000c30
000c00
001c00
007f00
00cd80
018cc0
030c60
060c30
060c30
021820
031860
0198c0
00d980
007f00
001c00
001800
003000
0c3000
0ce000
06c000
038000
ENDCHAR
STARTCHAR a1ee
ENCODING 41454
SWIDTH 301 0
DWIDTH 24 0
BBX 24 24 0 -2
BITMAP
000000
000000
000000
000000
000000
0c0030
1e0078
1e0078
0c0030
000000
000000
000000
000000
000000
000000
001800
003c00
003c00
001800
000000
000000
000000
000000
000000
ENDCHAR
STARTCHAR a1ef
ENCODING 41455
SWIDTH 301 0
DWIDTH 24 0
BBX 24 24 0 -2
BITMAP
000000
000000
000000
001800
003c00
003c00
001800
000000
000000
000000
000000
000000
000000
000000
000000
000000
180018
3c003c
3c003c
180018
000000
000000
000000
000000
ENDCHAR
STARTCHAR a1f0
ENCODING 41456
SWIDTH 301 0
DWIDTH 24 0
BBX 24 24 0 -2
BITMAP
007c00
00c600
018300
030180
020080
020080
020080
030180
018300
00c600
007c00
001000
001000
001000
001000
3ffff8
001000
001000
001000
001000
001000
001000
001000
001000
ENDCHAR
STARTCHAR a1f1
ENCODING 41457
SWIDTH 301 0
DWIDTH 24 0
BBX 24 24 0 -2
BITMAP
000000
001000
003800
007c00
00d600
019300
031180
0610c0
0c1060
181030
001000
001000
001000
007c00
00c600
018300
030180
020080
020080
020080
030180
018300
00c600
007c00
ENDCHAR
STARTCHAR a1f2
ENCODING 41458
SWIDTH 301 0
DWIDTH 24 0
BBX 24 24 0 -2
BITMAP
000000
000000
007e00
01db80
0718e0
0c1830
0c1830
181818
30180c
30180c
601806
7ffffe
7ffffe
601806
601806
30180c
30180c
181818
0c1818
071870
01d9c0
007f00
000000
000000
ENDCHAR
STARTCHAR a1f3
ENCODING 41459
SWIDTH 301 0
DWIDTH 24 0
BBX 24 24 0 -2
BITMAP
000000
000000
007e00
01c380
0700e0
0c0030
0c0030
180018
30000c
30180c
603c06
607e06
607e06
603c06
601806
30000c
30000c
180018
0c0018
070070
01c1c0
007f00
000000
000000
ENDCHAR
STARTCHAR a1f4
ENCODING 41460
SWIDTH 301 0
DWIDTH 24 0
BBX 24 24 0 -2
BITMAP
000000
001800
003c00
007e00
00db00
019980
0318c0
061860
0c1830
181818
001800
001800
001800
001800
001800
001800
001800
001800
001800
001800
001800
001800
001800
000000
ENDCHAR
STARTCHAR a1f5
ENCODING 41461
SWIDTH 301 0
DWIDTH 24 0
BBX 24 24 0 -2
BITMAP
000000
001800
001800
001800
001800
001800
001800
001800
001800
001800
001800
001800
001800
001800
181818
0c1830
061860
0318c0
019980
00db00
007e00
003c00
001800
000000
ENDCHAR
STARTCHAR a1f6
ENCODING 41462
SWIDTH 301 0
DWIDTH 24 0
BBX 24 24 0 -2
BITMAP
000000
000000
000000
004000
00c000
018000
030000
060000
0c0000
180000
300000
7ffffe
7ffffe
300000
180000
0c0000
060000
030000
018000
00c000
004000
000000
000000
000000
ENDCHAR
STARTCHAR a1f7
ENCODING 41463
SWIDTH 301 0
DWIDTH 24 0
BBX 24 24 0 -2
BITMAP
000000
000000
000000
000200
000300
000180
0000c0
000060
000030
000018
00000c
7ffffe
7ffffe
00000c
000018
000030
000060
0000c0
000180
000300
000200
000000
000000
000000
ENDCHAR
STARTCHAR a1f8
ENCODING 41464
SWIDTH 301 0
DWIDTH 24 0
BBX 24 24 0 -2
BITMAP
000000
000000
000000
1fe000
1fe000
1e0000
1b0000
198000
18c000
186000
003000
001800
000c00
000600
000300
000180
0000c0
000060
000030
000018
00000c
000000
000000
000000
ENDCHAR
STARTCHAR a1f9
ENCODING 41465
SWIDTH 301 0
DWIDTH 24 0
BBX 24 24 0 -2
BITMAP
000000
000000
000000
0007f8
0007f8
000078
0000d8
000198
000318
000618
000c18
001800
003000
006000
00c000
018000
030000
060000
0c0000
180000
000000
000000
000000
000000
ENDCHAR
STARTCHAR a1fa
ENCODING 41466
SWIDTH 301 0
DWIDTH 24 0
BBX 24 24 0 -2
BITMAP
000000
000000
00000c
000018
000030
000060
0000c0
000180
000300
000600
000c00
001800
183000
186000
18c000
198000
1b0000
1e0000
1ff000
1ff000
000000
000000
000000
000000
ENDCHAR
STARTCHAR a1fb
ENCODING 41467
SWIDTH 301 0
DWIDTH 24 0
BBX 24 24 0 -2
BITMAP
000000
000000
000000
180000
0c0000
060000
030000
018000
00c000
006000
003000
001800
000c18
000618
000318
000198
0000d8
000078
000ff8
000ff8
000000
000000
000000
000000
ENDCHAR
STARTCHAR a1fc
ENCODING 41468
SWIDTH 301 0
DWIDTH 24 0
BBX 24 24 0 -2
BITMAP
006600
006600
006600
006600
006600
006600
006600
006600
006600
006600
006600
006600
006600
006600
006600
006600
006600
006600
006600
006600
006600
006600
006600
006600
ENDCHAR
STARTCHAR a1fd
ENCODING 41469
SWIDTH 301 0
DWIDTH 24 0
BBX 24 24 0 -2
BITMAP
001800
001800
001800
001800
001800
001800
001800
001800
001800
001800
001800
001800
001800
001800
001800
001800
001800
001800
001800
001800
001800
001800
001800
001800
ENDCHAR
STARTCHAR a1fe
ENCODING 41470
SWIDTH 301 0
DWIDTH 24 0
BBX 24 24 0 -2
BITMAP
000003
000006
00000c
000018
000030
000060
0000c0
000180
000300
000600
000c00
001800
003000
006000
00c000
018000
030000
060000
0c0000
180000
300000
600000
c00000
800000
ENDCHAR
STARTCHAR a240
ENCODING 41536
SWIDTH 301 0
DWIDTH 24 0
BBX 24 24 0 -2
BITMAP
c00000
600000
300000
180000
0c0000
060000
030000
018000
00c000
006000
003000
001800
000c00
000600
000300
000180
0000c0
000060
000030
000018
00000c
000006
000003
000001
ENDCHAR
STARTCHAR a241
ENCODING 41537
SWIDTH 301 0
DWIDTH 24 0
BBX 24 24 0 -2
BITMAP
000000
000100
000100
000300
000200
000600
000400
000c00
000800
001800
001000
003000
002000
006000
004000
00c000
008000
018000
010000
030000
020000
060000
040000
040000
ENDCHAR
STARTCHAR a242
ENCODING 41538
SWIDTH 301 0
DWIDTH 24 0
BBX 24 24 0 -2
BITMAP
000000
008000
008000
00c000
004000
006000
002000
003000
001000
001800
000800
000c00
000400
000600
000200
000300
000100
000180
000080
0000c0
000040
000060
000020
000020
ENDCHAR
STARTCHAR a243
ENCODING 41539
SWIDTH 301 0
DWIDTH 24 0
BBX 24 24 0 -2
BITMAP
001800
001800
00ff00
019980
0318c0
0319c0
0319c0
031880
039800
01d800
00fc00
003f00
001b80
0019c0
0018e0
021860
071860
071860
0618c0
0318c0
019980
00ff00
001800
001800
ENDCHAR
STARTCHAR a244
ENCODING 41540
SWIDTH 301 0
DWIDTH 24 0
BBX 24 24 0 -2
BITMAP
000000
000000
3f00fc
0c0030
0c0030
060060
0300c0
0300c0
018180
00c300
006600
1ffff8
001800
001800
001800
1ffff8
001800
001800
001800
001800
001800
00ff00
000000
000000
ENDCHAR
STARTCHAR a245
ENCODING 41541
SWIDTH 301 0
DWIDTH 24 0
BBX 24 24 0 -2
BITMAP
000000
000000
3ffffc
3ffffc
000000
000000
000000
000000
3ffffc
3ffffc
001800
001800
001800
001800
001800
001800
001800
001800
001800
001800
001800
001800
001800
001800
ENDCHAR
STARTCHAR a246
ENCODING 41542
SWIDTH 301 0
DWIDTH 24 0
BBX 24 24 0 -2
BITMAP
000080
000080
000080
003fc0
006320
00c230
018270
030670
030420
060400
060c00
060800
060800
061800
061000
061000
063040
032040
036080
01c300
00fc00
008000
018000
010000
ENDCHAR
STARTCHAR a247
ENCODING 41543
SWIDTH 301 0
DWIDTH 24 0
BBX 24 24 0 -2
BITMAP
000000
000000
001f80
0070c0
00c0e0
00c1e0
01c1e0
0180c0
018000
018000
1ffe00
018000
01c000
00c000
00c000
0fc000
18e008
30f008
30d810
30ce30
18c7e0
0f81c0
000000
000000
ENDCHAR
STARTCHAR a248
ENCODING 41544
SWIDTH 301 0
DWIDTH 24 0
BBX 24 24 0 -2
BITMAP
000003
078006
18c00c
306018
606030
606060
c060c0
c06180
c0c300
c0c600
c18c00
631878
3c318c
006306
00c606
018606
030c06
060c06
0c0c0c
180c0c
300c18
600630
c003c0
800000
ENDCHAR
STARTCHAR a249
ENCODING 41545
SWIDTH 301 0
DWIDTH 24 0
BBX 24 24 0 -2
BITMAP
000000
000000
00ff00
0381c0
060060
0c0030
183d90
10e398
318188
218188
230188
230308
230308
230318
230710
318b30
10f1e0
180000
0c0010
060060
0381c0
00ff00
000000
000000
ENDCHAR
STARTCHAR a24a
ENCODING 41546
SWIDTH 301 0
DWIDTH 24 0
BBX 24 24 0 -2
BITMAP
000000
1e0000
210000
210780
211864
213034
1e601c
00c00c
00c00c
01c004
018004
018000
018000
018000
018000
018000
01c000
00c004
00c004
006008
003010
001860
000780
000000
ENDCHAR
STARTCHAR a24b
ENCODING 41547
SWIDTH 301 0
DWIDTH 24 0
BBX 24 24 0 -2
BITMAP
000000
0e0000
210000
217ffe
21300e
213006
1e3002
003002
003000
003020
003060
003fe0
003060
003020
003000
003000
003000
003000
003000
003000
003000
00fc00
000000
000000
ENDCHAR
STARTCHAR a24c
ENCODING 41548
SWIDTH 301 0
DWIDTH 24 0
BBX 24 24 0 -2
BITMAP
000000
000000
001000
001000
007c00
00d600
019300
019300
019200
019000
00f000
003800
001c00
011600
019300
019300
019300
00d600
007c00
001000
001000
000000
000000
000000
ENDCHAR
STARTCHAR a24d
ENCODING 41549
SWIDTH 301 0
DWIDTH 24 0
BBX 24 24 0 -2
BITMAP
000000
000000
000000
000000
000000
000020
01c040
022080
042100
042200
044400
038800
001000
002380
004440
008840
010840
020880
040700
000000
000000
000000
000000
000000
ENDCHAR
STARTCHAR a24e
ENCODING 41550
SWIDTH 301 0
DWIDTH 24 0
BBX 24 24 0 -2
BITMAP
000000
000000
000000
000000
000000
003f00
00e180
0180c0
011c40
032440
022440
022440
022440
022440
031ec0
010390
018030
00e060
003fc0
000000
000000
000000
000000
000000
ENDCHAR
STARTCHAR a24f
ENCODING 41551
SWIDTH 301 0
DWIDTH 24 0
BBX 24 24 0 -2
BITMAP
000000
000000
00033c
00078c
00078c
00030c
00000c
00000c
eccf0c
77638c
66630c
66630c
66630c
66630c
66630c
66630c
66630c
66630c
66630c
66630c
ffffff
000000
000000
000000
ENDCHAR
STARTCHAR a250
ENCODING 41552
SWIDTH 301 0
DWIDTH 24 0
BBX 24 24 0 -2
BITMAP
000000
000000
000000
000000
000000
000000
000000
000000
eccf76
7763bb
666333
666333
666333
666333
666333
666333
666333
666333
666333
666333
f6f7b7
000000
000000
000000
ENDCHAR
STARTCHAR a251
ENCODING 41553
SWIDTH 301 0
DWIDTH 24 0
BBX 24 24 0 -2
BITMAP
000000
000000
000000
000000
000000
000000
000000
000000
1fc6ee
306f76
607666
60f666
c06666
c00666
c00666
c00666
c00666
600666
601666
302666
1fcfff
000000
000000
000000
ENDCHAR
STARTCHAR a252
ENCODING 41554
SWIDTH 301 0
DWIDTH 24 0
BBX 24 24 0 -2
BITMAP
000000
000000
e00000
600000
600000
600000
600000
600000
600000
63eeee
609776
610666
620666
660666
6a0666
730666
618666
618666
60c666
604666
f3ef6e
000000
000000
000000
ENDCHAR
STARTCHAR a253
ENCODING 41555
SWIDTH 301 0
DWIDTH 24 0
BBX 24 24 0 -2
BITMAP
000000
000000
f1f803
604c07
60cc07
618c0f
610e1b
620a1b
660b13
6c0b33
7c09a3
7409e3
6608e3
6308c3
6308c3
618803
618803
60c803
60c803
604803
f1f80f
000000
000000
000000
ENDCHAR
STARTCHAR a254
ENCODING 41556
SWIDTH 301 0
DWIDTH 24 0
BBX 24 24 0 -2
BITMAP
000078
00008c
00018c
000088
000030
000060
000080
000102
f33bfe
3dcc00
318c00
318c00
318c00
318c00
318c00
318c00
318c00
318c00
318c00
318c00
7bde00
000000
000000
000000
ENDCHAR
STARTCHAR a255
ENCODING 41557
SWIDTH 301 0
DWIDTH 24 0
BBX 24 24 0 -2
BITMAP
000000
000000
000000
000000
000000
000000
000000
000000
ecc3f3
77661b
666c0e
666c0c
666c0c
666c0c
666618
6661f0
666300
6663c0
666678
666c1f
f6fc03
000c03
000606
0003fc
ENDCHAR
STARTCHAR a256
ENCODING 41558
SWIDTH 301 0
DWIDTH 24 0
BBX 24 24 0 -2
BITMAP
000000
000000
e00000
600000
600000
600000
600000
600000
6003f3
63e61b
608c0e
610c0c
620c0c
660c0c
6a0618
7301f0
618300
6183c0
60c678
604c1f
f3fc03
000c03
000606
0003fc
ENDCHAR
STARTCHAR a257
ENCODING 41559
SWIDTH 301 0
DWIDTH 24 0
BBX 24 24 0 -2
BITMAP
000000
000000
000000
000000
000000
000000
000000
1fc1fc
306306
607607
60f60f
c06c04
c00c00
c00c00
c00c00
c00c00
c00c00
600600
601601
302302
1fc1fc
000000
000000
000000
ENDCHAR
STARTCHAR a258
ENCODING 41560
SWIDTH 301 0
DWIDTH 24 0
BBX 24 24 0 -2
BITMAP
000000
1e0000
210000
210000
210000
210000
1e0000
000000
000000
000000
000000
000000
000000
000000
000000
000000
000000
000000
000000
000000
000000
000000
000000
000000
ENDCHAR
STARTCHAR a259
ENCODING 41561
SWIDTH 301 0
DWIDTH 24 0
BBX 24 24 0 -2
BITMAP
060000
070060
060060
066070
fff070
060060
060060
662064
7ff7fe
606060
606060
606060
606060
606060
7fe060
198060
198060
198062
318062
318063
318063
618003
61ffff
c0fffe
ENDCHAR
STARTCHAR a25a
ENCODING 41562
SWIDTH 301 0
DWIDTH 24 0
BBX 24 24 0 -2
BITMAP
060000
070004
06000e
063038
fffbe0
060060
060060
662060
7ff060
606066
606fff
606060
606060
606060
7fe060
198060
198060
198060
318062
318062
318063
618003
61ffff
c0fffe
ENDCHAR
STARTCHAR a25b
ENCODING 41563
SWIDTH 301 0
DWIDTH 24 0
BBX 24 24 0 -2
BITMAP
060000
070000
060018
0641fc
ffef80
060180
060198
6621fc
7fefc0
607180
60618c
6061fe
607f80
606180
7fe180
198184
198186
198186
3181fe
3180fd
318003
618003
61ffff
c0fffe
ENDCHAR
STARTCHAR a25c
ENCODING 41564
SWIDTH 301 0
DWIDTH 24 0
BBX 24 24 0 -2
BITMAP
060000
070018
0603fc
066018
fff318
06030c
06060c
060606
662c03
7ff002
60600c
6067fe
60618c
60618c
60630c
7fe30c
198618
198618
318c1a
3198fa
318033
618003
61ffff
c0fffe
ENDCHAR
STARTCHAR a25d
ENCODING 41565
SWIDTH 301 0
DWIDTH 24 0
BBX 24 24 0 -2
BITMAP
060000
070018
060ffc
0660c0
fff0c0
060180
060304
6627fe
7ff60c
60760c
60660c
60660c
60660c
6067fc
7fe60c
19860c
19860c
19860c
31860c
3187fc
318002
618002
61ffff
c0fffe
ENDCHAR
STARTCHAR a25e
ENCODING 41566
SWIDTH 301 0
DWIDTH 24 0
BBX 24 24 0 -2
BITMAP
0c0000
0e1806
0c1fff
0cd800
fffb0c
0c1bfe
0c1b6c
cc5b6c
fffbfc
c0db6c
c0db6c
c0dbfc
c0d860
c0d860
ffd868
331bfc
331860
333064
3337fe
636001
634003
630003
c3ffff
c1fffe
ENDCHAR
STARTCHAR a25f
ENCODING 41567
SWIDTH 301 0
DWIDTH 24 0
BBX 24 24 0 -2
BITMAP
0c0000
0e0000
0c660c
fff7fe
0c760c
0c660c
18660c
18c60c
30c60c
63c7fc
c1b60c
007000
01dc00
070780
1c00f0
f1fe1f
000000
1ffff0
18c630
18c630
1ffff0
18c630
18c6b0
180070
ENDCHAR
STARTCHAR a260
ENCODING 41568
SWIDTH 301 0
DWIDTH 24 0
BBX 24 24 0 -2
BITMAP
00c000
ffe008
30001c
3000f0
3003c0
30cec0
3fe0c0
30c0c0
30c0cc
38dffe
3cc0c0
36c0c0
36c0c0
33c0c0
31c0c0
30c0c0
30c0c0
30c0c0
33c0c0
3ec0c2
70c0c3
c0c003
00ffff
007ffe
ENDCHAR
STARTCHAR a261
ENCODING 41569
SWIDTH 301 0
DWIDTH 24 0
BBX 24 24 0 -2
BITMAP
0c0000
0c1806
cc1fff
cc5800
6cdb06
6cdbff
6cdb66
3d9b66
1c1b66
ffdbfe
0c1b66
0c1b66
1c1b66
3e1bfe
3f1860
6fb060
6db060
6db064
cd33fe
8d3060
8c3060
0c6060
0c6066
0cc7ff
ENDCHAR
STARTCHAR a262
ENCODING 41570
SWIDTH 301 0
DWIDTH 24 0
BBX 24 24 0 -2
BITMAP
000000
000000
000000
000000
000000
000000
000000
000000
000000
000000
000000
000000
000000
000000
000000
000000
000000
000000
000000
000000
000000
ffffff
ffffff
ffffff
ENDCHAR
STARTCHAR a263
ENCODING 41571
SWIDTH 301 0
DWIDTH 24 0
BBX 24 24 0 -2
BITMAP
000000
000000
000000
000000
000000
000000
000000
000000
000000
000000
000000
000000
000000
000000
000000
000000
000000
000000
ffffff
ffffff
ffffff
ffffff
ffffff
ffffff
ENDCHAR
STARTCHAR a264
ENCODING 41572
SWIDTH 301 0
DWIDTH 24 0
BBX 24 24 0 -2
BITMAP
000000
000000
000000
000000
000000
000000
000000
000000
000000
000000
000000
000000
000000
000000
000000
ffffff
ffffff
ffffff
ffffff
ffffff
ffffff
ffffff
ffffff
ffffff
ENDCHAR
STARTCHAR a265
ENCODING 41573
SWIDTH 301 0
DWIDTH 24 0
BBX 24 24 0 -2
BITMAP
000000
000000
000000
000000
000000
000000
000000
000000
000000
000000
000000
000000
ffffff
ffffff
ffffff
ffffff
ffffff
ffffff
ffffff
ffffff
ffffff
ffffff
ffffff
ffffff
ENDCHAR
STARTCHAR a266
ENCODING 41574
SWIDTH 301 0
DWIDTH 24 0
BBX 24 24 0 -2
BITMAP
000000
000000
000000
000000
000000
000000
000000
000000
000000
ffffff
ffffff
ffffff
ffffff
ffffff
ffffff
ffffff
ffffff
ffffff
ffffff
ffffff
ffffff
ffffff
ffffff
ffffff
ENDCHAR
STARTCHAR a267
ENCODING 41575
SWIDTH 301 0
DWIDTH 24 0
BBX 24 24 0 -2
BITMAP
000000
000000
000000
000000
000000
000000
ffffff
ffffff
ffffff
ffffff
ffffff
ffffff
ffffff
ffffff
ffffff
ffffff
ffffff
ffffff
ffffff
ffffff
ffffff
ffffff
ffffff
ffffff
ENDCHAR
STARTCHAR a268
ENCODING 41576
SWIDTH 301 0
DWIDTH 24 0
BBX 24 24 0 -2
BITMAP
000000
000000
000000
ffffff
ffffff
ffffff
ffffff
ffffff
ffffff
ffffff
ffffff
ffffff
ffffff
ffffff
ffffff
ffffff
ffffff
ffffff
ffffff
ffffff
ffffff
ffffff
ffffff
ffffff
ENDCHAR
STARTCHAR a269
ENCODING 41577
SWIDTH 301 0
DWIDTH 24 0
BBX 24 24 0 -2
BITMAP
ffffff
ffffff
ffffff
ffffff
ffffff
ffffff
ffffff
ffffff
ffffff
ffffff
ffffff
ffffff
ffffff
ffffff
ffffff
ffffff
ffffff
ffffff
ffffff
ffffff
ffffff
ffffff
ffffff
ffffff
ENDCHAR
STARTCHAR a26a
ENCODING 41578
SWIDTH 301 0
DWIDTH 24 0
BBX 24 24 0 -2
BITMAP
e00000
e00000
e00000
e00000
e00000
e00000
e00000
e00000
e00000
e00000
e00000
e00000
e00000
e00000
e00000
e00000
e00000
e00000
e00000
e00000
e00000
e00000
e00000
e00000
ENDCHAR
STARTCHAR a26b
ENCODING 41579
SWIDTH 301 0
DWIDTH 24 0
BBX 24 24 0 -2
BITMAP
fc0000
fc0000
fc0000
fc0000
fc0000
fc0000
fc0000
fc0000
fc0000
fc0000
fc0000
fc0000
fc0000
fc0000
fc0000
fc0000
fc0000
fc0000
fc0000
fc0000
fc0000
fc0000
fc0000
fc0000
ENDCHAR
STARTCHAR a26c
ENCODING 41580
SWIDTH 301 0
DWIDTH 24 0
BBX 24 24 0 -2
BITMAP
ff8000
ff8000
ff8000
ff8000
ff8000
ff8000
ff8000
ff8000
ff8000
ff8000
ff8000
ff8000
ff8000
ff8000
ff8000
ff8000
ff8000
ff8000
ff8000
ff8000
ff8000
ff8000
ff8000
ff8000
ENDCHAR
STARTCHAR a26d
ENCODING 41581
SWIDTH 301 0
DWIDTH 24 0
BBX 24 24 0 -2
BITMAP
fff000
fff000
fff000
fff000
fff000
fff000
fff000
fff000
fff000
fff000
fff000
fff000
fff000
fff000
fff000
fff000
fff000
fff000
fff000
fff000
fff000
fff000
fff000
fff000
ENDCHAR
STARTCHAR a26e
ENCODING 41582
SWIDTH 301 0
DWIDTH 24 0
BBX 24 24 0 -2
BITMAP
fffe00
fffe00
fffe00
fffe00
fffe00
fffe00
fffe00
fffe00
fffe00
fffe00
fffe00
fffe00
fffe00
fffe00
fffe00
fffe00
fffe00
fffe00
fffe00
fffe00
fffe00
fffe00
fffe00
fffe00
ENDCHAR
STARTCHAR a26f
ENCODING 41583
SWIDTH 301 0
DWIDTH 24 0
BBX 24 24 0 -2
BITMAP
ffffc0
ffffc0
ffffc0
ffffc0
ffffc0
ffffc0
ffffc0
ffffc0
ffffc0
ffffc0
ffffc0
ffffc0
ffffc0
ffffc0
ffffc0
ffffc0
ffffc0
ffffc0
ffffc0
ffffc0
ffffc0
ffffc0
ffffc0
ffffc0
ENDCHAR
STARTCHAR a270
ENCODING 41584
SWIDTH 301 0
DWIDTH 24 0
BBX 24 24 0 -2
BITMAP
fffff8
fffff8
fffff8
fffff8
fffff8
fffff8
fffff8
fffff8
fffff8
fffff8
fffff8
fffff8
fffff8
fffff8
fffff8
fffff8
fffff8
fffff8
fffff8
fffff8
fffff8
fffff8
fffff8
fffff8
ENDCHAR
STARTCHAR a271
ENCODING 41585
SWIDTH 301 0
DWIDTH 24 0
BBX 24 24 0 -2
BITMAP
001800
001800
001800
001800
001800
001800
001800
001800
001800
001800
001800
ffffff
ffffff
001800
001800
001800
001800
001800
001800
001800
001800
001800
001800
001800
ENDCHAR
STARTCHAR a272
ENCODING 41586
SWIDTH 301 0
DWIDTH 24 0
BBX 24 24 0 -2
BITMAP
001800
001800
001800
001800
001800
001800
001800
001800
001800
001800
001800
ffffff
ffffff
000000
000000
000000
000000
000000
000000
000000
000000
000000
000000
000000
ENDCHAR
STARTCHAR a273
ENCODING 41587
SWIDTH 301 0
DWIDTH 24 0
BBX 24 24 0 -2
BITMAP
000000
000000
000000
000000
000000
000000
000000
000000
000000
000000
000000
ffffff
ffffff
001800
001800
001800
001800
001800
001800
001800
001800
001800
001800
001800
ENDCHAR
STARTCHAR a274
ENCODING 41588
SWIDTH 301 0
DWIDTH 24 0
BBX 24 24 0 -2
BITMAP
001800
001800
001800
001800
001800
001800
001800
001800
001800
001800
001800
fff800
fff800
001800
001800
001800
001800
001800
001800
001800
001800
001800
001800
001800
ENDCHAR
STARTCHAR a275
ENCODING 41589
SWIDTH 301 0
DWIDTH 24 0
BBX 24 24 0 -2
BITMAP
001800
001800
001800
001800
001800
001800
001800
001800
001800
001800
001800
001fff
001fff
001800
001800
001800
001800
001800
001800
001800
001800
001800
001800
001800
ENDCHAR
STARTCHAR a276
ENCODING 41590
SWIDTH 301 0
DWIDTH 24 0
BBX 24 24 0 -2
BITMAP
ffffff
ffffff
ffffff
000000
000000
000000
000000
000000
000000
000000
000000
000000
000000
000000
000000
000000
000000
000000
000000
000000
000000
000000
000000
000000
ENDCHAR
STARTCHAR a277
ENCODING 41591
SWIDTH 301 0
DWIDTH 24 0
BBX 24 24 0 -2
BITMAP
000000
000000
000000
000000
000000
000000
000000
000000
000000
000000
000000
ffffff
ffffff
000000
000000
000000
000000
000000
000000
000000
000000
000000
000000
000000
ENDCHAR
STARTCHAR a278
ENCODING 41592
SWIDTH 301 0
DWIDTH 24 0
BBX 24 24 0 -2
BITMAP
001800
001800
001800
001800
001800
001800
001800
001800
001800
001800
001800
001800
001800
001800
001800
001800
001800
001800
001800
001800
001800
001800
001800
001800
ENDCHAR
STARTCHAR a279
ENCODING 41593
SWIDTH 301 0
DWIDTH 24 0
BBX 24 24 0 -2
BITMAP
000007
000007
000007
000007
000007
000007
000007
000007
000007
000007
000007
000007
000007
000007
000007
000007
000007
000007
000007
000007
000007
000007
000007
000007
ENDCHAR
STARTCHAR a27a
ENCODING 41594
SWIDTH 301 0
DWIDTH 24 0
BBX 24 24 0 -2
BITMAP
000000
000000
000000
000000
000000
000000
000000
000000
000000
000000
000000
001fff
001fff
001800
001800
001800
001800
001800
001800
001800
001800
001800
001800
001800
ENDCHAR
STARTCHAR a27b
ENCODING 41595
SWIDTH 301 0
DWIDTH 24 0
BBX 24 24 0 -2
BITMAP
000000
000000
000000
000000
000000
000000
000000
000000
000000
000000
000000
fff800
fff800
001800
001800
001800
001800
001800
001800
001800
001800
001800
001800
001800
ENDCHAR
STARTCHAR a27c
ENCODING 41596
SWIDTH 301 0
DWIDTH 24 0
BBX 24 24 0 -2
BITMAP
001800
001800
001800
001800
001800
001800
001800
001800
001800
001800
001800
001fff
001fff
000000
000000
000000
000000
000000
000000
000000
000000
000000
000000
000000
ENDCHAR
STARTCHAR a27d
ENCODING 41597
SWIDTH 301 0
DWIDTH 24 0
BBX 24 24 0 -2
BITMAP
001800
001800
001800
001800
001800
001800
001800
001800
001800
001800
001800
fff800
fff800
000000
000000
000000
000000
000000
000000
000000
000000
000000
000000
000000
ENDCHAR
STARTCHAR a27e
ENCODING 41598
SWIDTH 301 0
DWIDTH 24 0
BBX 24 24 0 -2
BITMAP
000000
000000
000000
000000
000000
000000
000000
000000
000000
000000
000000
000000
000003
00000f
00003c
000070
0000c0
0001c0
000380
000300
000700
000600
000c00
000c00
ENDCHAR
STARTCHAR a2a1
ENCODING 41633
SWIDTH 301 0
DWIDTH 24 0
BBX 24 24 0 -2
BITMAP
000000
000000
000000
000000
000000
000000
000000
000000
000000
000000
000000
000000
c00000
f00000
3c0000
0e0000
070000
038000
01c000
00c000
00e000
006000
003000
003000
ENDCHAR
STARTCHAR a2a2
ENCODING 41634
SWIDTH 301 0
DWIDTH 24 0
BBX 24 24 0 -2
BITMAP
000c00
000c00
000600
000600
000300
000300
0001c0
0000e0
000078
00001c
00000e
000003
000000
000000
000000
000000
000000
000000
000000
000000
000000
000000
000000
000000
ENDCHAR
STARTCHAR a2a3
ENCODING 41635
SWIDTH 301 0
DWIDTH 24 0
BBX 24 24 0 -2
BITMAP
003000
003000
006000
006000
00c000
01c000
018000
070000
1e0000
380000
f00000
c00000
000000
000000
000000
000000
000000
000000
000000
000000
000000
000000
000000
000000
ENDCHAR
STARTCHAR a2a4
ENCODING 41636
SWIDTH 301 0
DWIDTH 24 0
BBX 24 24 0 -2
BITMAP
000000
000000
000000
000000
000000
000000
ffffff
ffffff
000000
000000
000000
000000
000000
000000
000000
000000
ffffff
ffffff
000000
000000
000000
000000
000000
000000
ENDCHAR
STARTCHAR a2a5
ENCODING 41637
SWIDTH 301 0
DWIDTH 24 0
BBX 24 24 0 -2
BITMAP
001800
001800
001800
001800
001800
001800
001fff
001fff
001800
001800
001800
001800
001800
001800
001800
001800
001fff
001fff
001800
001800
001800
001800
001800
001800
ENDCHAR
STARTCHAR a2a6
ENCODING 41638
SWIDTH 301 0
DWIDTH 24 0
BBX 24 24 0 -2
BITMAP
001800
001800
001800
001800
001800
001800
ffffff
ffffff
001800
001800
001800
001800
001800
001800
001800
001800
ffffff
ffffff
001800
001800
001800
001800
001800
001800
ENDCHAR
STARTCHAR a2a7
ENCODING 41639
SWIDTH 301 0
DWIDTH 24 0
BBX 24 24 0 -2
BITMAP
001800
001800
001800
001800
001800
001800
fff800
fff800
001800
001800
001800
001800
001800
001800
001800
001800
fff800
fff800
001800
001800
001800
001800
001800
001800
ENDCHAR
STARTCHAR a2a8
ENCODING 41640
SWIDTH 301 0
DWIDTH 24 0
BBX 24 24 0 -2
BITMAP
000001
000003
000007
00000f
00001f
00003f
00007f
0000ff
0001ff
0003ff
0007ff
000fff
001fff
003fff
007fff
00ffff
01ffff
03ffff
07ffff
0fffff
1fffff
3fffff
7fffff
ffffff
ENDCHAR
STARTCHAR a2a9
ENCODING 41641
SWIDTH 301 0
DWIDTH 24 0
BBX 24 24 0 -2
BITMAP
800000
c00000
e00000
f00000
f80000
fc0000
fe0000
ff0000
ff8000
ffc000
ffe000
fff000
fff800
fffc00
fffe00
ffff00
ffff80
ffffc0
ffffe0
fffff0
fffff8
fffffc
fffffe
ffffff
ENDCHAR
STARTCHAR a2aa
ENCODING 41642
SWIDTH 301 0
DWIDTH 24 0
BBX 24 24 0 -2
BITMAP
ffffff
7fffff
3fffff
1fffff
0fffff
07ffff
03ffff
01ffff
00ffff
007fff
003fff
001fff
000fff
0007ff
0003ff
0001ff
0000ff
00007f
00003f
00001f
00000f
000007
000003
000001
ENDCHAR
STARTCHAR a2ab
ENCODING 41643
SWIDTH 301 0
DWIDTH 24 0
BBX 24 24 0 -2
BITMAP
ffffff
fffffe
fffffc
fffff8
fffff0
ffffe0
ffffc0
ffff80
ffff00
fffe00
fffc00
fff800
fff000
ffe000
ffc000
ff8000
ff0000
fe0000
fc0000
f80000
f00000
e00000
c00000
800000
ENDCHAR
STARTCHAR a2ac
ENCODING 41644
SWIDTH 301 0
DWIDTH 24 0
BBX 24 24 0 -2
BITMAP
000003
000006
00000c
000018
000030
000060
0000c0
000180
000300
000600
000c00
001800
003000
006000
00c000
018000
030000
060000
0c0000
180000
300000
600000
c00000
800000
ENDCHAR
STARTCHAR a2ad
ENCODING 41645
SWIDTH 301 0
DWIDTH 24 0
BBX 24 24 0 -2
BITMAP
800000
c00000
600000
300000
180000
0c0000
060000
030000
018000
00c000
006000
003000
001800
000c00
000600
000300
000180
0000c0
000060
000030
000018
00000c
000006
000003
ENDCHAR
STARTCHAR a2ae
ENCODING 41646
SWIDTH 301 0
DWIDTH 24 0
BBX 24 24 0 -2
BITMAP
c00001
600003
300006
18000c
0c0018
060030
030060
0180c0
00c180
006300
003600
001c00
001c00
003600
006300
00c180
0180c0
030060
060030
0c0018
18000c
300006
600003
c00001
ENDCHAR
STARTCHAR a2af
ENCODING 41647
SWIDTH 301 0
DWIDTH 24 0
BBX 24 24 0 -2
BITMAP
000000
000000
00ff00
018180
0300c0
0300c0
060060
060060
0c0030
0c0030
0c0030
0c0030
0c0030
0c0030
0c0030
0c0030
060060
060060
0300c0
0300c0
018180
00ff00
000000
000000
ENDCHAR
STARTCHAR a2b0
ENCODING 41648
SWIDTH 301 0
DWIDTH 24 0
BBX 24 24 0 -2
BITMAP
000000
000000
001800
007800
01f800
001800
001800
001800
001800
001800
001800
001800
001800
001800
001800
001800
001800
001800
001800
001800
001800
01ff80
000000
000000
ENDCHAR
STARTCHAR a2b1
ENCODING 41649
SWIDTH 301 0
DWIDTH 24 0
BBX 24 24 0 -2
BITMAP
000000
000000
01ff80
0700c0
0e0060
0f0030
0f0030
060030
000060
0000c0
000380
000e00
003800
00e000
018000
030000
060000
0c0010
0c0010
0c0010
0ffff0
0ffff0
000000
000000
ENDCHAR
STARTCHAR a2b2
ENCODING 41650
SWIDTH 301 0
DWIDTH 24 0
BBX 24 24 0 -2
BITMAP
000000
000000
00ff00
0381c0
070060
078030
078030
030030
000060
0000c0
000380
003e00
000380
0000e0
000060
000030
060030
0f0030
0f0060
0e0060
0701c0
01ff00
000000
000000
ENDCHAR
STARTCHAR a2b3
ENCODING 41651
SWIDTH 301 0
DWIDTH 24 0
BBX 24 24 0 -2
BITMAP
000000
000000
000300
000700
000f00
001b00
003300
006300
00c300
018300
030300
060300
0c0300
180300
300300
300300
3ffff8
000300
000300
000300
000300
001fe0
000000
000000
ENDCHAR
STARTCHAR a2b4
ENCODING 41652
SWIDTH 301 0
DWIDTH 24 0
BBX 24 24 0 -2
BITMAP
000000
000000
07ffe0
07ffe0
060000
060000
060000
060000
060000
063e00
06c380
0701c0
060060
000030
000030
000030
060030
0f0030
0f0060
0600c0
030380
01fe00
000000
000000
ENDCHAR
STARTCHAR a2b5
ENCODING 41653
SWIDTH 301 0
DWIDTH 24 0
BBX 24 24 0 -2
BITMAP
000000
000000
007f80
01c0c0
0381e0
0601e0
0600c0
0c0000
0c0000
0c0000
0c7f00
0dc1c0
0f00e0
0e0060
0c0030
0c0030
0c0030
0c0030
060060
0700e0
0381c0
00ff00
000000
000000
ENDCHAR
STARTCHAR a2b6
ENCODING 41654
SWIDTH 301 0
DWIDTH 24 0
BBX 24 24 0 -2
BITMAP
000000
000000
07fff0
0ffff0
080030
080030
080060
000060
0000c0
000180
000300
000600
000c00
000c00
001800
001800
001800
001800
001800
001800
001800
001800
000000
000000
ENDCHAR
STARTCHAR a2b7
ENCODING 41655
SWIDTH 301 0
DWIDTH 24 0
BBX 24 24 0 -2
BITMAP
000000
000000
00ff00
018180
0300c0
060060
060060
060060
0300c0
018180
00e700
007e00
01c380
0300c0
060060
0c0030
0c0030
0c0030
0c0030
060060
0300c0
01ff80
000000
000000
ENDCHAR
STARTCHAR a2b8
ENCODING 41656
SWIDTH 301 0
DWIDTH 24 0
BBX 24 24 0 -2
BITMAP
000000
000000
00ff00
0381c0
0700e0
060060
0c0030
0c0030
0c0030
0c0030
060070
0700f0
0383b0
00fe30
000030
000030
000030
030060
078060
0781c0
030380
01fe00
000000
000000
ENDCHAR
STARTCHAR a2b9
ENCODING 41657
SWIDTH 301 0
DWIDTH 24 0
BBX 24 24 0 -2
BITMAP
000000
000000
01ff80
001800
001800
001800
001800
001800
001800
001800
001800
001800
001800
001800
001800
001800
001800
001800
001800
001800
01ff80
000000
000000
000000
ENDCHAR
STARTCHAR a2ba
ENCODING 41658
SWIDTH 301 0
DWIDTH 24 0
BBX 24 24 0 -2
BITMAP
000000
000000
03ffe0
006300
006300
006300
006300
006300
006300
006300
006300
006300
006300
006300
006300
006300
006300
006300
006300
006300
03ffe0
000000
000000
000000
ENDCHAR
STARTCHAR a2bb
ENCODING 41659
SWIDTH 301 0
DWIDTH 24 0
BBX 24 24 0 -2
BITMAP
000000
000000
07ffe0
019980
019980
019980
019980
019980
019980
019980
019980
019980
019980
019980
019980
019980
019980
019980
019980
019980
07ffe0
000000
000000
000000
ENDCHAR
STARTCHAR a2bc
ENCODING 41660
SWIDTH 301 0
DWIDTH 24 0
BBX 24 24 0 -2
BITMAP
000000
000000
7ff01e
18600c
18600c
18600c
18600c
183018
183018
183018
183018
181830
181830
181830
180c60
180c60
180c60
1806c0
1806c0
180380
7f0100
000000
000000
000000
ENDCHAR
STARTCHAR a2bd
ENCODING 41661
SWIDTH 301 0
DWIDTH 24 0
BBX 24 24 0 -2
BITMAP
000000
000000
3f007e
0c0018
0c0018
0c0018
060030
060030
060030
030060
030060
0180c0
0180c0
00c180
00c180
006300
006300
003600
003600
001c00
000800
000000
000000
000000
ENDCHAR
STARTCHAR a2be
ENCODING 41662
SWIDTH 301 0
DWIDTH 24 0
BBX 24 24 0 -2
BITMAP
000000
000000
f01ffe
600c30
600c30
600c30
600c30
301830
301830
301830
301830
183030
183030
183030
0c6030
0c6030
0c6030
06c030
06c030
038030
0101fe
000000
000000
000000
ENDCHAR
STARTCHAR a2bf
ENCODING 41663
SWIDTH 301 0
DWIDTH 24 0
BBX 24 24 0 -2
BITMAP
000000
000000
780ffe
3006cc
3006cc
3006cc
3006cc
180ccc
180ccc
180ccc
180ccc
0c18cc
0c18cc
0c18cc
0630cc
0630cc
0630cc
0360cc
0360cc
01c0cc
0081fe
000000
000000
000000
ENDCHAR
STARTCHAR a2c0
ENCODING 41664
SWIDTH 301 0
DWIDTH 24 0
BBX 24 24 0 -2
BITMAP
000000
000000
f07ffe
60336c
60336c
60336c
60336c
60336c
60336c
30636c
30636c
30636c
30636c
30636c
18c36c
18c36c
18c36c
0d836c
0d836c
07036c
0207fe
000000
000000
000000
ENDCHAR
STARTCHAR a2c1
ENCODING 41665
SWIDTH 301 0
DWIDTH 24 0
BBX 24 24 0 -2
BITMAP
000000
000000
7ff01e
18600c
18600c
183018
183018
181830
181830
180c60
1806c0
180380
1806c0
180c60
181830
181830
183018
183018
18600c
18600c
7ff01e
000000
000000
000000
ENDCHAR
STARTCHAR a2c2
ENCODING 41666
SWIDTH 301 0
DWIDTH 24 0
BBX 24 24 0 -2
BITMAP
000000
000000
7c003e
180018
0c0030
060060
0300c0
018180
00c300
006600
003c00
001800
003c00
006600
00c300
018180
0300c0
060060
0c0030
180018
7c003e
000000
000000
000000
ENDCHAR
STARTCHAR a2c3
ENCODING 41667
SWIDTH 301 0
DWIDTH 24 0
BBX 24 24 0 -2
BITMAP
000000
000000
002000
003000
003000
003000
003000
003000
003000
003000
003000
003000
003000
003000
003000
003000
003000
003000
003000
003000
003000
001000
000000
000000
ENDCHAR
STARTCHAR a2c4
ENCODING 41668
SWIDTH 301 0
DWIDTH 24 0
BBX 24 24 0 -2
BITMAP
000000
000000
000200
000600
000600
008600
018600
018600
018600
018600
018600
018600
018600
018600
018600
018600
018600
018600
008600
000600
000600
000200
000000
000000
ENDCHAR
STARTCHAR a2c5
ENCODING 41669
SWIDTH 301 0
DWIDTH 24 0
BBX 24 24 0 -2
BITMAP
000000
000000
000040
0000c0
0000c0
0300c0
0300c0
0318c0
0318c0
0318c0
0318c0
0318c0
0318c0
0318c0
0318c0
0318c0
0318c0
0300c0
0300c0
0000c0
0000c0
000040
000000
000000
ENDCHAR
STARTCHAR a2c6
ENCODING 41670
SWIDTH 301 0
DWIDTH 24 0
BBX 24 24 0 -2
BITMAP
000000
000000
000000
180030
0c0030
060030
030070
0180e0
00c1c0
006380
003700
001e00
001c00
001c00
003600
006300
00c180
0180c0
030060
060038
1c001c
000000
000000
000000
ENDCHAR
STARTCHAR a2c7
ENCODING 41671
SWIDTH 301 0
DWIDTH 24 0
BBX 24 24 0 -2
BITMAP
000000
000000
000000
0018c0
003980
003180
006300
006300
006e00
003c00
001e00
003300
006300
00c180
00c180
018180
018180
018180
018180
00c300
00c600
006c00
003800
000000
ENDCHAR
STARTCHAR a2c8
ENCODING 41672
SWIDTH 301 0
DWIDTH 24 0
BBX 24 24 0 -2
BITMAP
000000
000000
000000
000000
000000
003800
003800
003000
003000
003000
003000
003030
1ffff8
0ffff0
000000
000000
000000
000000
000000
000000
000000
000000
000000
000000
ENDCHAR
STARTCHAR a2c9
ENCODING 41673
SWIDTH 301 0
DWIDTH 24 0
BBX 24 24 0 -2
BITMAP
000000
000000
000000
000000
003000
003800
003800
003000
003000
003040
3fffe0
1ffff0
000000
000000
000080
0fffc0
07ffe0
000000
000000
000000
000000
000000
000000
000000
ENDCHAR
STARTCHAR a2ca
ENCODING 41674
SWIDTH 301 0
DWIDTH 24 0
BBX 24 24 0 -2
BITMAP
000000
000000
000000
003000
003800
003800
003000
003000
003040
1fffe0
0ffff0
000000
000000
000100
03ff80
01ffc0
000000
000000
000030
3ffff8
1ffffc
000000
000000
000000
ENDCHAR
STARTCHAR a2cb
ENCODING 41675
SWIDTH 301 0
DWIDTH 24 0
BBX 24 24 0 -2
BITMAP
000000
000000
003000
006000
00c000
018000
03fff0
07fff0
000030
060060
0600c0
030180
018300
00c600
006c00
003800
003c00
006600
00c380
0181c0
0700fc
1e0038
000000
000000
ENDCHAR
STARTCHAR a2cc
ENCODING 41676
SWIDTH 301 0
DWIDTH 24 0
BBX 24 24 0 -2
BITMAP
000000
000000
001000
001800
001800
001800
001800
001800
001800
001818
0ffffc
1ffff8
001800
001800
001800
001800
001800
001800
001800
001800
001800
001800
000000
000000
ENDCHAR
STARTCHAR a2cd
ENCODING 41677
SWIDTH 301 0
DWIDTH 24 0
BBX 24 24 0 -2
BITMAP
000000
000000
00c200
00e380
00e380
00c300
00c300
00c300
00c300
00c330
3ffff8
1ffffc
00c300
00c300
00c300
00c300
00c300
00c300
00c300
000000
000000
000000
000000
000000
ENDCHAR
STARTCHAR a2ce
ENCODING 41678
SWIDTH 301 0
DWIDTH 24 0
BBX 24 24 0 -2
BITMAP
000000
000000
000000
0318c0
0318c0
0318c0
0318c0
0318c0
0318c0
031cd8
3ffffc
1ffffc
0318c0
0318c0
0318c0
0318c0
0318c0
0318c0
0318c0
0318c0
0318c0
000000
000000
000000
ENDCHAR
STARTCHAR a2cf
ENCODING 41679
SWIDTH 301 0
DWIDTH 24 0
BBX 24 24 0 -2
BITMAP
000000
000000
001800
003c00
003c00
007e00
006600
006600
00e700
00c300
01c380
018180
018180
0381c0
03ffc0
0700e0
060060
060060
0e0070
0e0070
0c0030
3f00fc
000000
000000
ENDCHAR
STARTCHAR a2d0
ENCODING 41680
SWIDTH 301 0
DWIDTH 24 0
BBX 24 24 0 -2
BITMAP
000000
000000
0ffe00
030380
0300c0
030060
030060
030060
030060
0300c0
030180
03ff00
0301c0
030070
030030
030018
030018
030018
030030
030030
0300e0
0fff80
000000
000000
ENDCHAR
STARTCHAR a2d1
ENCODING 41681
SWIDTH 301 0
DWIDTH 24 0
BBX 24 24 0 -2
BITMAP
000000
000000
00ff10
0381f0
0600f0
0e0070
0c0030
1c0010
180000
180000
180000
180000
180000
180000
180000
1c0000
0c0000
0c0030
060060
0300c0
01c180
007f00
000000
000000
ENDCHAR
STARTCHAR a2d2
ENCODING 41682
SWIDTH 301 0
DWIDTH 24 0
BBX 24 24 0 -2
BITMAP
000000
000000
1ffe00
060380
0600e0
060060
060030
060030
060018
060018
060018
060018
060018
060018
060018
060018
060030
060030
060060
0600e0
060380
1ffe00
000000
000000
ENDCHAR
STARTCHAR a2d3
ENCODING 41683
SWIDTH 301 0
DWIDTH 24 0
BBX 24 24 0 -2
BITMAP
000000
000000
0fffe0
0300e0
030060
030020
030020
030000
030200
030200
030600
03fe00
030600
030200
030200
030000
030000
030020
030020
030060
0300e0
0fffe0
000000
000000
ENDCHAR
STARTCHAR a2d4
ENCODING 41684
SWIDTH 301 0
DWIDTH 24 0
BBX 24 24 0 -2
BITMAP
000000
000000
0fffe0
0300e0
030060
030020
030020
030000
030200
030200
030600
03fe00
030600
030200
030200
030000
030000
030000
030000
030000
030000
0fc000
000000
000000
ENDCHAR
STARTCHAR a2d5
ENCODING 41685
SWIDTH 301 0
DWIDTH 24 0
BBX 24 24 0 -2
BITMAP
000000
000000
00fe20
0381e0
0700e0
060060
0c0020
0c0020
1c0000
180000
180000
180000
1801f8
180060
180060
1c0060
0c0060
0c00e0
0600e0
0701e0
038360
00fe60
000000
000000
ENDCHAR
STARTCHAR a2d6
ENCODING 41686
SWIDTH 301 0
DWIDTH 24 0
BBX 24 24 0 -2
BITMAP
000000
000000
1f81f8
060060
060060
060060
060060
060060
060060
060060
060060
07ffe0
060060
060060
060060
060060
060060
060060
060060
060060
060060
1f81f8
000000
000000
ENDCHAR
STARTCHAR a2d7
ENCODING 41687
SWIDTH 301 0
DWIDTH 24 0
BBX 24 24 0 -2
BITMAP
000000
000000
00ff00
001800
001800
001800
001800
001800
001800
001800
001800
001800
001800
001800
001800
001800
001800
001800
001800
001800
001800
00ff00
000000
000000
ENDCHAR
STARTCHAR a2d8
ENCODING 41688
SWIDTH 301 0
DWIDTH 24 0
BBX 24 24 0 -2
BITMAP
000000
000000
0007e0
000180
000180
000180
000180
000180
000180
000180
000180
000180
000180
000180
000180
060180
0f0180
0f0180
0e0380
060300
030e00
01f800
000000
000000
ENDCHAR
STARTCHAR a2d9
ENCODING 41689
SWIDTH 301 0
DWIDTH 24 0
BBX 24 24 0 -2
BITMAP
000000
000000
1f83f8
0600c0
060180
060300
060600
060c00
061800
063000
067000
06f800
079c00
070c00
060e00
060600
060300
060380
0601c0
0601c0
0600e0
1f83f8
000000
000000
ENDCHAR
STARTCHAR a2da
ENCODING 41690
SWIDTH 301 0
DWIDTH 24 0
BBX 24 24 0 -2
BITMAP
000000
000000
0fc000
030000
030000
030000
030000
030000
030000
030000
030000
030000
030000
030000
030000
030000
030000
030010
030010
030030
030070
0ffff0
000000
000000
ENDCHAR
STARTCHAR a2db
ENCODING 41691
SWIDTH 301 0
DWIDTH 24 0
BBX 24 24 0 -2
BITMAP
000000
000000
3c003c
1c0038
1e0078
1e0078
1b00d8
1b00d8
1b81d8
198198
19c398
18c318
18e718
186618
187e18
183c18
183c18
181818
181818
180018
180018
7e007e
000000
000000
ENDCHAR
STARTCHAR a2dc
ENCODING 41692
SWIDTH 301 0
DWIDTH 24 0
BBX 24 24 0 -2
BITMAP
000000
000000
3f00fc
0f8030
0d8030
0dc030
0ce030
0c6030
0c7030
0c3830
0c1830
0c1c30
0c0e30
0c0630
0c0730
0c03b0
0c01b0
0c01f0
0c00f0
0c0070
0c0070
3f0030
000000
000000
ENDCHAR
STARTCHAR a2dd
ENCODING 41693
SWIDTH 301 0
DWIDTH 24 0
BBX 24 24 0 -2
BITMAP
000000
000000
00ff00
0381c0
060060
0e0070
0c0030
0c0030
1c0038
180018
180018
180018
180018
180018
180018
1c0038
0c0030
0c0030
0e0070
060060
0381c0
00ff00
000000
000000
ENDCHAR
STARTCHAR a2de
ENCODING 41694
SWIDTH 301 0
DWIDTH 24 0
BBX 24 24 0 -2
BITMAP
000000
000000
0fff00
0301c0
030060
030060
030030
030030
030030
030060
030060
0301c0
03ff00
030000
030000
030000
030000
030000
030000
030000
030000
0fc000
000000
000000
ENDCHAR
STARTCHAR a2df
ENCODING 41695
SWIDTH 301 0
DWIDTH 24 0
BBX 24 24 0 -2
BITMAP
000000
000000
00ff00
0381c0
060060
0e0070
0c0030
0c0030
1c0038
180018
180018
180018
180018
180018
180018
1c0038
0c1c30
0c3630
0e0330
0601e0
0381c0
00ff63
00003e
00001c
ENDCHAR
STARTCHAR a2e0
ENCODING 41696
SWIDTH 301 0
DWIDTH 24 0
BBX 24 24 0 -2
BITMAP
000000
000000
0ffe00
030380
0300c0
0300c0
030060
030060
030060
0300c0
030080
030380
03fe00
030c00
030600
030300
030300
030180
030180
0300c0
030060
0fc1f8
000000
000000
ENDCHAR
STARTCHAR a2e1
ENCODING 41697
SWIDTH 301 0
DWIDTH 24 0
BBX 24 24 0 -2
BITMAP
000000
000000
00ff20
0181e0
0300e0
060060
060020
070000
038000
01e000
007800
001e00
000780
0001e0
000070
040030
040030
060030
070070
078060
06c0c0
047f80
000000
000000
ENDCHAR
STARTCHAR a2e2
ENCODING 41698
SWIDTH 301 0
DWIDTH 24 0
BBX 24 24 0 -2
BITMAP
000000
000000
0ffff0
0e1870
0c1830
081810
081810
001800
001800
001800
001800
001800
001800
001800
001800
001800
001800
001800
001800
001800
001800
007e00
000000
000000
ENDCHAR
STARTCHAR a2e3
ENCODING 41699
SWIDTH 301 0
DWIDTH 24 0
BBX 24 24 0 -2
BITMAP
000000
000000
1f81f8
060060
060060
060060
060060
060060
060060
060060
060060
060060
060060
060060
060060
060060
060060
060060
0300c0
0381c0
01c380
00ff00
000000
000000
ENDCHAR
STARTCHAR a2e4
ENCODING 41700
SWIDTH 301 0
DWIDTH 24 0
BBX 24 24 0 -2
BITMAP
000000
000000
3f00fc
0c0030
0c0030
0e0070
060060
060060
0700e0
0300c0
0300c0
0381c0
018180
01c180
00c300
00c300
006600
006600
003c00
003c00
001800
001800
000000
000000
ENDCHAR
STARTCHAR a2e5
ENCODING 41701
SWIDTH 301 0
DWIDTH 24 0
BBX 24 24 0 -2
BITMAP
000000
000000
fc7e3f
30180c
30180c
383c1c
187e18
186618
186618
1ce738
0cc330
0cc330
0cc330
0cc330
0f81f0
0781e0
0781e0
0781e0
0300c0
0300c0
0300c0
0300c0
000000
000000
ENDCHAR
STARTCHAR a2e6
ENCODING 41702
SWIDTH 301 0
DWIDTH 24 0
BBX 24 24 0 -2
BITMAP
000000
000000
3f00fc
0e0070
070060
0300c0
038180
01c380
00e300
00e600
007e00
003c00
003c00
007e00
006700
00c700
01c380
0181c0
0300c0
0600e0
0e0070
3f00fc
000000
000000
ENDCHAR
STARTCHAR a2e7
ENCODING 41703
SWIDTH 301 0
DWIDTH 24 0
BBX 24 24 0 -2
BITMAP
000000
000000
3f81fc
0e0070
060060
0700e0
0381c0
01c380
00c300
00e700
007e00
003c00
001800
001800
001800
001800
001800
001800
001800
001800
001800
007e00
000000
000000
ENDCHAR
STARTCHAR a2e8
ENCODING 41704
SWIDTH 301 0
DWIDTH 24 0
BBX 24 24 0 -2
BITMAP
000000
000000
0ffff0
0e0070
0c00e0
0801c0
0801c0
000380
000700
000e00
000e00
001c00
003800
007000
00e000
01c000
038000
030008
070008
0e0018
1c0038
1ffff8
000000
000000
ENDCHAR
STARTCHAR a2e9
ENCODING 41705
SWIDTH 301 0
DWIDTH 24 0
BBX 24 24 0 -2
BITMAP
000000
000000
000000
000000
000000
000000
000000
000000
000000
01fc00
030600
078300
020300
000300
00ff00
038300
060300
060300
060300
060300
070f20
03f9c0
000000
000000
ENDCHAR
STARTCHAR a2ea
ENCODING 41706
SWIDTH 301 0
DWIDTH 24 0
BBX 24 24 0 -2
BITMAP
000000
000000
0f0000
030000
030000
030000
030000
030000
030000
037f00
03c180
0380c0
0300c0
030060
030060
030060
030060
030060
0300c0
0380c0
03c180
0f7f00
000000
000000
ENDCHAR
STARTCHAR a2eb
ENCODING 41707
SWIDTH 301 0
DWIDTH 24 0
BBX 24 24 0 -2
BITMAP
000000
000000
000000
000000
000000
000000
000000
000000
000000
00ff00
018380
0301c0
0303c0
060180
060000
060000
060000
060000
030000
0300c0
018180
00ff00
000000
000000
ENDCHAR
STARTCHAR a2ec
ENCODING 41708
SWIDTH 301 0
DWIDTH 24 0
BBX 24 24 0 -2
BITMAP
000000
000000
0003c0
0000c0
0000c0
0000c0
0000c0
0000c0
0000c0
00fec0
0183c0
0301c0
0300c0
0600c0
0600c0
0600c0
0600c0
0600c0
0300c0
0301c0
0183c0
00fe40
000000
000000
ENDCHAR
STARTCHAR a2ed
ENCODING 41709
SWIDTH 301 0
DWIDTH 24 0
BBX 24 24 0 -2
BITMAP
000000
000000
000000
000000
000000
000000
000000
000000
000000
00ff00
018180
0300c0
0300c0
060060
060060
07ffe0
060000
060000
030000
030060
0180c0
00ff80
000000
000000
ENDCHAR
STARTCHAR a2ee
ENCODING 41710
SWIDTH 301 0
DWIDTH 24 0
BBX 24 24 0 -2
BITMAP
000000
000000
001f00
003380
006380
006100
006000
006000
006000
07ff00
006000
006000
006000
006000
006000
006000
006000
006000
006000
006000
006000
01f800
000000
000000
ENDCHAR
STARTCHAR a2ef
ENCODING 41711
SWIDTH 301 0
DWIDTH 24 0
BBX 24 24 0 -2
BITMAP
000000
000000
000000
000000
000000
000000
000000
000000
000000
00fcc0
0187c0
030380
030300
030300
018600
00fc00
018000
01f000
033f00
060780
0600c0
0600c0
030180
01ff00
ENDCHAR
STARTCHAR a2f0
ENCODING 41712
SWIDTH 301 0
DWIDTH 24 0
BBX 24 24 0 -2
BITMAP
000000
000000
0f0000
030000
030000
030000
030000
030000
030000
033f00
036380
03c1c0
0380c0
0300c0
0300c0
0300c0
0300c0
0300c0
0300c0
0300c0
0300c0
0fc3f0
000000
000000
ENDCHAR
STARTCHAR a2f1
ENCODING 41713
SWIDTH 301 0
DWIDTH 24 0
BBX 24 24 0 -2
BITMAP
000000
000000
001800
003c00
003c00
001800
000000
000000
000000
007800
001800
001800
001800
001800
001800
001800
001800
001800
001800
001800
001800
007e00
000000
000000
ENDCHAR
STARTCHAR a2f2
ENCODING 41714
SWIDTH 301 0
DWIDTH 24 0
BBX 24 24 0 -2
BITMAP
000000
000000
000c00
001e00
001e00
000c00
000000
000000
000000
001e00
000600
000600
000600
000600
000600
000600
000600
000600
000600
018600
03c600
038600
018c00
00f800
ENDCHAR
STARTCHAR a2f3
ENCODING 41715
SWIDTH 301 0
DWIDTH 24 0
BBX 24 24 0 -2
BITMAP
000000
000000
0f0000
030000
030000
030000
030000
030000
030000
030fc0
030300
030600
030c00
031800
033800
036c00
03c600
030300
030180
0300c0
030060
0fc1f8
000000
000000
ENDCHAR
STARTCHAR a2f4
ENCODING 41716
SWIDTH 301 0
DWIDTH 24 0
BBX 24 24 0 -2
BITMAP
000000
000000
007800
001800
001800
001800
001800
001800
001800
001800
001800
001800
001800
001800
001800
001800
001800
001800
001800
001800
001800
007e00
000000
000000
ENDCHAR
STARTCHAR a2f5
ENCODING 41717
SWIDTH 301 0
DWIDTH 24 0
BBX 24 24 0 -2
BITMAP
000000
000000
000000
000000
000000
000000
000000
000000
000000
79e3e0
1f3630
1c1c18
181818
181818
181818
181818
181818
181818
181818
181818
181818
7e3c3c
000000
000000
ENDCHAR
STARTCHAR a2f6
ENCODING 41718
SWIDTH 301 0
DWIDTH 24 0
BBX 24 24 0 -2
BITMAP
000000
000000
000000
000000
000000
000000
000000
000000
000000
0f3f00
036180
03c0c0
0380c0
0300c0
0300c0
0300c0
0300c0
0300c0
0300c0
0300c0
0300c0
0fc3f0
000000
000000
ENDCHAR
STARTCHAR a2f7
ENCODING 41719
SWIDTH 301 0
DWIDTH 24 0
BBX 24 24 0 -2
BITMAP
000000
000000
000000
000000
000000
000000
000000
000000
000000
00ff00
018180
0300c0
0300c0
060060
060060
060060
060060
060060
0300c0
0300c0
018180
00ff00
000000
000000
ENDCHAR
STARTCHAR a2f8
ENCODING 41720
SWIDTH 301 0
DWIDTH 24 0
BBX 24 24 0 -2
BITMAP
000000
000000
000000
000000
000000
000000
000000
000000
000000
07bf00
01e180
01c0c0
0180c0
018060
018060
018060
0180c0
01c0c0
01e180
01bf00
018000
018000
018000
07e000
ENDCHAR
STARTCHAR a2f9
ENCODING 41721
SWIDTH 301 0
DWIDTH 24 0
BBX 24 24 0 -2
BITMAP
000000
000000
000000
000000
000000
000000
000000
000000
000000
00fc80
018780
030380
030180
060180
060180
060180
030180
030380
018780
00fd80
000180
000180
000180
0007e0
ENDCHAR
STARTCHAR a2fa
ENCODING 41722
SWIDTH 301 0
DWIDTH 24 0
BBX 24 24 0 -2
BITMAP
000000
000000
000000
000000
000000
000000
000000
000000
000000
079f00
01b380
01e3c0
01c180
018000
018000
018000
018000
018000
018000
018000
018000
07e000
000000
000000
ENDCHAR
STARTCHAR a2fb
ENCODING 41723
SWIDTH 301 0
DWIDTH 24 0
BBX 24 24 0 -2
BITMAP
000000
000000
000000
000000
000000
000000
000000
000000
000000
00fe00
018380
030180
030080
03c000
01f000
003e00
000f80
0001c0
0200c0
0300c0
038180
00ff00
000000
000000
ENDCHAR
STARTCHAR a2fc
ENCODING 41724
SWIDTH 301 0
DWIDTH 24 0
BBX 24 24 0 -2
BITMAP
000000
000000
000000
000000
002000
006000
006000
006000
006000
03ff00
006000
006000
006000
006000
006000
006000
006000
006000
006180
006180
003300
001e00
000000
000000
ENDCHAR
STARTCHAR a2fd
ENCODING 41725
SWIDTH 301 0
DWIDTH 24 0
BBX 24 24 0 -2
BITMAP
000000
000000
000000
000000
000000
000000
000000
000000
000000
0f03c0
0300c0
0300c0
0300c0
0300c0
0300c0
0300c0
0300c0
0300c0
0301c0
0303c0
0186c0
00fcf0
000000
000000
ENDCHAR
STARTCHAR a2fe
ENCODING 41726
SWIDTH 301 0
DWIDTH 24 0
BBX 24 24 0 -2
BITMAP
000000
000000
000000
000000
000000
000000
000000
000000
000000
0fc3f0
0300c0
0300c0
018180
018180
00c300
00c300
006600
006600
003c00
003c00
001800
001800
000000
000000
ENDCHAR
STARTCHAR a340
ENCODING 41792
SWIDTH 301 0
DWIDTH 24 0
BBX 24 24 0 -2
BITMAP
000000
000000
000000
000000
000000
000000
000000
000000
000000
3c7c78
183830
183830
187c30
0c6c60
0cc660
0cc660
0cc660
0783c0
0783c0
030180
030180
030180
000000
000000
ENDCHAR
STARTCHAR a341
ENCODING 41793
SWIDTH 301 0
DWIDTH 24 0
BBX 24 24 0 -2
BITMAP
000000
000000
000000
000000
000000
000000
000000
000000
000000
0fc3f0
0300c0
018180
00c300
006600
003c00
001800
003c00
006600
00c300
018180
0300c0
0fc3f0
000000
000000
ENDCHAR
STARTCHAR a342
ENCODING 41794
SWIDTH 301 0
DWIDTH 24 0
BBX 24 24 0 -2
BITMAP
000000
000000
000000
000000
000000
000000
000000
000000
000000
0fc1f8
030060
0180c0
00c0c0
006180
006180
003300
001e00
001e00
000c00
001800
031800
073000
066000
03c000
ENDCHAR
STARTCHAR a343
ENCODING 41795
SWIDTH 301 0
DWIDTH 24 0
BBX 24 24 0 -2
BITMAP
000000
000000
000000
000000
000000
000000
000000
000000
000000
03ffc0
0300c0
020180
020300
000600
000c00
001800
003000
006020
00c020
018020
030060
03ffe0
000000
000000
ENDCHAR
STARTCHAR a344
ENCODING 41796
SWIDTH 301 0
DWIDTH 24 0
BBX 24 24 0 -2
BITMAP
000000
000000
001800
003c00
002c00
006600
004600
004600
00c300
008300
018180
010180
010180
0300c0
03ffc0
0600e0
040060
040060
0c0030
080030
080030
3e00fc
000000
000000
ENDCHAR
STARTCHAR a345
ENCODING 41797
SWIDTH 301 0
DWIDTH 24 0
BBX 24 24 0 -2
BITMAP
000000
000000
0ffe00
030380
0300c0
030060
030060
030060
030060
0300c0
030180
03ff00
0301c0
030060
030030
030018
030018
030018
030018
030030
0300e0
0fff80
000000
000000
ENDCHAR
STARTCHAR a346
ENCODING 41798
SWIDTH 301 0
DWIDTH 24 0
BBX 24 24 0 -2
BITMAP
000000
000000
0ffff0
030070
030030
030010
030010
030000
030000
030000
030000
030000
030000
030000
030000
030000
030000
030000
030000
030000
030000
0fc000
000000
000000
ENDCHAR
STARTCHAR a347
ENCODING 41799
SWIDTH 301 0
DWIDTH 24 0
BBX 24 24 0 -2
BITMAP
000000
000000
001800
003c00
002c00
006e00
004600
00c700
008300
018380
010180
0301c0
0200c0
0600e0
040060
0c0070
080030
180038
100018
30001c
3ffffc
3ffffc
000000
000000
ENDCHAR
STARTCHAR a348
ENCODING 41800
SWIDTH 301 0
DWIDTH 24 0
BBX 24 24 0 -2
BITMAP
000000
000000
0fffe0
0300e0
030060
030020
030020
030000
030200
030200
030600
03fe00
030600
030200
030200
030000
030000
030020
030020
030060
0300e0
0fffe0
000000
000000
ENDCHAR
STARTCHAR a349
ENCODING 41801
SWIDTH 301 0
DWIDTH 24 0
BBX 24 24 0 -2
BITMAP
000000
000000
0ffff0
0e0070
0c00e0
0800c0
0801c0
000380
000700
000600
000e00
001c00
003800
007000
00e000
01c000
018000
030008
070008
0e0018
1c0038
1ffff8
000000
000000
ENDCHAR
STARTCHAR a34a
ENCODING 41802
SWIDTH 301 0
DWIDTH 24 0
BBX 24 24 0 -2
BITMAP
000000
000000
1f81f8
060060
060060
060060
060060
060060
060060
060060
060060
07ffe0
060060
060060
060060
060060
060060
060060
060060
060060
060060
1f81f8
000000
000000
ENDCHAR
STARTCHAR a34b
ENCODING 41803
SWIDTH 301 0
DWIDTH 24 0
BBX 24 24 0 -2
BITMAP
000000
000000
00fe00
038380
0600c0
0c0060
0c0060
0c0060
1c0070
180030
188230
18fe30
18fe30
188230
180030
1c0070
0c0060
0c0060
0c0060
0600c0
038380
00fe00
000000
000000
ENDCHAR
STARTCHAR a34c
ENCODING 41804
SWIDTH 301 0
DWIDTH 24 0
BBX 24 24 0 -2
BITMAP
000000
000000
00ff00
001800
001800
001800
001800
001800
001800
001800
001800
001800
001800
001800
001800
001800
001800
001800
001800
001800
001800
00ff00
000000
000000
ENDCHAR
STARTCHAR a34d
ENCODING 41805
SWIDTH 301 0
DWIDTH 24 0
BBX 24 24 0 -2
BITMAP
000000
000000
1f83f0
0600c0
060180
060300
060600
060c00
061800
063000
067000
06f800
079800
070c00
060600
060600
060300
060180
060180
0600c0
0600e0
1f83f8
000000
000000
ENDCHAR
STARTCHAR a34e
ENCODING 41806
SWIDTH 301 0
DWIDTH 24 0
BBX 24 24 0 -2
BITMAP
000000
000000
001800
003c00
003c00
006600
004600
004600
00c300
008300
018180
010180
010180
0300c0
0200c0
060060
040060
040060
0c0030
080030
080030
3e00fc
000000
000000
ENDCHAR
STARTCHAR a34f
ENCODING 41807
SWIDTH 301 0
DWIDTH 24 0
BBX 24 24 0 -2
BITMAP
000000
000000
7c003e
1e0038
160058
130058
1300d8
118098
118098
118198
10c118
10c118
10c318
106218
106218
106618
103418
103c18
101818
101818
100018
7c007e
000000
000000
ENDCHAR
STARTCHAR a350
ENCODING 41808
SWIDTH 301 0
DWIDTH 24 0
BBX 24 24 0 -2
BITMAP
000000
000000
1f00f8
078020
058020
05c020
04e020
046020
047020
043020
041820
041c20
040e20
040620
040720
040320
0401a0
0401e0
0400e0
040060
040060
1f0020
000000
000000
ENDCHAR
STARTCHAR a351
ENCODING 41809
SWIDTH 301 0
DWIDTH 24 0
BBX 24 24 0 -2
BITMAP
000000
000000
03fff8
07fff0
040010
080020
000000
000000
000000
010020
01ffe0
03ffc0
020040
000000
000000
000000
000000
000000
040008
080010
0ffff0
1fffe0
000000
000000
ENDCHAR
STARTCHAR a352
ENCODING 41810
SWIDTH 301 0
DWIDTH 24 0
BBX 24 24 0 -2
BITMAP
000000
000000
00ff00
0381c0
060060
0c0030
0c0030
0c0030
1c0038
180018
180018
180018
180018
180018
180018
1c0038
0c0030
0c0030
0c0030
060060
0381c0
00ff00
000000
000000
ENDCHAR
STARTCHAR a353
ENCODING 41811
SWIDTH 301 0
DWIDTH 24 0
BBX 24 24 0 -2
BITMAP
000000
000000
1ffff8
060060
060060
060060
060060
060060
060060
060060
060060
060060
060060
060060
060060
060060
060060
060060
060060
060060
060060
1f81f8
000000
000000
ENDCHAR
STARTCHAR a354
ENCODING 41812
SWIDTH 301 0
DWIDTH 24 0
BBX 24 24 0 -2
BITMAP
000000
000000
0fff00
0301c0
030060
030030
030030
030030
030030
030030
030060
0301c0
03ff00
030000
030000
030000
030000
030000
030000
030000
030000
0fc000
000000
000000
ENDCHAR
STARTCHAR a355
ENCODING 41813
SWIDTH 301 0
DWIDTH 24 0
BBX 24 24 0 -2
BITMAP
000000
000000
07fff0
070030
038018
018008
01c000
00e000
007000
003800
001c00
000e00
000c00
001800
003000
006000
00c000
018008
018008
030018
07fff0
0ffff0
000000
000000
ENDCHAR
STARTCHAR a356
ENCODING 41814
SWIDTH 301 0
DWIDTH 24 0
BBX 24 24 0 -2
BITMAP
000000
000000
0ffff0
0e1870
0c1830
081810
081810
001800
001800
001800
001800
001800
001800
001800
001800
001800
001800
001800
001800
001800
001800
007e00
000000
000000
ENDCHAR
STARTCHAR a357
ENCODING 41815
SWIDTH 301 0
DWIDTH 24 0
BBX 24 24 0 -2
BITMAP
000000
000000
03c3c0
07e7e0
0c3c30
181818
101808
101808
001800
001800
001800
001800
001800
001800
001800
001800
001800
001800
001800
001800
001800
007e00
000000
000000
ENDCHAR
STARTCHAR a358
ENCODING 41816
SWIDTH 301 0
DWIDTH 24 0
BBX 24 24 0 -2
BITMAP
000000
000000
007e00
001800
001800
00ff00
0799e0
0c1830
181818
181818
30180c
30180c
30180c
30180c
181818
181818
0c1830
0799e0
00ff00
001800
001800
007e00
000000
000000
ENDCHAR
STARTCHAR a359
ENCODING 41817
SWIDTH 301 0
DWIDTH 24 0
BBX 24 24 0 -2
BITMAP
000000
000000
1f80fc
070030
030020
038060
01c0c0
00c180
00e100
007300
003600
003c00
001800
003c00
006e00
00c700
018380
030180
0601c0
0c00e0
0c0070
3f01fc
000000
000000
ENDCHAR
STARTCHAR a35a
ENCODING 41818
SWIDTH 301 0
DWIDTH 24 0
BBX 24 24 0 -2
BITMAP
000000
000000
387e1c
7c183e
c61863
061860
061860
061860
061860
0318c0
0318c0
0318c0
0318c0
019980
019980
019980
00db00
003c00
001800
001800
001800
007e00
000000
000000
ENDCHAR
STARTCHAR a35b
ENCODING 41819
SWIDTH 301 0
DWIDTH 24 0
BBX 24 24 0 -2
BITMAP
000000
000000
007e00
01c380
0300c0
0300c0
0700e0
060060
0e0070
0e0070
0e0070
060060
0700e0
0300c0
0300c0
018180
00c300
002400
082410
082410
0fe7f0
0fe7f0
000000
000000
ENDCHAR
STARTCHAR a35c
ENCODING 41820
SWIDTH 301 0
DWIDTH 24 0
BBX 24 24 0 -2
BITMAP
000000
000000
000000
000000
000000
000000
000000
000000
000000
003c30
00e660
018360
030140
0301c0
060180
060180
060180
060380
060280
0306c0
030cc0
01f870
000000
000000
ENDCHAR
STARTCHAR a35d
ENCODING 41821
SWIDTH 301 0
DWIDTH 24 0
BBX 24 24 0 -2
BITMAP
000000
000000
000f80
0018c0
003060
006060
006030
00c060
00c060
018ec0
018f80
018180
0300c0
0300c0
030060
060060
0600c0
0700c0
0fc180
0c7f00
0c0000
180000
180000
180000
ENDCHAR
STARTCHAR a35e
ENCODING 41822
SWIDTH 301 0
DWIDTH 24 0
BBX 24 24 0 -2
BITMAP
000000
000000
000000
000000
000000
000000
000000
000000
000000
01e180
03f180
061300
041b00
040e00
000e00
000c00
000c00
001800
001800
003000
003000
006000
000000
000000
ENDCHAR
STARTCHAR a35f
ENCODING 41823
SWIDTH 301 0
DWIDTH 24 0
BBX 24 24 0 -2
BITMAP
000000
000000
003e00
006180
0060c0
003060
001860
000e00
000300
003f00
006180
00c180
0180c0
0180c0
0300c0
0300c0
0300c0
030180
030180
018300
018600
00fc00
000000
000000
ENDCHAR
STARTCHAR a360
ENCODING 41824
SWIDTH 301 0
DWIDTH 24 0
BBX 24 24 0 -2
BITMAP
000000
000000
000000
000000
000000
000000
000000
000000
000000
007f00
00c1c0
018040
018000
018000
00fe00
019c00
030000
030000
030040
01c0c0
00ff80
003e00
000000
000000
ENDCHAR
STARTCHAR a361
ENCODING 41825
SWIDTH 301 0
DWIDTH 24 0
BBX 24 24 0 -2
BITMAP
000000
000000
003000
00c000
018300
018700
00ee00
003800
002000
004000
00c000
008000
018000
018000
030000
030000
030000
01f000
00fc00
000e00
000300
018300
00fe00
000000
ENDCHAR
STARTCHAR a362
ENCODING 41826
SWIDTH 301 0
DWIDTH 24 0
BBX 24 24 0 -2
BITMAP
000000
000000
000000
000000
000000
000000
000000
000000
000000
038f00
04b980
00e0c0
00c0c0
00c0c0
0180c0
018180
018180
018180
030180
030180
030300
030300
000300
000300
ENDCHAR
STARTCHAR a363
ENCODING 41827
SWIDTH 301 0
DWIDTH 24 0
BBX 24 24 0 -2
BITMAP
000000
000000
001e00
007380
00c180
0181c0
0180c0
0300c0
0300c0
0300c0
0300c0
07ffc0
0601c0
060180
060180
060180
060180
060300
070300
030600
039c00
00f000
000000
000000
ENDCHAR
STARTCHAR a364
ENCODING 41828
SWIDTH 301 0
DWIDTH 24 0
BBX 24 24 0 -2
BITMAP
000000
000000
000000
000000
000000
000000
000000
000000
000000
001800
003800
003000
006000
006000
00c000
00c000
00c000
018000
018200
018200
01fc00
00f000
000000
000000
ENDCHAR
STARTCHAR a365
ENCODING 41829
SWIDTH 301 0
DWIDTH 24 0
BBX 24 24 0 -2
BITMAP
000000
000000
000000
000000
000000
000000
000000
000000
000000
03c180
04c380
00c600
018c00
019800
01b800
036800
034c00
03cc00
038c20
070c20
0607c0
060380
000000
000000
ENDCHAR
STARTCHAR a366
ENCODING 41830
SWIDTH 301 0
DWIDTH 24 0
BBX 24 24 0 -2
BITMAP
000000
000000
006000
007000
001800
001800
000800
000c00
000400
000400
000c00
001400
003400
002600
006600
004200
00c300
00c300
018180
018180
0380f0
030070
000000
000000
ENDCHAR
STARTCHAR a367
ENCODING 41831
SWIDTH 301 0
DWIDTH 24 0
BBX 24 24 0 -2
BITMAP
000000
000000
000000
000000
000000
000000
000000
000000
000000
004040
00c0c0
00c0c0
00c0c0
01c1c0
018180
018180
018300
030300
030300
038320
02cfa0
0678c0
060000
060000
ENDCHAR
STARTCHAR a368
ENCODING 41832
SWIDTH 301 0
DWIDTH 24 0
BBX 24 24 0 -2
BITMAP
000000
000000
000000
000000
000000
000000
000000
000000
000000
018040
01c040
00c040
00e0c0
006080
006080
006180
004100
004300
00c600
009c00
00f800
01e000
000000
000000
ENDCHAR
STARTCHAR a369
ENCODING 41833
SWIDTH 301 0
DWIDTH 24 0
BBX 24 24 0 -2
BITMAP
000000
000e00
001000
003000
003fc0
006380
00c000
00c000
00c000
007000
003fc0
004380
00c000
018000
018000
030000
038000
01f000
007e00
000f00
000180
006180
007f00
000000
ENDCHAR
STARTCHAR a36a
ENCODING 41834
SWIDTH 301 0
DWIDTH 24 0
BBX 24 24 0 -2
BITMAP
000000
000000
000000
000000
000000
000000
000000
000000
000000
003f00
006180
00c180
0180c0
0180c0
0300c0
0300c0
0300c0
030180
030180
018300
018600
00fc00
000000
000000
ENDCHAR
STARTCHAR a36b
ENCODING 41835
SWIDTH 301 0
DWIDTH 24 0
BBX 24 24 0 -2
BITMAP
000000
000000
000000
000000
000000
000000
000000
000000
000020
01ffc0
03ff80
044300
004300
00c300
008600
008600
018600
018c00
038c00
030c40
070f80
060700
000000
000000
ENDCHAR
STARTCHAR a36c
ENCODING 41836
SWIDTH 301 0
DWIDTH 24 0
BBX 24 24 0 -2
BITMAP
000000
000000
000000
000000
000000
000000
000000
000000
000000
003f00
006180
00c1c0
00c0c0
0180c0
0180c0
0180c0
0380c0
038180
03c180
034300
067e00
060000
060000
060000
ENDCHAR
STARTCHAR a36d
ENCODING 41837
SWIDTH 301 0
DWIDTH 24 0
BBX 24 24 0 -2
BITMAP
000000
000000
000000
000000
000000
000000
000000
000000
000008
007ef8
00c370
018100
030180
030180
060180
060180
060180
060300
060300
030600
030c00
01f800
000000
000000
ENDCHAR
STARTCHAR a36e
ENCODING 41838
SWIDTH 301 0
DWIDTH 24 0
BBX 24 24 0 -2
BITMAP
000000
000000
000000
000000
000000
000000
000000
000000
000080
01ff00
03fe00
043000
007000
006000
00e000
00c000
00c000
018000
018200
018200
01fc00
00f000
000000
000000
ENDCHAR
STARTCHAR a36f
ENCODING 41839
SWIDTH 301 0
DWIDTH 24 0
BBX 24 24 0 -2
BITMAP
000000
000000
000000
000000
000000
000000
000000
000000
000000
018180
01c080
00c0c0
00c0c0
00c0c0
0080c0
0181c0
010180
010180
010100
018300
00c600
007c00
000000
000000
ENDCHAR
STARTCHAR a370
ENCODING 41840
SWIDTH 301 0
DWIDTH 24 0
BBX 24 24 0 -2
BITMAP
000000
000000
000300
000300
000600
000600
000600
000c00
003f00
00ed80
018cc0
030cc0
030860
061860
061860
0618c0
0310c0
033180
01b700
00fc00
006000
006000
00c000
00c000
ENDCHAR
STARTCHAR a371
ENCODING 41841
SWIDTH 301 0
DWIDTH 24 0
BBX 24 24 0 -2
BITMAP
000000
000000
000000
000000
000000
000000
000000
000000
000000
00c060
01e0e0
0220c0
003180
001100
001900
000a00
000c00
001400
006400
00c400
018600
030610
0703e0
0601c0
ENDCHAR
STARTCHAR a372
ENCODING 41842
SWIDTH 301 0
DWIDTH 24 0
BBX 24 24 0 -2
BITMAP
000000
000000
000300
000300
000700
000600
000600
000600
000400
00cc40
018ce0
030c60
030860
061860
061860
0618c0
0610c0
033180
033180
01b300
00fe00
006000
00e000
00c000
ENDCHAR
STARTCHAR a373
ENCODING 41843
SWIDTH 301 0
DWIDTH 24 0
BBX 24 24 0 -2
BITMAP
000000
000000
000000
000000
000000
000000
000000
000000
000000
00e020
018010
030010
060418
060c18
0c0c18
0c1c18
0c1818
0c1830
060830
061860
0334c0
01e700
000000
000000
ENDCHAR
STARTCHAR a374
ENCODING 41844
SWIDTH 301 0
DWIDTH 24 0
BBX 24 24 0 -2
BITMAP
000000
000000
01c000
00c000
018000
030000
060000
0c07e0
1ffff0
0ff830
000030
000030
000060
000060
000060
0000c0
0000c0
000180
00c300
007600
003c00
001800
000000
000000
ENDCHAR
STARTCHAR a375
ENCODING 41845
SWIDTH 301 0
DWIDTH 24 0
BBX 24 24 0 -2
BITMAP
000000
000000
007000
003000
006000
00c000
0187e0
03fff0
07f830
000060
0600c0
030180
018300
00c600
006c00
003800
003c00
006600
00c300
0381e0
0700fc
1e0070
000000
000000
ENDCHAR
STARTCHAR a376
ENCODING 41846
SWIDTH 301 0
DWIDTH 24 0
BBX 24 24 0 -2
BITMAP
000000
000000
000000
000000
000000
0c1ff0
0ffff8
0fe030
0c0030
0c0030
0c0030
0c0030
0c0030
0c0030
0c0030
0c0030
0c0030
0c0030
0c0030
0c0030
0c0030
000000
000000
000000
ENDCHAR
STARTCHAR a377
ENCODING 41847
SWIDTH 301 0
DWIDTH 24 0
BBX 24 24 0 -2
BITMAP
000000
000000
000000
000000
000000
0007f0
1ffff8
0ff800
0c0000
0c0000
0c0000
0c0000
0c0000
0c0000
0c0000
0c0000
0c0000
0c0000
0c0ff8
0ffff0
07f000
000000
000000
000000
ENDCHAR
STARTCHAR a378
ENCODING 41848
SWIDTH 301 0
DWIDTH 24 0
BBX 24 24 0 -2
BITMAP
000000
000000
038000
01c000
030000
060030
0c0ff0
0ffff8
07f018
003018
006018
00c018
00c030
018030
018030
030060
030060
060060
0c08c0
000dc0
000780
000300
000000
000000
ENDCHAR
STARTCHAR a379
ENCODING 41849
SWIDTH 301 0
DWIDTH 24 0
BBX 24 24 0 -2
BITMAP
000000
000000
003800
001c00
001800
003800
003000
003ff0
1ffff8
1ff000
003000
006000
006000
00c000
00c000
018180
0181c0
0300c0
070fe0
0ffff0
0ff030
000030
000000
000000
ENDCHAR
STARTCHAR a37a
ENCODING 41850
SWIDTH 301 0
DWIDTH 24 0
BBX 24 24 0 -2
BITMAP
000000
000000
003f80
0fffc0
07c180
000300
000600
000c20
001ff0
000e38
000030
000030
000060
000060
000060
0000c0
0000c0
0000c0
006180
003b80
001f00
000e00
000000
000000
ENDCHAR
STARTCHAR a37b
ENCODING 41851
SWIDTH 301 0
DWIDTH 24 0
BBX 24 24 0 -2
BITMAP
000000
000000
038600
01c600
030c00
060c00
0c1800
0c1fe0
1ffff0
0ff030
003060
006060
00c060
00c0c0
0180c0
0180c0
030180
030180
060180
063b00
0c1e00
180c00
000000
000000
ENDCHAR
STARTCHAR a37c
ENCODING 41852
SWIDTH 301 0
DWIDTH 24 0
BBX 24 24 0 -2
BITMAP
000000
000000
000000
006060
006060
00c0c0
00c0c0
018180
030300
060600
0c0c00
181800
181800
0c0c00
060600
030300
018180
00c0c0
00c0c0
006060
006060
000000
000000
000000
ENDCHAR
STARTCHAR a37d
ENCODING 41853
SWIDTH 301 0
DWIDTH 24 0
BBX 24 24 0 -2
BITMAP
000000
000000
0007f0
1ffff8
0ff800
001800
003000
003000
006000
0063e0
00fff8
000018
000030
000030
000060
000060
0000c0
0000c0
00c180
007300
001e00
000c00
000000
000000
ENDCHAR
STARTCHAR a37e
ENCODING 41854
SWIDTH 301 0
DWIDTH 24 0
BBX 24 24 0 -2
BITMAP
000000
000000
03fff8
01fff0
018000
018000
018000
018000
018000
018000
018000
018000
018000
018000
018000
030000
030000
030000
060000
060000
0c0000
180000
000000
000000
ENDCHAR
STARTCHAR a3a1
ENCODING 41889
SWIDTH 301 0
DWIDTH 24 0
BBX 24 24 0 -2
BITMAP
000000
000100
000180
000180
000180
080180
0c0180
0c0180
0c0180
0c0180
0c0180
0c0780
0c1f80
0cf980
0fe180
0f0180
080180
000180
000180
000180
000180
000180
000100
000000
ENDCHAR
STARTCHAR a3a2
ENCODING 41890
SWIDTH 301 0
DWIDTH 24 0
BBX 24 24 0 -2
BITMAP
000000
000000
000380
000380
000700
000e00
001c00
003800
007000
00e000
01c000
038000
070000
038000
01c000
00e000
007000
003800
001c00
000e00
000700
000380
000000
000000
ENDCHAR
STARTCHAR a3a3
ENCODING 41891
SWIDTH 301 0
DWIDTH 24 0
BBX 24 24 0 -2
BITMAP
000000
000000
000000
001ff8
0fffe0
07f800
001800
001800
001800
001800
001800
001800
001800
001800
001800
001800
001800
001800
001800
001800
001800
000000
000000
000000
ENDCHAR
STARTCHAR a3a4
ENCODING 41892
SWIDTH 301 0
DWIDTH 24 0
BBX 24 24 0 -2
BITMAP
000000
000000
000000
000c00
000c10
020c30
060c30
060c30
060c30
060c30
060ff0
07fff0
03fc00
000c00
000c00
000c00
000c00
000c00
000ff8
0ffff8
0ffc00
000000
000000
000000
ENDCHAR
STARTCHAR a3a5
ENCODING 41893
SWIDTH 301 0
DWIDTH 24 0
BBX 24 24 0 -2
BITMAP
000000
000000
000600
000700
000c00
001860
003070
0060c0
00c180
038300
0f0e00
001e00
007600
01c600
070600
000600
000600
000600
000600
000600
000600
000600
000600
000000
ENDCHAR
STARTCHAR a3a6
ENCODING 41894
SWIDTH 301 0
DWIDTH 24 0
BBX 24 24 0 -2
BITMAP
000000
000000
000010
01fff8
03fff8
000030
000030
000030
000030
00fff0
01fff0
018000
018000
018000
018000
018000
038000
030000
030000
030000
060000
060000
060000
0c0000
ENDCHAR
STARTCHAR a3a7
ENCODING 41895
SWIDTH 301 0
DWIDTH 24 0
BBX 24 24 0 -2
BITMAP
000000
000000
000020
0607f0
07fff0
07f860
060060
060060
060060
063060
063860
061c60
060e60
060e60
060060
060060
060060
060060
0607e0
07ffe0
07f860
060000
000000
000000
ENDCHAR
STARTCHAR a3a8
ENCODING 41896
SWIDTH 301 0
DWIDTH 24 0
BBX 24 24 0 -2
BITMAP
000000
000000
000000
0007c0
0fffe0
1ff860
030060
0300c0
0300c0
0300c0
0300c0
033180
031980
030d80
030780
030300
030000
030000
030000
030000
030000
030000
000000
000000
ENDCHAR
STARTCHAR a3a9
ENCODING 41897
SWIDTH 301 0
DWIDTH 24 0
BBX 24 24 0 -2
BITMAP
000000
000000
003000
003000
003000
003ff0
0ffff8
1ff000
006000
006000
00c000
00cfc0
01ffe0
01f060
0000c0
0000c0
000180
000300
000600
000c00
001800
003000
000000
000000
ENDCHAR
STARTCHAR a3aa
ENCODING 41898
SWIDTH 301 0
DWIDTH 24 0
BBX 24 24 0 -2
BITMAP
000000
000000
000000
000000
006000
003000
003800
007000
006000
006000
00c000
00c000
00c000
018180
0180c0
038060
030060
0300f0
061ff0
07ff98
0ff018
000010
000000
000000
ENDCHAR
STARTCHAR a3ab
ENCODING 41899
SWIDTH 301 0
DWIDTH 24 0
BBX 24 24 0 -2
BITMAP
000000
000000
000000
0e0070
0700e0
0300c0
018180
00c300
006600
003c00
001800
001800
001800
001800
001800
001800
001800
001800
001800
001800
001800
001800
000000
000000
ENDCHAR
STARTCHAR a3ac
ENCODING 41900
SWIDTH 301 0
DWIDTH 24 0
BBX 24 24 0 -2
BITMAP
000000
000000
000000
001ff0
1ffff8
0ff800
001800
001800
001800
001800
001800
01f800
07f800
0e1800
180000
180000
180000
180000
1800e0
0c0380
07ff00
03fc00
000000
000000
ENDCHAR
STARTCHAR a3ad
ENCODING 41901
SWIDTH 301 0
DWIDTH 24 0
BBX 24 24 0 -2
BITMAP
000000
000000
000000
000c00
000c00
000c00
000ff0
0ffff8
1ffc00
000c00
000c00
000c00
03ec00
07fc00
0c1c00
180000
180000
180000
180000
0c00f0
07ffc0
03ff00
000000
000000
ENDCHAR
STARTCHAR a3ae
ENCODING 41902
SWIDTH 301 0
DWIDTH 24 0
BBX 24 24 0 -2
BITMAP
000000
000000
000000
030000
030300
030300
030300
030300
030300
031ff0
3ffff8
1fe300
030300
030300
030300
030300
030300
030000
030000
030000
03ffe0
01ffc0
000000
000000
ENDCHAR
STARTCHAR a3af
ENCODING 41903
SWIDTH 301 0
DWIDTH 24 0
BBX 24 24 0 -2
BITMAP
000000
000000
000000
000fe0
1ffff0
0ff800
060c00
060c00
061800
0c3000
0c3000
0fffe0
0fffe0
0c6070
006060
0060c0
00c0c0
00c0c0
00c180
018180
018300
030600
000000
000000
ENDCHAR
STARTCHAR a3b0
ENCODING 41904
SWIDTH 301 0
DWIDTH 24 0
BBX 24 24 0 -2
BITMAP
000000
000000
000000
00c000
01e000
03e000
033000
073000
0e1800
3c1800
000c00
000c00
000e00
000600
000600
000300
000300
000180
0001c0
0000e0
0000f8
000060
000000
000000
ENDCHAR
STARTCHAR a3b1
ENCODING 41905
SWIDTH 301 0
DWIDTH 24 0
BBX 24 24 0 -2
BITMAP
000000
000000
000000
007000
003060
006060
00c0c0
0180c0
1b0180
0f0300
070600
038c00
01d800
00f000
006000
006180
00c0c0
0180c0
030fe0
0fffb0
07f030
000020
000000
000000
ENDCHAR
STARTCHAR a3b2
ENCODING 41906
SWIDTH 301 0
DWIDTH 24 0
BBX 24 24 0 -2
BITMAP
000000
000000
000000
000fe0
1ffff0
0ff830
000060
0600c0
030180
018300
00c600
006c00
003c00
003c00
006600
00c300
018180
0300c0
060060
0c0030
180018
000000
000000
000000
ENDCHAR
STARTCHAR a3b3
ENCODING 41907
SWIDTH 301 0
DWIDTH 24 0
BBX 24 24 0 -2
BITMAP
000000
000000
000000
000080
1fffc0
0fffc0
030180
030180
030180
030180
060300
060300
07fff0
07fff8
060030
000030
000030
000030
000060
000060
0000c0
000180
000300
000600
ENDCHAR
STARTCHAR a3b4
ENCODING 41908
SWIDTH 301 0
DWIDTH 24 0
BBX 24 24 0 -2
BITMAP
000000
000000
000000
018000
030000
030000
060000
060000
0c0000
0c3fe0
1ffff0
1fc070
000060
000060
0000c0
0000c0
000180
000180
000300
000300
000600
000000
000000
000000
ENDCHAR
STARTCHAR a3b5
ENCODING 41909
SWIDTH 301 0
DWIDTH 24 0
BBX 24 24 0 -2
BITMAP
000000
000000
000000
001c00
000c00
000c00
000c00
000ff0
07fff8
0ff800
001800
001800
001c00
003600
003600
003600
006600
00c600
018600
030600
0603fc
0c01f0
000000
000000
ENDCHAR
STARTCHAR a3b6
ENCODING 41910
SWIDTH 301 0
DWIDTH 24 0
BBX 24 24 0 -2
BITMAP
000000
000000
000000
000000
000000
000000
001800
000c00
001c00
003800
007000
006000
00c000
018000
030000
060000
0c0000
1803f8
1ffffc
1ffc00
000000
000000
000000
000000
ENDCHAR
STARTCHAR a3b7
ENCODING 41911
SWIDTH 301 0
DWIDTH 24 0
BBX 24 24 0 -2
BITMAP
000000
000000
000000
001c00
038c00
018c00
018c00
018c00
018c00
018c00
018c00
018c00
030c00
030c00
030c00
030c00
060c00
060c00
060c00
0c0ff8
1c07f0
000000
000000
000000
ENDCHAR
STARTCHAR a3b8
ENCODING 41912
SWIDTH 301 0
DWIDTH 24 0
BBX 24 24 0 -2
BITMAP
000000
000000
000000
000000
000000
000000
000000
000000
000000
000000
000000
1ffff8
1ffff8
000000
000000
000000
000000
000000
000000
000000
000000
000000
000000
000000
ENDCHAR
STARTCHAR a3b9
ENCODING 41913
SWIDTH 301 0
DWIDTH 24 0
BBX 24 24 0 -2
BITMAP
000000
000000
000000
0c0060
0c0060
0600c0
0600c0
030180
018300
00c600
006c00
003800
003800
006c00
00c600
018300
030180
0600c0
0600c0
0c0060
0c0060
000000
000000
000000
ENDCHAR
STARTCHAR a3ba
ENCODING 41914
SWIDTH 301 0
DWIDTH 24 0
BBX 24 24 0 -2
BITMAP
000000
000000
000000
000000
040020
0c0030
0c0030
0c0030
0c0030
0c0030
0c0030
0c0030
0c0030
0c0030
0c0030
0c0030
0c0030
0c0ff0
0ffff0
0ff030
0c0030
000000
000000
000000
ENDCHAR
STARTCHAR a3bb
ENCODING 41915
SWIDTH 301 0
DWIDTH 24 0
BBX 24 24 0 -2
BITMAP
000000
000000
000000
000000
000000
000000
000000
000000
000000
001800
003c00
003c00
001800
000000
000000
000000
000000
000000
000000
000000
000000
000000
000000
000000
ENDCHAR
STARTCHAR a3bc
ENCODING 41916
SWIDTH 301 0
DWIDTH 24 0
BBX 24 24 0 -2
BITMAP
000000
000000
000000
000000
000000
000000
000000
000000
000000
000000
000000
000000
000000
000000
000000
000000
000000
000000
000000
000000
000000
000000
000000
000000
ENDCHAR
STARTCHAR a3bd
ENCODING 41917
SWIDTH 301 0
DWIDTH 24 0
BBX 24 24 0 -2
BITMAP
000000
000000
000000
000000
000000
000000
000000
000080
000180
000300
000600
000c00
001800
017000
01e000
01c000
018000
010000
000000
000000
000000
000000
000000
000000
ENDCHAR
STARTCHAR a3be
ENCODING 41918
SWIDTH 301 0
DWIDTH 24 0
BBX 24 24 0 -2
BITMAP
000000
000000
000000
000000
000000
000000
000030
000060
0000c0
010180
018300
018e00
01dc00
01f800
00f000
00e000
00c000
008000
000000
000000
000000
000000
000000
000000
ENDCHAR
STARTCHAR a3bf
ENCODING 41919
SWIDTH 301 0
DWIDTH 24 0
BBX 24 24 0 -2
BITMAP
000000
000000
000000
000000
000000
000000
000000
00c000
00e000
00f000
00f800
003c00
000e00
000700
000300
000180
000080
000000
000000
000000
000000
000000
000000
000000
ENDCHAR
STARTCHAR a440
ENCODING 42048
SWIDTH 301 0
DWIDTH 24 0
BBX 24 24 0 -2
BITMAP
000000
000000
000000
000000
000000
000000
000000
000000
000000
000004
00000e
ffffff
000000
000000
000000
000000
000000
000000
000000
000000
000000
000000
000000
000000
ENDCHAR
STARTCHAR a441
ENCODING 42049
SWIDTH 301 0
DWIDTH 24 0
BBX 24 24 0 -2
BITMAP
000000
000060
7ffff0
0000e0
0001c0
000300
000600
000c00
001800
003000
006000
00c000
018000
030000
060000
0c0004
180004
300004
600004
600004
70000e
3ffffe
0ffffc
000000
ENDCHAR
STARTCHAR a442
ENCODING 42050
SWIDTH 301 0
DWIDTH 24 0
BBX 24 24 0 -2
BITMAP
000004
00000e
ffffff
001800
001800
001800
001800
001800
001800
001800
001800
001800
001800
001800
001800
001800
001800
001800
001800
001800
001800
001800
03f800
007000
ENDCHAR
STARTCHAR a443
ENCODING 42051
SWIDTH 301 0
DWIDTH 24 0
BBX 24 24 0 -2
BITMAP
008000
00e000
00c000
00c000
00c000
00c000
00c004
00c00e
ffffff
00c000
00c000
00c000
00c000
00c000
00c000
00c000
00c000
00c000
00c000
00c000
00c000
00fffc
007ffe
000000
ENDCHAR
STARTCHAR a444
ENCODING 42052
SWIDTH 301 0
DWIDTH 24 0
BBX 24 24 0 -2
BITMAP
000000
0000c0
7fffe0
0180c0
0180c0
0180c0
018180
018180
018186
0183ff
018106
018006
030006
030006
030006
060006
060006
0c0006
0c000c
18000c
180018
300038
600ff0
8000e0
ENDCHAR
STARTCHAR a445
ENCODING 42053
SWIDTH 301 0
DWIDTH 24 0
BBX 24 24 0 -2
BITMAP
004000
007000
006000
006000
006000
006000
0060c0
7fffe0
0060c0
0060c0
0060c0
0060c0
00c0c0
00c0c0
00c0c0
0180c2
0180c2
0300c2
0300c2
0600c2
0c00c3
1800ff
30007e
c00000
ENDCHAR
STARTCHAR a446
ENCODING 42054
SWIDTH 301 0
DWIDTH 24 0
BBX 24 24 0 -2
BITMAP
000000
000018
3ffffc
000018
000030
000060
0000c0
000300
000c00
000c00
000c00
000c00
000c00
000c00
000c00
000c00
000c00
000c00
000c00
000c00
000c00
000c00
03fc00
003800
ENDCHAR
STARTCHAR a447
ENCODING 42055
SWIDTH 301 0
DWIDTH 24 0
BBX 24 24 0 -2
BITMAP
000000
000000
000000
000000
000030
1ffff8
000000
000000
000000
000000
000000
000000
000000
000000
000000
000000
000004
00000e
ffffff
000000
000000
000000
000000
000000
ENDCHAR
STARTCHAR a448
ENCODING 42056
SWIDTH 301 0
DWIDTH 24 0
BBX 24 24 0 -2
BITMAP
002000
003800
003000
003000
003000
003000
003000
003000
003000
006800
006800
006c00
00e400
00c600
00c200
018300
018180
0301c0
0300e0
060070
0c003c
18001f
30000c
c00004
ENDCHAR
STARTCHAR a449
ENCODING 42057
SWIDTH 301 0
DWIDTH 24 0
BBX 24 24 0 -2
BITMAP
010200
01c380
018300
018300
018300
018300
018300
018300
018300
018300
018300
018300
018300
018300
018302
030302
030302
060302
060302
0c0302
180303
3003ff
4001fe
800000
ENDCHAR
STARTCHAR a44a
ENCODING 42058
SWIDTH 301 0
DWIDTH 24 0
BBX 24 24 0 -2
BITMAP
00e000
003000
001000
001000
001000
001800
001800
001800
003800
003c00
002c00
002400
006600
006600
00c300
00c300
018180
018180
0300c0
0600e0
0c0070
18003c
30001f
c0000c
ENDCHAR
STARTCHAR a44b
ENCODING 42059
SWIDTH 301 0
DWIDTH 24 0
BBX 24 24 0 -2
BITMAP
001800
000c00
000400
000400
000400
010600
01c200
018200
018200
018300
038100
030180
030180
030180
0600c0
0600c0
0c00e0
0c0060
180070
180038
30001c
60001f
40000c
800004
ENDCHAR
STARTCHAR a44c
ENCODING 42060
SWIDTH 301 0
DWIDTH 24 0
BBX 24 24 0 -2
BITMAP
000000
020180
03ffc0
030180
030180
030180
030180
030180
030180
030180
030180
030180
030180
030180
030182
030182
060182
060182
0c0182
0c0183
180183
3001ff
6000fe
800000
ENDCHAR
STARTCHAR a44d
ENCODING 42061
SWIDTH 301 0
DWIDTH 24 0
BBX 24 24 0 -2
BITMAP
000000
00000c
7ffffe
00600c
00600c
00600c
00600c
00600c
00600c
00600c
00600c
00c00c
00c00c
00c00c
01800c
01800c
01800c
03000c
03000c
06001c
0c0018
180038
300ff0
c000e0
ENDCHAR
STARTCHAR a44e
ENCODING 42062
SWIDTH 301 0
DWIDTH 24 0
BBX 24 24 0 -2
BITMAP
000000
00000c
7ffffe
00000c
00000c
00000c
00020c
00040c
00080c
00180c
00300c
00600c
00c00c
01800c
03000c
0e000c
3c000c
18000c
08000c
00001c
000018
000038
001ff0
0000e0
ENDCHAR
STARTCHAR a44f
ENCODING 42063
SWIDTH 301 0
DWIDTH 24 0
BBX 24 24 0 -2
BITMAP
002000
003800
003000
003000
003000
00300c
3ffffe
00300c
00300c
00300c
00600c
00600c
00600c
00c00c
00c00c
01800c
01800c
03000c
03000c
06001c
0c0018
180038
300ff0
c000e0
ENDCHAR
STARTCHAR a450
ENCODING 42064
SWIDTH 301 0
DWIDTH 24 0
BBX 24 24 0 -2
BITMAP
100000
1c0000
180000
180060
1800f0
1801c0
180700
180e00
183800
186000
198000
1e0000
180000
180000
180000
180004
180004
180004
180004
180004
18000c
1ffffe
0ffffc
000000
ENDCHAR
STARTCHAR a451
ENCODING 42065
SWIDTH 301 0
DWIDTH 24 0
BBX 24 24 0 -2
BITMAP
001000
001c00
001800
001800
001800
001800
001800
001800
001804
00180e
ffffff
001800
001800
001800
001800
001800
001800
001800
001800
001800
001800
001800
001800
001000
ENDCHAR
STARTCHAR a452
ENCODING 42066
SWIDTH 301 0
DWIDTH 24 0
BBX 24 24 0 -2
BITMAP
004000
007000
006000
006000
006000
006000
006000
006000
007800
006600
006380
0061c0
0060e0
006060
006060
006000
006000
006000
006000
006000
006000
006000
006000
004000
ENDCHAR
STARTCHAR a453
ENCODING 42067
SWIDTH 301 0
DWIDTH 24 0
BBX 24 24 0 -2
BITMAP
000000
000030
3ffff8
020030
020030
020030
010060
010060
0180c0
0080c0
00c180
004180
006300
003600
003e00
001c00
001e00
003700
006380
00c1c0
0180f0
07007c
1c003f
f0000c
ENDCHAR
STARTCHAR a454
ENCODING 42068
SWIDTH 301 0
DWIDTH 24 0
BBX 24 24 0 -2
BITMAP
000000
000010
000038
3ffffc
000000
000000
000000
000000
000000
000000
000060
0ffff0
000000
000000
000000
000000
000000
000000
000004
00000e
ffffff
000000
000000
000000
ENDCHAR
STARTCHAR a455
ENCODING 42069
SWIDTH 301 0
DWIDTH 24 0
BBX 24 24 0 -2
BITMAP
000004
00000e
ffffff
003000
003000
003000
003000
003c00
003300
0031c0
0030e0
003070
003070
003030
003000
003000
003000
003000
003000
003000
003000
003000
003000
002000
ENDCHAR
STARTCHAR a456
ENCODING 42070
SWIDTH 301 0
DWIDTH 24 0
BBX 24 24 0 -2
BITMAP
000800
000e00
000c00
000c00
000c06
ffffff
000c00
000c00
000c00
040c00
060c00
020c00
031800
019800
00d800
007000
003000
007800
00cc00
018700
0303c0
0e00f0
38007f
e0001c
ENDCHAR
STARTCHAR a457
ENCODING 42071
SWIDTH 301 0
DWIDTH 24 0
BBX 24 24 0 -2
BITMAP
002000
003800
003000
003000
003000
003000
003000
003000
003018
003ffc
003000
003000
003000
003000
003000
003000
003000
003000
003000
003004
00300e
ffffff
000000
000000
ENDCHAR
STARTCHAR a458
ENCODING 42072
SWIDTH 301 0
DWIDTH 24 0
BBX 24 24 0 -2
BITMAP
000000
100020
0c0038
060070
030060
0180c0
018180
00c300
00c600
001800
001800
001800
001800
001800
001800
001800
001800
001800
001800
001800
001800
001800
001800
001000
ENDCHAR
STARTCHAR a459
ENCODING 42073
SWIDTH 301 0
DWIDTH 24 0
BBX 24 24 0 -2
BITMAP
010000
01c000
018000
018000
018000
018180
7fffc0
018180
018180
018180
018180
030180
030180
038180
03c180
036180
067182
063182
0c3182
0c0182
180183
3001ff
6000fe
800000
ENDCHAR
STARTCHAR a45a
ENCODING 42074
SWIDTH 301 0
DWIDTH 24 0
BBX 24 24 0 -2
BITMAP
000000
080180
0fffc0
0c0180
0c0180
0c0180
0c0180
0c0180
0d0180
0cc180
0c6180
0c3180
0c3980
0c1980
0c1980
180182
180182
180182
100182
300182
200183
2001ff
4000fe
800000
ENDCHAR
STARTCHAR a45b
ENCODING 42075
SWIDTH 301 0
DWIDTH 24 0
BBX 24 24 0 -2
BITMAP
008000
00e000
00c000
018300
01ff80
018300
030300
030300
060600
060600
0c0400
180e00
200e00
000a00
001b00
003100
003180
0060c0
00c0c0
018060
030070
06003c
18001f
e0000c
ENDCHAR
STARTCHAR a45c
ENCODING 42076
SWIDTH 301 0
DWIDTH 24 0
BBX 24 24 0 -2
BITMAP
002000
003800
007000
007000
00e000
01c000
018000
030400
060700
0c0e00
181c00
301800
403800
007000
00e080
00c040
018060
030030
060038
0c1fd8
1ffc1c
1f800c
0c0008
000000
ENDCHAR
STARTCHAR a45d
ENCODING 42077
SWIDTH 301 0
DWIDTH 24 0
BBX 24 24 0 -2
BITMAP
001000
001c00
001800
081800
0e1800
0c1818
0c18fc
0c1f98
0cf818
0f1830
3c1830
cc1860
0c1860
0c1840
0c1800
0c1800
0c1802
0c1002
0c0002
0c0002
0c0006
0fffff
07fffe
000000
ENDCHAR
STARTCHAR a45e
ENCODING 42078
SWIDTH 301 0
DWIDTH 24 0
BBX 24 24 0 -2
BITMAP
040000
070000
060000
060018
0ffffc
0c0000
180000
180000
300300
67ff80
400700
800c00
001800
003000
006000
00c000
018004
030004
060004
0c0004
0c0006
0ffffe
07fffc
000000
ENDCHAR
STARTCHAR a45f
ENCODING 42079
SWIDTH 301 0
DWIDTH 24 0
BBX 24 24 0 -2
BITMAP
000000
000018
3ffffc
001800
001800
001800
001800
001800
001804
00180e
ffffff
001800
001800
001800
001800
001800
001800
001800
001800
001800
001800
001800
07f800
00f000
ENDCHAR
STARTCHAR a460
ENCODING 42080
SWIDTH 301 0
DWIDTH 24 0
BBX 24 24 0 -2
BITMAP
006000
003000
003800
001c00
001c00
000c04
00080e
ffffff
0c0000
0c0000
0c0000
0c0000
0c0000
0c0000
0c0000
0c0000
0c0000
0c0000
0c0000
0c0000
0c0000
0ffffc
07fffe
000000
ENDCHAR
STARTCHAR a461
ENCODING 42081
SWIDTH 301 0
DWIDTH 24 0
BBX 24 24 0 -2
BITMAP
000004
00000e
ffffff
018300
018300
018300
018300
018300
018300
018300
018300
018300
018300
018300
030300
030300
030302
060302
060302
0c0302
0c0303
1803ff
3001fe
c00000
ENDCHAR
STARTCHAR a462
ENCODING 42082
SWIDTH 301 0
DWIDTH 24 0
BBX 24 24 0 -2
BITMAP
000000
00000c
7ffffe
00300c
00300c
00300c
00300c
0c300c
03300c
01b00c
00f00c
00f00c
00300c
00600c
00600c
00c00c
00c00c
01800c
01800c
03000c
060018
0c0038
300ff0
c000e0
ENDCHAR
STARTCHAR a463
ENCODING 42083
SWIDTH 301 0
DWIDTH 24 0
BBX 24 24 0 -2
BITMAP
040000
070000
060000
060000
0c000c
0ffffe
0c000c
18000c
18000c
30800c
20600c
40300c
80180c
001c0c
000c0c
000c0c
00000c
00000c
00000c
00001c
000018
000038
003ff0
0000e0
ENDCHAR
STARTCHAR a464
ENCODING 42084
SWIDTH 301 0
DWIDTH 24 0
BBX 24 24 0 -2
BITMAP
000070
0003f8
007f00
1fd800
001800
001800
001800
001800
001800
001804
00180e
ffffff
001800
001800
001800
001800
001800
001800
001800
001800
001800
001800
001800
001000
ENDCHAR
STARTCHAR a465
ENCODING 42085
SWIDTH 301 0
DWIDTH 24 0
BBX 24 24 0 -2
BITMAP
000018
1ffffc
000018
004018
043030
021830
031c60
010c60
0180c0
0080c0
00c180
006180
006300
003600
003e00
001c00
001c00
003600
006300
00c1c0
0180f0
07007f
1c001e
e00006
ENDCHAR
STARTCHAR a466
ENCODING 42086
SWIDTH 301 0
DWIDTH 24 0
BBX 24 24 0 -2
BITMAP
000000
000000
000000
100018
1ffffc
180018
180018
180018
180018
180018
180018
180018
180018
180018
180018
180018
180018
180018
180018
1ffff8
180018
180010
100000
000000
ENDCHAR
STARTCHAR a467
ENCODING 42087
SWIDTH 301 0
DWIDTH 24 0
BBX 24 24 0 -2
BITMAP
001000
001c00
001800
001800
001800
001800
001800
001800
001818
3ffffc
001800
001800
001800
001800
001800
001800
001800
001800
001800
001804
00180e
ffffff
000000
000000
ENDCHAR
STARTCHAR a468
ENCODING 42088
SWIDTH 301 0
DWIDTH 24 0
BBX 24 24 0 -2
BITMAP
001000
001c00
001800
001800
001800
001800
001800
001804
00180e
ffffff
001800
001800
001800
001800
001800
001800
001800
001800
001800
001800
001800
001818
3ffffc
000000
ENDCHAR
STARTCHAR a469
ENCODING 42089
SWIDTH 301 0
DWIDTH 24 0
BBX 24 24 0 -2
BITMAP
008000
00e000
00c000
01c000
01800c
01fffe
03800c
03001c
070018
06c038
0c7030
083870
101c60
201ce0
0008c0
000180
000300
000600
000c00
001800
007000
01c000
070000
f80000
ENDCHAR
STARTCHAR a46a
ENCODING 42090
SWIDTH 301 0
DWIDTH 24 0
BBX 24 24 0 -2
BITMAP
001000
001c00
001800
001800
001800
001804
00180e
ffffff
001800
001800
001800
003400
003400
003400
006200
006300
00c100
00c180
0180c0
0300e0
060078
0c003f
30001e
c00006
ENDCHAR
STARTCHAR a46b
ENCODING 42091
SWIDTH 301 0
DWIDTH 24 0
BBX 24 24 0 -2
BITMAP
004000
007000
006000
006000
00c080
00c0e0
00c0c6
ffffff
00c0c0
0180c0
0180c0
0180c0
030180
030180
060180
0f8300
04e300
003e00
000f00
001b80
0030e0
00e070
078038
7c0018
ENDCHAR
STARTCHAR a46c
ENCODING 42092
SWIDTH 301 0
DWIDTH 24 0
BBX 24 24 0 -2
BITMAP
000010
3ffff8
00003c
000070
0000c0
000380
001e00
001800
001800
001800
001804
00180e
ffffff
001800
001800
001800
001800
001800
001800
001800
001800
001800
03f800
007000
ENDCHAR
STARTCHAR a46d
ENCODING 42093
SWIDTH 301 0
DWIDTH 24 0
BBX 24 24 0 -2
BITMAP
000010
3ffff8
00003c
000070
0000c0
000180
000e00
000c00
000c00
000c07
000c38
000dc0
001f00
03fc00
ff8c00
fc0c00
400c00
000c00
000c00
000c00
000c00
000c00
01fc00
003800
ENDCHAR
STARTCHAR a46e
ENCODING 42094
SWIDTH 301 0
DWIDTH 24 0
BBX 24 24 0 -2
BITMAP
000010
3ffff8
00003c
000070
0000c0
000180
000e00
000c00
000c00
100c00
080c00
060c00
030c00
01cc00
006c00
003c00
001f00
000fc0
000cf8
000c3f
000c0c
000c00
01fc00
003800
ENDCHAR
STARTCHAR a46f
ENCODING 42095
SWIDTH 301 0
DWIDTH 24 0
BBX 24 24 0 -2
BITMAP
000080
0000e0
0000c0
0000c0
0000c0
0000c0
0000c6
ffffff
0000c0
0000c0
0000c0
0400c0
0300c0
01c0c0
00e0c0
0060c0
0060c0
0000c0
0000c0
0000c0
0000c0
0000c0
003fc0
000780
ENDCHAR
STARTCHAR a470
ENCODING 42096
SWIDTH 301 0
DWIDTH 24 0
BBX 24 24 0 -2
BITMAP
001000
001c00
001800
001800
001800
001800
001800
041880
071840
061860
0c1830
0c1818
18181c
18180c
30180e
601806
801806
001800
001800
001800
001800
001800
07f800
007000
ENDCHAR
STARTCHAR a471
ENCODING 42097
SWIDTH 301 0
DWIDTH 24 0
BBX 24 24 0 -2
BITMAP
002000
003800
003000
003000
003004
00300e
ffffff
003000
003000
003800
002e00
006c00
006c00
006c00
00cc00
00cc00
018c02
018c02
030c02
030c02
060c03
0c0fff
3007fe
c00000
ENDCHAR
STARTCHAR a472
ENCODING 42098
SWIDTH 301 0
DWIDTH 24 0
BBX 24 24 0 -2
BITMAP
000000
04000c
07fffe
06000c
06000c
06000c
06000c
06000c
06000c
06000c
07fffc
06000c
060008
060000
060000
0c0000
0c0000
0c0000
180000
180000
300000
200000
400000
800000
ENDCHAR
STARTCHAR a473
ENCODING 42099
SWIDTH 301 0
DWIDTH 24 0
BBX 24 24 0 -2
BITMAP
001000
001c00
001800
001800
001800
001800
201808
38180e
30180c
30180c
30180c
30180c
30180c
30180c
30180c
30180c
30180c
30180c
30180c
30180c
7ffffc
20000c
000008
000000
ENDCHAR
STARTCHAR a474
ENCODING 42100
SWIDTH 301 0
DWIDTH 24 0
BBX 24 24 0 -2
BITMAP
000008
08000e
0e080c
0c0e0c
0c0c0c
0c0c0c
0c0c0c
0c0c0c
0c0c0c
0c0c0c
0c0c0c
0c0c0c
0c0c0c
0c0c0c
180c0c
180c0c
180c0c
180c0c
180c0c
30080c
30000c
60000c
40000c
800008
ENDCHAR
STARTCHAR a475
ENCODING 42101
SWIDTH 301 0
DWIDTH 24 0
BBX 24 24 0 -2
BITMAP
000000
000000
000000
00000c
7ffffe
001800
001800
001800
001800
001800
001800
001800
001800
001800
001800
001800
001800
001800
001800
001804
00180e
ffffff
000000
000000
ENDCHAR
STARTCHAR a476
ENCODING 42102
SWIDTH 301 0
DWIDTH 24 0
BBX 24 24 0 -2
BITMAP
000000
000030
7ffff8
000030
000030
000030
000030
000030
000030
200030
3ffff0
300020
300000
300000
300000
300004
300004
300004
300004
300004
300006
3ffffe
1ffffc
000000
ENDCHAR
STARTCHAR a477
ENCODING 42103
SWIDTH 301 0
DWIDTH 24 0
BBX 24 24 0 -2
BITMAP
000000
000030
7ffff8
000030
000030
200030
380030
300030
300030
300030
3ffff0
300020
300000
300000
300004
300004
300004
300004
300004
300004
300006
3ffffe
1ffffc
000000
ENDCHAR
STARTCHAR a478
ENCODING 42104
SWIDTH 301 0
DWIDTH 24 0
BBX 24 24 0 -2
BITMAP
000000
200018
3ffffc
300018
300018
300018
300018
300018
300018
300018
3ffff8
300010
300000
300000
300004
300004
300004
300004
300004
300004
300006
3ffffe
1ffffc
000000
ENDCHAR
STARTCHAR a479
ENCODING 42105
SWIDTH 301 0
DWIDTH 24 0
BBX 24 24 0 -2
BITMAP
001000
001c00
001800
001800
001800
20180c
3ffffe
30180c
30180c
30180c
30180c
30180c
30180c
30180c
30180c
30180c
30180c
30180c
30180c
3019fc
201818
001800
001800
001000
ENDCHAR
STARTCHAR a47a
ENCODING 42106
SWIDTH 301 0
DWIDTH 24 0
BBX 24 24 0 -2
BITMAP
000000
000018
3ffffc
001800
001800
001800
001800
001800
001800
001800
001804
00180e
ffffff
001800
001800
001800
001800
001800
001800
001800
001800
001800
001800
001000
ENDCHAR
STARTCHAR a47b
ENCODING 42107
SWIDTH 301 0
DWIDTH 24 0
BBX 24 24 0 -2
BITMAP
020080
0380e0
0300c0
0300c0
0300c0
0300c0
0300c0
0300c0
0300c6
ffffff
0300c0
0300c0
0300c0
0300c0
0600c0
0600c0
0600c0
0c00c0
0c00c0
1800c0
1800c0
3000c0
2000c0
400080
ENDCHAR
STARTCHAR a47c
ENCODING 42108
SWIDTH 301 0
DWIDTH 24 0
BBX 24 24 0 -2
BITMAP
001000
001c80
001860
001830
001830
001800
001806
7fffff
001800
001800
001800
001800
000c00
000c00
000c00
000602
000602
000302
000302
000182
0000c2
000073
00003f
00000e
ENDCHAR
STARTCHAR a47d
ENCODING 42109
SWIDTH 301 0
DWIDTH 24 0
BBX 24 24 0 -2
BITMAP
000030
3ffff8
000030
000030
000030
000030
100030
1ffff0
180020
180000
180000
180000
30000c
7ffffe
20000c
00000c
00000c
00000c
00000c
000018
000018
000038
003ff0
0001e0
ENDCHAR
STARTCHAR a47e
ENCODING 42110
SWIDTH 301 0
DWIDTH 24 0
BBX 24 24 0 -2
BITMAP
000800
000e00
000c00
000c00
000c04
000c0e
ffffff
001c00
001c00
003c00
006c00
006c00
00cc00
018c00
030c00
060c00
0c0c00
180c00
300c00
c00c00
000c00
000c00
03fc00
003800
ENDCHAR
STARTCHAR a4a1
ENCODING 42145
SWIDTH 301 0
DWIDTH 24 0
BBX 24 24 0 -2
BITMAP
000000
000060
3ffff0
00c060
00c060
00c060
00c060
00c060
00c060
00c060
00c066
ffffff
0180c0
0180c0
0180c0
0180c0
0180c0
0180c0
0180c0
0180c0
0180c8
0180dc
7ffffe
000000
ENDCHAR
STARTCHAR a4a2
ENCODING 42146
SWIDTH 301 0
DWIDTH 24 0
BBX 24 24 0 -2
BITMAP
000006
ffffff
003000
003000
003000
003000
203030
383ff8
303000
303000
303000
303000
30300c
7ffffe
20000c
00000c
00000c
00000c
00001c
000018
000038
000070
007fe0
0001c0
ENDCHAR
STARTCHAR a4a3
ENCODING 42147
SWIDTH 301 0
DWIDTH 24 0
BBX 24 24 0 -2
BITMAP
000004
00000e
ffffff
000e00
000c00
001c00
001800
003000
003c00
007800
00d880
00d860
019830
031818
06181c
0c180e
181806
601806
001800
001800
001800
001800
001800
001000
ENDCHAR
STARTCHAR a4a4
ENCODING 42148
SWIDTH 301 0
DWIDTH 24 0
BBX 24 24 0 -2
BITMAP
001000
001c00
001800
001800
20180c
3ffffe
30180c
30180c
30180c
30180c
30180c
30180c
30180c
3ffffc
301808
201800
001800
001800
001800
001800
001800
001800
001800
001000
ENDCHAR
STARTCHAR a4a5
ENCODING 42149
SWIDTH 301 0
DWIDTH 24 0
BBX 24 24 0 -2
BITMAP
001000
001c00
001860
0019f8
00ff00
1f9800
001800
001800
001800
001830
1ffff8
001800
001800
001800
001808
00181c
7ffffe
001800
001800
001800
001800
001800
001800
001000
ENDCHAR
STARTCHAR a4a6
ENCODING 42150
SWIDTH 301 0
DWIDTH 24 0
BBX 24 24 0 -2
BITMAP
000000
040060
07fff0
060060
060060
064060
063060
061860
061c60
060c60
060060
060066
ffffff
060060
060060
060060
060060
0c0060
0c0060
080060
180060
100060
201fe0
4000c0
ENDCHAR
STARTCHAR a4a7
ENCODING 42151
SWIDTH 301 0
DWIDTH 24 0
BBX 24 24 0 -2
BITMAP
000000
004000
003000
001800
001800
001030
3ffff8
000070
000060
0000c0
000180
000300
000600
000c00
001800
003000
00c000
030000
0c0000
7f0000
71e000
007fff
001ffc
000000
ENDCHAR
STARTCHAR a4a8
ENCODING 42152
SWIDTH 301 0
DWIDTH 24 0
BBX 24 24 0 -2
BITMAP
000000
000060
3ffff0
006060
006060
006060
006066
ffffff
006060
006060
006060
006060
006060
3fffe0
00c040
00c000
018000
018000
030000
060000
0c0000
180000
300000
c00000
ENDCHAR
STARTCHAR a4a9
ENCODING 42153
SWIDTH 301 0
DWIDTH 24 0
BBX 24 24 0 -2
BITMAP
000030
1ffff8
0000e0
0001c0
018300
006400
003800
001c00
000c06
ffffff
00180e
001818
001830
001840
001800
001800
001800
001800
001800
001800
001800
001800
07f800
007000
ENDCHAR
STARTCHAR a4aa
ENCODING 42154
SWIDTH 301 0
DWIDTH 24 0
BBX 24 24 0 -2
BITMAP
000000
000030
1ffff8
000000
000000
000000
000000
000004
00000e
ffffff
004000
007000
00e000
00c000
018040
030020
060030
0c0018
18001c
3ffffe
3fe00e
1c0006
000004
000000
ENDCHAR
STARTCHAR a4ab
ENCODING 42155
SWIDTH 301 0
DWIDTH 24 0
BBX 24 24 0 -2
BITMAP
010100
01c1c0
018180
018180
018180
01818c
7ffffe
018180
018180
018180
018180
018184
01818e
ffffff
018180
030180
030180
030180
060180
060180
0c0180
080180
100180
200100
ENDCHAR
STARTCHAR a4ac
ENCODING 42156
SWIDTH 301 0
DWIDTH 24 0
BBX 24 24 0 -2
BITMAP
000000
00000c
7ffffe
00c000
00c000
00c000
00c000
00c060
01fff0
018060
018060
018060
030060
030060
030060
07ffe0
0200c0
0000c0
0000c0
000180
000180
000186
ffffff
000000
ENDCHAR
STARTCHAR a4ad
ENCODING 42157
SWIDTH 301 0
DWIDTH 24 0
BBX 24 24 0 -2
BITMAP
000000
000018
3ffffc
001800
001800
001800
001800
003000
003000
003000
0030c0
1fffe0
0060c0
0060c0
0060c0
00c0c0
00c0c0
00c0c0
00c0c0
0180c0
0180c4
0180ce
ffffff
000000
ENDCHAR
STARTCHAR a4ae
ENCODING 42158
SWIDTH 301 0
DWIDTH 24 0
BBX 24 24 0 -2
BITMAP
003000
001800
001c00
000806
ffffff
000000
000000
000000
020180
03ffc0
030180
030180
030180
030180
030180
030180
060182
060182
060182
0c0182
0c0183
1801ff
3000fe
c00000
ENDCHAR
STARTCHAR a4af
ENCODING 42159
SWIDTH 301 0
DWIDTH 24 0
BBX 24 24 0 -2
BITMAP
020000
038000
030000
060000
060000
0c0018
0cfffc
180000
1c0000
3c0000
6c0000
4c0000
8c0000
0c0000
0c0000
0c0000
0c0000
0c0000
0c0004
0c000e
0dffff
0c0000
0c0000
080000
ENDCHAR
STARTCHAR a4b0
ENCODING 42160
SWIDTH 301 0
DWIDTH 24 0
BBX 24 24 0 -2
BITMAP
040100
0701c0
060180
060180
0c0180
0c0180
0c0180
180186
1cffff
3c0180
2c0180
4c0180
8c0180
0c0180
0c0180
0c0180
0c0180
0c0180
0c0180
0c0180
0c0180
0c0180
0c0180
080100
ENDCHAR
STARTCHAR a4b1
ENCODING 42161
SWIDTH 301 0
DWIDTH 24 0
BBX 24 24 0 -2
BITMAP
040000
070000
060006
0effff
0c0180
0c0180
180180
180180
3c0180
3c0180
6c0180
4c0180
8c0180
0c0180
0c0180
0c0180
0c0180
0c0180
0c0180
0c0180
0c0180
0c0180
0c3f80
080700
ENDCHAR
STARTCHAR a4b2
ENCODING 42162
SWIDTH 301 0
DWIDTH 24 0
BBX 24 24 0 -2
BITMAP
020200
038380
030300
070300
060300
060300
0e0300
0c0300
1e0300
3603c0
260330
460318
86030c
06030e
060306
060306
060300
060300
060300
060300
060300
060300
060300
040200
ENDCHAR
STARTCHAR a4b3
ENCODING 42163
SWIDTH 301 0
DWIDTH 24 0
BBX 24 24 0 -2
BITMAP
081000
0e1c00
0c1800
0c1800
181800
181800
181860
31fff0
381860
381860
781860
581860
981860
183060
183060
183060
183062
186062
186062
184063
18c063
18807f
19003e
120000
ENDCHAR
STARTCHAR a4b4
ENCODING 42164
SWIDTH 301 0
DWIDTH 24 0
BBX 24 24 0 -2
BITMAP
080000
0e0030
0cfff8
0c0c30
180c30
180c30
180c30
300c60
380c66
380cff
780c46
581806
981806
181806
181806
181806
183006
183006
182006
186006
186006
18c00c
1881fc
110038
ENDCHAR
STARTCHAR a4b5
ENCODING 42165
SWIDTH 301 0
DWIDTH 24 0
BBX 24 24 0 -2
BITMAP
002000
003800
007000
006800
00c600
00c300
018180
0300c0
060070
0c003c
18031f
63ff8c
800000
000000
0000c0
1fffe0
0000c0
0000c0
000180
000180
000300
000300
000600
000400
ENDCHAR
STARTCHAR a4b6
ENCODING 42166
SWIDTH 301 0
DWIDTH 24 0
BBX 24 24 0 -2
BITMAP
001000
001c00
003800
003400
006300
00c180
0180c0
030070
06003c
0c001f
31010c
c1c1c0
018180
018180
018180
018180
018180
030180
030180
060180
060180
0c0180
180180
600100
ENDCHAR
STARTCHAR a4b7
ENCODING 42167
SWIDTH 301 0
DWIDTH 24 0
BBX 24 24 0 -2
BITMAP
000004
10000e
1fffff
180000
180000
180800
180e00
180c00
180c00
180c00
180c00
180c00
180c00
181a00
181b00
181900
303180
3030c0
206060
60c070
41803c
83001f
0c000c
100000
ENDCHAR
STARTCHAR a4b8
ENCODING 42168
SWIDTH 301 0
DWIDTH 24 0
BBX 24 24 0 -2
BITMAP
000000
000030
1ffff8
000000
000000
000000
000000
000004
00000e
ffffff
018300
018300
018300
018300
018300
030300
030302
030302
060302
060302
0c0303
1803ff
3001fe
c00000
ENDCHAR
STARTCHAR a4b9
ENCODING 42169
SWIDTH 301 0
DWIDTH 24 0
BBX 24 24 0 -2
BITMAP
008000
00e000
00c000
018000
018080
030040
030060
060030
0c0038
3fffdc
3fc60c
18c60c
00c600
00c600
00c600
00c600
018602
018602
030602
030602
060603
0c07ff
1803fe
600000
ENDCHAR
STARTCHAR a4ba
ENCODING 42170
SWIDTH 301 0
DWIDTH 24 0
BBX 24 24 0 -2
BITMAP
006000
003000
001000
001000
20100c
3ffffe
30180c
30180c
30180c
30180c
303c0c
30340c
30660c
30620c
30c30c
31818c
3301cc
3400cc
30000c
30000c
30000c
30000c
3001fc
200018
ENDCHAR
STARTCHAR a4bb
ENCODING 42171
SWIDTH 301 0
DWIDTH 24 0
BBX 24 24 0 -2
BITMAP
000000
006000
003000
003800
001800
001804
00100e
ffffff
000000
000000
000000
000000
018100
01c0c0
038060
030030
060018
0c001c
18000c
30000e
600006
800006
000000
000000
ENDCHAR
STARTCHAR a4bc
ENCODING 42172
SWIDTH 301 0
DWIDTH 24 0
BBX 24 24 0 -2
BITMAP
000200
010100
01c180
0380c0
030060
060070
0c0038
1800de
37ffef
606004
806000
00c000
00c000
018030
03fff8
010030
000030
000030
000030
000060
000060
0000c0
007f80
000700
ENDCHAR
STARTCHAR a4bd
ENCODING 42173
SWIDTH 301 0
DWIDTH 24 0
BBX 24 24 0 -2
BITMAP
000400
000200
010200
01c100
018180
0300c0
0300c0
060060
0c0030
0c0038
18201c
30381e
60700f
806004
00c000
00c100
018080
0300c0
060060
0c0060
1ffff0
1fc030
0c0030
000000
ENDCHAR
STARTCHAR a4be
ENCODING 42174
SWIDTH 301 0
DWIDTH 24 0
BBX 24 24 0 -2
BITMAP
200000
200006
3fffff
600006
60000c
e00018
c10300
01ff80
018300
018300
018300
018300
018300
018300
018300
018304
018304
030304
030304
060304
0c0306
1803fe
3001fc
c00000
ENDCHAR
STARTCHAR a4bf
ENCODING 42175
SWIDTH 301 0
DWIDTH 24 0
BBX 24 24 0 -2
BITMAP
000000
000100
4001c4
700187
600186
620306
610306
60c306
606606
603606
601c06
600c06
601e06
603306
603186
6060c6
60c0c6
618066
630066
640006
600006
7ffffe
600006
400004
ENDCHAR
STARTCHAR a4c0
ENCODING 42176
SWIDTH 301 0
DWIDTH 24 0
BBX 24 24 0 -2
BITMAP
000400
000200
010200
01c100
038180
0300c0
0600e0
060070
0c0038
18001e
30006f
6ffff4
806060
006060
006060
00c060
00c060
018060
030060
060060
0c00c0
1801c0
307f80
400700
ENDCHAR
STARTCHAR a4c1
ENCODING 42177
SWIDTH 301 0
DWIDTH 24 0
BBX 24 24 0 -2
BITMAP
100000
1c0006
183fff
180306
180306
180306
184306
ffe306
180306
180306
180306
180306
180306
180306
180606
180606
186606
198c06
1f0c06
0c180c
00180c
00301c
0063f8
018030
ENDCHAR
STARTCHAR a4c2
ENCODING 42178
SWIDTH 301 0
DWIDTH 24 0
BBX 24 24 0 -2
BITMAP
000004
004007
007006
006106
0061c6
006186
606186
18c186
0cc186
06c186
038186
018186
01c186
036186
033186
033186
061986
061986
0c1106
0c0006
180006
100006
2001fe
00000c
ENDCHAR
STARTCHAR a4c3
ENCODING 42179
SWIDTH 301 0
DWIDTH 24 0
BBX 24 24 0 -2
BITMAP
040000
070000
060000
060000
0c0006
0fffff
0c0006
180006
180006
300306
23ff86
400006
800006
000006
000006
000006
000306
03ff86
000006
00000e
00000c
00003c
001ff8
0000e0
ENDCHAR
STARTCHAR a4c4
ENCODING 42180
SWIDTH 301 0
DWIDTH 24 0
BBX 24 24 0 -2
BITMAP
020000
038000
030000
060006
07ffff
0c0006
0c0006
180006
304006
607006
806006
00c006
00c006
018206
018106
030186
060186
0ffec6
0fe0c6
0600ce
00000c
00003c
001ff8
0000e0
ENDCHAR
STARTCHAR a4c5
ENCODING 42181
SWIDTH 301 0
DWIDTH 24 0
BBX 24 24 0 -2
BITMAP
040000
070000
060000
060000
0c0006
0fffff
186186
186186
306186
60c306
40c306
818306
018606
030606
060c06
0c0c06
181806
201806
003006
00600e
00c00c
01803c
060ff8
1800e0
ENDCHAR
STARTCHAR a4c6
ENCODING 42182
SWIDTH 301 0
DWIDTH 24 0
BBX 24 24 0 -2
BITMAP
010800
01ce00
018c00
030c00
030c00
060c00
060c00
0c0c00
0e0c00
1e0c0c
260ffe
460c00
860c00
060c00
060c00
060c02
060c02
060c02
060c02
060c02
060c03
060fff
0607fe
040000
ENDCHAR
STARTCHAR a4c7
ENCODING 42183
SWIDTH 301 0
DWIDTH 24 0
BBX 24 24 0 -2
BITMAP
000000
00000c
7ffffe
306300
306300
306300
306300
306300
306300
306300
306300
30c300
30c300
3183fc
3301fe
360000
380000
300000
300000
300000
3ffffe
1fffff
000000
000000
ENDCHAR
STARTCHAR a4c8
ENCODING 42184
SWIDTH 301 0
DWIDTH 24 0
BBX 24 24 0 -2
BITMAP
040000
070000
060000
060018
0ffffc
0c0c00
180c00
180c00
300c00
200c00
400c00
800c04
000c0e
7fffff
000c00
000c00
000c00
000c00
000c00
000c00
000c00
000c00
000c00
000800
ENDCHAR
STARTCHAR a4c9
ENCODING 42185
SWIDTH 301 0
DWIDTH 24 0
BBX 24 24 0 -2
BITMAP
003100
00f9c0
07c180
7d8180
018180
018180
018180
018180
018180
018180
018186
ffffff
018180
018180
030180
030180
030180
060180
060180
0c0180
180180
300180
600180
800100
ENDCHAR
STARTCHAR a4ca
ENCODING 42186
SWIDTH 301 0
DWIDTH 24 0
BBX 24 24 0 -2
BITMAP
081020
0e1c38
0c1830
0c1830
0c1830
0c1830
0c1830
0c1830
0c1832
ffffff
0c1830
0c1830
0c1830
0c1830
0c1830
0c1830
181830
181830
181830
301830
301830
601830
401030
800020
ENDCHAR
STARTCHAR a4cb
ENCODING 42187
SWIDTH 301 0
DWIDTH 24 0
BBX 24 24 0 -2
BITMAP
00c000
007000
003800
001804
00100e
ffffff
003000
003000
003000
003000
003c00
003300
0031c0
0030e0
003060
003060
003000
003000
003000
003000
003000
003000
003000
002000
ENDCHAR
STARTCHAR a4cc
ENCODING 42188
SWIDTH 301 0
DWIDTH 24 0
BBX 24 24 0 -2
BITMAP
000000
200006
3fffff
300000
300000
300000
310030
31fff8
318030
318030
318030
318030
318030
318030
319ff0
3180e0
318004
318004
318004
618004
618006
41fffe
40fffc
800000
ENDCHAR
STARTCHAR a4cd
ENCODING 42189
SWIDTH 301 0
DWIDTH 24 0
BBX 24 24 0 -2
BITMAP
004000
007000
006000
006004
00600e
ffffff
00c000
00c000
00c000
018030
01fff8
01c030
032030
032060
031060
0618c0
060d80
0c0700
0c0700
180d80
3018e0
406078
81803f
0e000c
ENDCHAR
STARTCHAR a4ce
ENCODING 42190
SWIDTH 301 0
DWIDTH 24 0
BBX 24 24 0 -2
BITMAP
000180
3fffc0
030180
030180
030180
030300
030300
030330
03fff8
030030
034030
034060
062060
0620c0
0610c0
0c1980
0c0f00
180600
180f00
301980
2030e0
40c078
83003f
1c000c
ENDCHAR
STARTCHAR a4cf
ENCODING 42191
SWIDTH 301 0
DWIDTH 24 0
BBX 24 24 0 -2
BITMAP
000000
080018
0ffffc
0c0000
0c0000
0c0000
0c0030
0ffff8
0c8070
0c8060
0c8060
0c40c0
0c60c0
182180
183180
181b00
100e00
300e00
300f00
201980
6030e0
406078
81803f
0e000c
ENDCHAR
STARTCHAR a4d0
ENCODING 42192
SWIDTH 301 0
DWIDTH 24 0
BBX 24 24 0 -2
BITMAP
000000
000060
0ffff0
001800
001800
001800
001800
001800
001800
001804
00180e
ffffff
001800
001800
001800
001800
001800
001800
001800
001800
001800
001830
0ffff8
000000
ENDCHAR
STARTCHAR a4d1
ENCODING 42193
SWIDTH 301 0
DWIDTH 24 0
BBX 24 24 0 -2
BITMAP
000010
000038
3ffffc
003000
003000
003000
003000
003000
003004
00300e
ffffff
006800
006800
006400
00c400
00c200
018300
038180
0301c0
0600e0
0c0070
18003c
30001f
c0000c
ENDCHAR
STARTCHAR a4d2
ENCODING 42194
SWIDTH 301 0
DWIDTH 24 0
BBX 24 24 0 -2
BITMAP
001000
001c00
001800
001800
001818
3ffffc
001800
001800
001800
001804
00180e
ffffff
003400
003600
006200
006300
00c180
00c0c0
0180e0
030070
060038
0c001e
30000f
c00004
ENDCHAR
STARTCHAR a4d3
ENCODING 42195
SWIDTH 301 0
DWIDTH 24 0
BBX 24 24 0 -2
BITMAP
001000
001c00
001800
001800
001800
001800
00180c
7ffffe
001800
001800
003c00
003400
003600
006200
006300
00c100
00c180
0180c0
01b0e0
031870
060c3c
0c0c1f
38000c
e00004
ENDCHAR
STARTCHAR a4d4
ENCODING 42196
SWIDTH 301 0
DWIDTH 24 0
BBX 24 24 0 -2
BITMAP
000070
0003f8
003f80
1ff800
001800
001800
001800
001800
001804
00180e
ffffff
003400
003400
003600
006200
006300
00c100
00c180
0180c0
030060
060070
0c003c
30001f
c0000c
ENDCHAR
STARTCHAR a4d5
ENCODING 42197
SWIDTH 301 0
DWIDTH 24 0
BBX 24 24 0 -2
BITMAP
003200
7ffb80
003300
006300
00c300
038300
030300
030300
030300
030300
033b00
03e300
1f8300
fb0302
e30302
430302
030302
030302
030302
030302
030303
0303ff
7f01fe
060000
ENDCHAR
STARTCHAR a4d6
ENCODING 42198
SWIDTH 301 0
DWIDTH 24 0
BBX 24 24 0 -2
BITMAP
001000
001c00
001800
001800
0618c0
071830
061818
0c180c
0c1806
181807
101803
201818
40181c
801838
001870
0018e0
0011c0
000300
000600
001c00
007000
01c000
0f0000
f80000
ENDCHAR
STARTCHAR a4d7
ENCODING 42199
SWIDTH 301 0
DWIDTH 24 0
BBX 24 24 0 -2
BITMAP
001000
001cc0
001870
001830
001800
001806
ffffff
003000
003000
003000
003800
006e00
006c00
006c00
00cc00
00cc02
018c02
018c02
030c02
060c02
0c0c03
180fff
3007fe
c00000
ENDCHAR
STARTCHAR a4d8
ENCODING 42200
SWIDTH 301 0
DWIDTH 24 0
BBX 24 24 0 -2
BITMAP
080030
0ffff8
0c0030
0c0030
0c0030
0c0030
0c0030
0c0030
0ffff0
0c1030
0c1020
0c1800
0c0800
0c0c00
0c0400
180600
180200
180300
100180
3000c0
200070
60003c
40001f
800004
ENDCHAR
STARTCHAR a4d9
ENCODING 42201
SWIDTH 301 0
DWIDTH 24 0
BBX 24 24 0 -2
BITMAP
002000
003800
003000
003018
7ffffc
003000
003000
003000
203020
383038
303030
303030
303030
303030
303030
7ffff0
203020
003002
003002
003002
003002
003003
003fff
001ffe
ENDCHAR
STARTCHAR a4da
ENCODING 42202
SWIDTH 301 0
DWIDTH 24 0
BBX 24 24 0 -2
BITMAP
000000
200018
3ffffc
301818
301818
301818
301818
301818
301818
301818
301818
3ffff8
300010
300000
300000
300002
300002
300002
300002
300002
300003
3fffff
1ffffe
000000
ENDCHAR
STARTCHAR a4db
ENCODING 42203
SWIDTH 301 0
DWIDTH 24 0
BBX 24 24 0 -2
BITMAP
000000
040000
070000
060006
0c3fff
0c0006
180006
188006
30e006
60c006
418006
318006
1b0006
0f0006
060006
0c4006
0c2006
183006
303006
63d806
fe1806
78180c
2003fc
000018
ENDCHAR
STARTCHAR a4dc
ENCODING 42204
SWIDTH 301 0
DWIDTH 24 0
BBX 24 24 0 -2
BITMAP
020080
0380e0
0300c0
0300c0
0300c0
0300c4
0300ce
ffffff
0300c0
0300c0
0300c0
0300c0
0300c0
0300c0
0300c0
0300c0
0300c0
0300c0
0300c0
0300c0
03ffc0
0300c0
030080
020000
ENDCHAR
STARTCHAR a4dd
ENCODING 42205
SWIDTH 301 0
DWIDTH 24 0
BBX 24 24 0 -2
BITMAP
000000
00000c
7ffffe
00180c
00180c
00180c
20180c
3ffffc
301808
301800
301800
601800
601806
ffffff
401806
001806
001806
001806
001806
00180e
0019fc
001818
001800
001000
ENDCHAR
STARTCHAR a4de
ENCODING 42206
SWIDTH 301 0
DWIDTH 24 0
BBX 24 24 0 -2
BITMAP
001808
3ffc0e
00180c
00180c
00180c
00180c
10180c
1ff80c
18100c
18000c
18000c
30000c
300c0c
7ffe0c
200c0c
000c0c
000c0c
000c0c
000c0c
000c0c
00180c
00380c
0ff00c
00e008
ENDCHAR
STARTCHAR a4df
ENCODING 42207
SWIDTH 301 0
DWIDTH 24 0
BBX 24 24 0 -2
BITMAP
000000
000000
00e000
001800
000c00
000600
000600
010000
01c000
018020
118010
118008
11800c
318006
318006
318027
618023
618023
e18023
c18020
018030
01fff0
00ffe0
000000
ENDCHAR
STARTCHAR a4e0
ENCODING 42208
SWIDTH 301 0
DWIDTH 24 0
BBX 24 24 0 -2
BITMAP
004000
007180
0060e0
006070
006030
006004
00600e
ffffff
003000
003000
003010
00181c
001830
001860
000cc0
000d80
000702
000e02
001b02
003182
00c0c2
030073
0c003f
30000e
ENDCHAR
STARTCHAR a4e1
ENCODING 42209
SWIDTH 301 0
DWIDTH 24 0
BBX 24 24 0 -2
BITMAP
000070
0003f8
083f00
0ff000
0c0000
0c000c
0ffffe
0c000c
0c000c
0c000c
0c000c
0c000c
0c000c
0ffffc
0c000c
0c0008
180000
180000
180000
300000
300000
600000
400000
800000
ENDCHAR
STARTCHAR a4e2
ENCODING 42210
SWIDTH 301 0
DWIDTH 24 0
BBX 24 24 0 -2
BITMAP
000070
0003f8
007f00
3ff800
001800
001800
001800
001818
3ffffc
001800
001800
001800
001804
00180e
ffffff
001800
001800
001800
001800
001800
001800
001800
07f800
007000
ENDCHAR
STARTCHAR a4e3
ENCODING 42211
SWIDTH 301 0
DWIDTH 24 0
BBX 24 24 0 -2
BITMAP
040400
070700
060600
060600
060600
06c600
ffe600
060600
060600
060600
060600
060600
07c600
0f0600
fe0602
660602
060602
060602
060602
060602
060603
0607ff
7e03fe
0c0000
ENDCHAR
STARTCHAR a4e4
ENCODING 42212
SWIDTH 301 0
DWIDTH 24 0
BBX 24 24 0 -2
BITMAP
001000
001c00
001804
00180e
ffffff
001800
001800
001800
001800
001830
3ffff8
040070
020060
0100c0
018180
00c300
006600
003c00
003c00
006e00
01c380
0701f0
1c007f
e0001c
ENDCHAR
STARTCHAR a4e5
ENCODING 42213
SWIDTH 301 0
DWIDTH 24 0
BBX 24 24 0 -2
BITMAP
006000
003000
003800
001804
00100e
ffffff
020070
020060
030060
010040
0180c0
0080c0
00c180
004100
006300
003600
001c00
001c00
003600
006300
01c1c0
0700f8
1c003f
e0000c
ENDCHAR
STARTCHAR a4e6
ENCODING 42214
SWIDTH 301 0
DWIDTH 24 0
BBX 24 24 0 -2
BITMAP
000080
0100e0
00c0c0
0060c0
0030c0
0038c0
0410c0
0300c0
0180c0
00c0c0
00e0c0
0060c0
0040c0
0000c4
0000ce
ffffff
0000c0
0000c0
0000c0
0000c0
0000c0
0000c0
0000c0
000080
ENDCHAR
STARTCHAR a4e7
ENCODING 42215
SWIDTH 301 0
DWIDTH 24 0
BBX 24 24 0 -2
BITMAP
0000e0
0003f0
083f00
0ff000
0c0000
0c0000
0c0000
0c0004
0c000e
0fffff
0c0300
0c0300
0c0300
0c0300
0c0300
0c0300
0c0300
180300
180300
100300
300300
200300
400300
800200
ENDCHAR
STARTCHAR a4e8
ENCODING 42216
SWIDTH 301 0
DWIDTH 24 0
BBX 24 24 0 -2
BITMAP
004000
003000
003800
001804
00100e
ffffff
00c000
00c000
00c000
00c000
00c030
00fff8
00c030
01c030
018030
018030
030030
030030
060030
060070
0c0060
1800e0
307fc0
c00380
ENDCHAR
STARTCHAR a4e9
ENCODING 42217
SWIDTH 301 0
DWIDTH 24 0
BBX 24 24 0 -2
BITMAP
000000
000000
080060
0ffff0
0c0060
0c0060
0c0060
0c0060
0c0060
0c0060
0c0060
0fffe0
0c0060
0c0060
0c0060
0c0060
0c0060
0c0060
0c0060
0c0060
0fffe0
0c0060
0c0040
080000
ENDCHAR
STARTCHAR a4ea
ENCODING 42218
SWIDTH 301 0
DWIDTH 24 0
BBX 24 24 0 -2
BITMAP
000000
000000
20000c
3ffffe
30000c
30000c
30000c
30000c
30000c
30000c
30000c
3ffffc
30000c
30000c
30000c
30000c
30000c
30000c
30000c
3ffffc
30000c
300008
200000
000000
ENDCHAR
STARTCHAR a4eb
ENCODING 42219
SWIDTH 301 0
DWIDTH 24 0
BBX 24 24 0 -2
BITMAP
020030
03fff8
030030
030030
030030
030030
030030
03fff0
030030
030030
030030
030030
030030
03fff0
030030
070030
060030
060030
0c0030
0c0030
180030
100030
201ff0
400060
ENDCHAR
STARTCHAR a4ec
ENCODING 42220
SWIDTH 301 0
DWIDTH 24 0
BBX 24 24 0 -2
BITMAP
001000
001c00
001800
001800
001804
00180e
ffffff
003a00
007a00
005b00
00d900
00d980
019880
0398c0
031860
061870
0c1838
18181c
30181f
40180c
801800
001800
001800
001000
ENDCHAR
STARTCHAR a4ed
ENCODING 42221
SWIDTH 301 0
DWIDTH 24 0
BBX 24 24 0 -2
BITMAP
020000
038000
030000
060000
06000c
0ffffe
0c180c
18180c
101818
201810
401c20
003440
003600
003200
006200
006300
00c100
00c180
0180c0
0300e0
060070
0c003c
30001f
c0000c
ENDCHAR
STARTCHAR a4ee
ENCODING 42222
SWIDTH 301 0
DWIDTH 24 0
BBX 24 24 0 -2
BITMAP
000800
000e00
000c00
000c00
000c00
000c00
080c00
0e0c00
0c0c00
0c0c18
0c0ffc
0c0c00
0c0c00
0c0c00
0c0c00
0c0c00
0c0c00
0c0c00
0c0c00
0c0c00
0c0c04
0c0c0e
ffffff
000000
ENDCHAR
STARTCHAR a4ef
ENCODING 42223
SWIDTH 301 0
DWIDTH 24 0
BBX 24 24 0 -2
BITMAP
000004
00000e
7fffff
006000
006000
00c000
00c060
00fff0
018060
018060
0300e0
07c0c0
0c71c0
183980
601b80
000700
000e00
001c00
003800
006000
01c000
070000
180000
e00000
ENDCHAR
STARTCHAR a4f0
ENCODING 42224
SWIDTH 301 0
DWIDTH 24 0
BBX 24 24 0 -2
BITMAP
080060
0ffff0
0c1860
0c1860
0c1860
0c1860
0c1860
0c1860
0c1866
ffffff
183060
183060
183060
183060
186060
186060
306060
30c06c
7ffffe
20c060
018060
0180c0
031fc0
040380
ENDCHAR
STARTCHAR a4f1
ENCODING 42225
SWIDTH 301 0
DWIDTH 24 0
BBX 24 24 0 -2
BITMAP
200400
380700
300600
300600
300600
300600
300600
300600
30c60c
3fe7fe
300600
300600
300600
300600
300600
300602
300602
300602
300602
306603
338603
3e07ff
1c03fe
000000
ENDCHAR
STARTCHAR a4f2
ENCODING 42226
SWIDTH 301 0
DWIDTH 24 0
BBX 24 24 0 -2
BITMAP
000070
000ff8
01ff00
3e6000
006000
006000
006000
006030
007ff8
7fe000
006000
006000
006000
006006
007fff
ffe000
006000
006002
006002
006002
006003
007fff
003ffe
000000
ENDCHAR
STARTCHAR a4f3
ENCODING 42227
SWIDTH 301 0
DWIDTH 24 0
BBX 24 24 0 -2
BITMAP
000000
000038
0000fc
207fc0
3ff800
301800
301800
301800
301800
301800
30180c
3ffffe
301800
301800
301800
300c00
300c00
300602
300702
307382
37c1c2
3e00f3
38003f
10000e
ENDCHAR
STARTCHAR a4f4
ENCODING 42228
SWIDTH 301 0
DWIDTH 24 0
BBX 24 24 0 -2
BITMAP
001000
001c00
001800
001800
001808
00180e
01981c
7fd818
019c30
019a60
019a80
031b00
031900
031980
0618c0
0618c0
0c1860
0c1830
18181c
30180f
401806
801802
01f800
003000
ENDCHAR
STARTCHAR a4f5
ENCODING 42229
SWIDTH 301 0
DWIDTH 24 0
BBX 24 24 0 -2
BITMAP
001000
001c00
001800
001800
001800
101810
08181c
0c1838
061860
0718c0
031d00
033600
003400
006200
006200
00c300
00c100
018180
0180c0
0300e0
060070
0c003c
30001f
c0000c
ENDCHAR
STARTCHAR a4f6
ENCODING 42230
SWIDTH 301 0
DWIDTH 24 0
BBX 24 24 0 -2
BITMAP
000018
0000fc
081fe0
0ff820
0c1820
0c1820
0c1820
0c1820
0c1820
0c1820
0c1820
0c1820
0c1830
0c1830
181830
181830
181818
181818
181818
30180c
30180c
60180e
401007
800002
ENDCHAR
STARTCHAR a4f7
ENCODING 42231
SWIDTH 301 0
DWIDTH 24 0
BBX 24 24 0 -2
BITMAP
000000
010180
03c060
070030
0e001c
18000e
300007
c10086
0100e0
0100c0
008180
008180
00c300
004300
006600
003600
001c00
001c00
003600
006380
01c1e0
07007c
1c003f
f0000c
ENDCHAR
STARTCHAR a4f8
ENCODING 42232
SWIDTH 301 0
DWIDTH 24 0
BBX 24 24 0 -2
BITMAP
000080
0601e0
018380
00e700
003c00
003e00
00e3c0
0380f0
1c0030
000000
000040
020070
0200e0
0100c0
018180
00c300
006600
003c00
003c00
006700
01c3c0
0700f8
1c003f
f0000c
ENDCHAR
STARTCHAR a4f9
ENCODING 42233
SWIDTH 301 0
DWIDTH 24 0
BBX 24 24 0 -2
BITMAP
040020
070038
060030
060030
060030
060030
060030
07fff0
060020
060000
060000
060030
07fff8
060030
060030
060030
060030
0c0030
0c0030
0c0030
080030
180030
100030
200020
ENDCHAR
STARTCHAR a4fa
ENCODING 42234
SWIDTH 301 0
DWIDTH 24 0
BBX 24 24 0 -2
BITMAP
000000
000018
1ffffc
180300
180300
180300
180300
180300
300300
300306
7fffff
200700
000f00
001b00
003b00
007300
00e300
018300
030300
0c0300
300300
c00300
00ff00
001e00
ENDCHAR
STARTCHAR a4fb
ENCODING 42235
SWIDTH 301 0
DWIDTH 24 0
BBX 24 24 0 -2
BITMAP
001000
081c00
0e1800
0c1800
0c1800
181818
1ffffc
301800
201800
601800
401800
801800
001800
001806
ffffff
001800
001800
001800
001800
001800
001800
001800
001800
001000
ENDCHAR
STARTCHAR a4fc
ENCODING 42236
SWIDTH 301 0
DWIDTH 24 0
BBX 24 24 0 -2
BITMAP
001000
001c00
001880
001860
001830
001830
001800
001806
ffffff
003800
003400
003400
007200
006200
006300
00c100
018180
0180c0
030060
060070
0c0038
18001c
30000f
c00006
ENDCHAR
STARTCHAR a4fd
ENCODING 42237
SWIDTH 301 0
DWIDTH 24 0
BBX 24 24 0 -2
BITMAP
000000
000018
3ffffc
001800
001800
001800
001800
001800
001800
001800
001860
0ffff0
001800
001800
001800
001800
001800
001800
001800
001800
001804
00180e
ffffff
000000
ENDCHAR
STARTCHAR a4fe
ENCODING 42238
SWIDTH 301 0
DWIDTH 24 0
BBX 24 24 0 -2
BITMAP
000006
ffffff
001800
001800
001800
001800
20180c
3ffffe
30180c
30380c
30340c
30330c
30618c
30618c
30c0cc
30c0cc
3180cc
33000c
3c000c
30000c
30000c
30000c
3001fc
200038
ENDCHAR
STARTCHAR a540
ENCODING 42304
SWIDTH 301 0
DWIDTH 24 0
BBX 24 24 0 -2
BITMAP
002080
0838e0
0e30c0
0c30c0
0c30c0
0c30c0
0c30c6
ffffff
0c30c0
0c30c0
0c30c0
0c30c0
0c30c0
0c30c0
0c30c0
0c3fc0
0c3080
0c2000
0c0000
0c0000
0c0000
0c0006
1fffff
080000
ENDCHAR
STARTCHAR a541
ENCODING 42305
SWIDTH 301 0
DWIDTH 24 0
BBX 24 24 0 -2
BITMAP
000004
00000e
ffffff
000800
000e00
001c00
001800
003000
007000
00f600
01b180
0330c0
063070
0c3038
30301c
c0300c
003000
003000
003000
003000
002004
00000e
ffffff
000000
ENDCHAR
STARTCHAR a542
ENCODING 42306
SWIDTH 301 0
DWIDTH 24 0
BBX 24 24 0 -2
BITMAP
000000
040060
07fff0
060060
060060
060060
060060
060060
07ffe0
060060
060060
060060
060060
060060
060060
07ffe0
060060
060060
060060
060060
060060
060066
ffffff
000000
ENDCHAR
STARTCHAR a543
ENCODING 42307
SWIDTH 301 0
DWIDTH 24 0
BBX 24 24 0 -2
BITMAP
000060
0003f0
083f00
0fe000
0c0000
0c0000
0c0000
0c0000
0c0000
0c0018
0ffffc
0c0180
0c0180
0c0180
0c0180
0c0180
0c0180
0c0180
0c0180
0c0180
0c0184
0c018e
ffffff
000000
ENDCHAR
STARTCHAR a544
ENCODING 42308
SWIDTH 301 0
DWIDTH 24 0
BBX 24 24 0 -2
BITMAP
004000
003000
001800
001c00
00080c
7ffffe
001800
001800
001800
001800
001800
001800
001818
3ffffc
001800
001800
001800
001800
001800
001800
001804
00180e
ffffff
000000
ENDCHAR
STARTCHAR a545
ENCODING 42309
SWIDTH 301 0
DWIDTH 24 0
BBX 24 24 0 -2
BITMAP
040000
070000
060000
0c0006
0fffff
0c1800
181800
101800
301800
201818
401ffc
801800
001800
001800
001800
00180c
001ffe
001800
001800
001800
001800
001800
001800
001000
ENDCHAR
STARTCHAR a546
ENCODING 42310
SWIDTH 301 0
DWIDTH 24 0
BBX 24 24 0 -2
BITMAP
000060
0007f8
01ff00
7f8000
006000
003000
001800
001800
001060
3ffff0
000060
0000c0
000180
000300
000600
001800
006000
038000
0c0000
7f0000
71e000
007fff
001ffc
000000
ENDCHAR
STARTCHAR a547
ENCODING 42311
SWIDTH 301 0
DWIDTH 24 0
BBX 24 24 0 -2
BITMAP
0000f8
003ffc
7fff00
001800
001820
101838
081830
0c1860
0c1860
0618c0
061880
001906
ffffff
001800
001800
001800
001800
001800
001800
001800
001800
001800
07f800
007000
ENDCHAR
STARTCHAR a548
ENCODING 42312
SWIDTH 301 0
DWIDTH 24 0
BBX 24 24 0 -2
BITMAP
000000
000020
080038
0e0030
0c0030
0c0030
0c0030
0c0030
0c4030
0c3030
0c1860
0c1860
0c1c60
0c2cc0
0c68c0
0cc0c0
0d81a0
0f0190
0e0318
1c060c
f80c06
e01806
406003
038003
ENDCHAR
STARTCHAR a549
ENCODING 42313
SWIDTH 301 0
DWIDTH 24 0
BBX 24 24 0 -2
BITMAP
020020
038038
030030
060030
060030
0c0030
0c0036
18ffff
1c0030
3c0030
2c0030
4c4030
8c3030
0c1830
0c1c30
0c0c30
0c0c30
0c0030
0c0030
0c0030
0c0030
0c0030
0c07f0
080060
ENDCHAR
STARTCHAR a54a
ENCODING 42314
SWIDTH 301 0
DWIDTH 24 0
BBX 24 24 0 -2
BITMAP
040000
07000c
067ffe
06000c
0c0018
0c0030
0c01c0
180180
1c0180
3c0180
2c0180
4c0186
8dffff
0c0180
0c0180
0c0180
0c0180
0c0180
0c0180
0c0180
0c0180
0c0180
0c3f80
080300
ENDCHAR
STARTCHAR a54b
ENCODING 42315
SWIDTH 301 0
DWIDTH 24 0
BBX 24 24 0 -2
BITMAP
020200
038380
030300
060300
060300
0c0300
0c0304
18030e
1cffff
3c0300
2c0300
4c0300
8c0300
0c0300
0c0300
0c0300
0c0300
0c0300
0c0300
0c0300
0c030c
0cfffe
0c0000
080000
ENDCHAR
STARTCHAR a54c
ENCODING 42316
SWIDTH 301 0
DWIDTH 24 0
BBX 24 24 0 -2
BITMAP
040200
070380
060300
064300
0c7300
0c630c
18633e
1863cc
386f0c
38730c
5be30c
986318
186318
186310
186300
186302
186302
186302
186202
186002
186003
187fff
183ffe
100000
ENDCHAR
STARTCHAR a54d
ENCODING 42317
SWIDTH 301 0
DWIDTH 24 0
BBX 24 24 0 -2
BITMAP
040080
0700e0
0600c0
0600c0
0c00c0
0c00c6
0cffff
1800c0
1820c0
3820c0
3830c0
5810c0
981180
181980
180980
180b00
180700
180600
180700
180d80
1818e0
183078
18c03f
13000c
ENDCHAR
STARTCHAR a54e
ENCODING 42318
SWIDTH 301 0
DWIDTH 24 0
BBX 24 24 0 -2
BITMAP
040400
070740
060630
060618
0c0618
0c0600
180606
18ffff
3c0600
3c0600
6c0600
4c0600
8c0300
0c0300
0c0300
0c0182
0c0182
0c00c2
0c00c2
0c0062
0c0072
0c003b
0c001f
080006
ENDCHAR
STARTCHAR a54f
ENCODING 42319
SWIDTH 301 0
DWIDTH 24 0
BBX 24 24 0 -2
BITMAP
001000
001c00
003800
006600
00c300
018180
0300c0
060060
0c0338
19ff9f
60000c
800000
000060
0ffff0
000060
0000c0
000180
000300
000600
038800
007000
001c00
000700
000300
ENDCHAR
STARTCHAR a550
ENCODING 42320
SWIDTH 301 0
DWIDTH 24 0
BBX 24 24 0 -2
BITMAP
040100
0701c0
060180
060180
0c0180
0c0180
0c4184
187187
1c6186
3c6186
2c6186
4c6186
8c6186
0c6186
0c6186
0c6186
0c6186
0c6186
0c6186
0c6186
0c6186
0cfffe
0c4004
080000
ENDCHAR
STARTCHAR a551
ENCODING 42321
SWIDTH 301 0
DWIDTH 24 0
BBX 24 24 0 -2
BITMAP
040000
070006
067fff
0e0306
0c0306
0c0306
180306
184306
303306
381b06
780f06
580b06
980306
180706
180606
180606
180c06
180c06
181806
181806
18300c
18601c
18c7f8
130070
ENDCHAR
STARTCHAR a552
ENCODING 42322
SWIDTH 301 0
DWIDTH 24 0
BBX 24 24 0 -2
BITMAP
001000
001c00
001804
00300e
7fffff
006000
00c000
018040
030030
060018
0c07ec
1fff0e
0ec304
00c300
00c300
018300
018300
018302
030302
030302
060303
0c03ff
3001fe
c00000
ENDCHAR
STARTCHAR a553
ENCODING 42323
SWIDTH 301 0
DWIDTH 24 0
BBX 24 24 0 -2
BITMAP
000000
080030
0ffff8
0c0030
0c0030
0c0030
0c0030
0c0030
0c0030
0c0030
0ffff0
0cc620
08c600
00c600
00c600
018600
018600
018602
030602
030602
060603
0c07ff
3003fe
c00000
ENDCHAR
STARTCHAR a554
ENCODING 42324
SWIDTH 301 0
DWIDTH 24 0
BBX 24 24 0 -2
BITMAP
001000
001c00
001800
081830
0ffff8
0c1830
0c1830
0c1830
0c1830
0ffff0
0c1830
0c1830
0c1830
0c1830
0c1836
ffffff
0c0030
0c0030
0c0030
0c0030
0c0030
0c0030
0c07f0
0800e0
ENDCHAR
STARTCHAR a555
ENCODING 42325
SWIDTH 301 0
DWIDTH 24 0
BBX 24 24 0 -2
BITMAP
100030
1ffff8
18c630
18c630
18c630
18c630
18c630
18c630
18c630
18c632
ffffff
18c630
18c630
18c630
18c630
18c630
18c630
18c630
18c630
18c630
18c630
18c630
1884f0
100020
ENDCHAR
STARTCHAR a556
ENCODING 42326
SWIDTH 301 0
DWIDTH 24 0
BBX 24 24 0 -2
BITMAP
010000
01c000
038060
03fff0
0700e0
0d00c0
190180
308180
40c300
006600
003c00
003c00
00e700
0383e0
0e20fc
38183f
c00e0c
008700
006300
003000
001800
001c00
000e00
000600
ENDCHAR
STARTCHAR a557
ENCODING 42327
SWIDTH 301 0
DWIDTH 24 0
BBX 24 24 0 -2
BITMAP
000000
20c20c
3fe3fe
30c30c
30c30c
30c30c
30c30c
30c30c
30c30c
30c30c
30c30c
30c30c
31ff0c
30820c
30000c
30000c
30000c
30000c
30000c
30000c
30000c
3ffffc
300008
200000
ENDCHAR
STARTCHAR a558
ENCODING 42328
SWIDTH 301 0
DWIDTH 24 0
BBX 24 24 0 -2
BITMAP
001000
001c00
001800
101810
1c181c
181818
181818
181818
181818
3ffff8
101818
001810
001800
001800
201808
38180e
30180c
30180c
30180c
30180c
30180c
7ffffc
20000c
000008
ENDCHAR
STARTCHAR a559
ENCODING 42329
SWIDTH 301 0
DWIDTH 24 0
BBX 24 24 0 -2
BITMAP
010180
01ffc0
018180
018180
018180
018180
018180
018180
018180
418186
7f81ff
610106
600006
600006
600006
600006
600006
600006
600006
600006
600006
7ffffe
600004
400000
ENDCHAR
STARTCHAR a55a
ENCODING 42330
SWIDTH 301 0
DWIDTH 24 0
BBX 24 24 0 -2
BITMAP
000004
006007
3ff006
030106
0301c6
030186
030186
030186
030186
030186
033186
7ff986
030186
030186
030186
030186
030186
030186
030106
030006
030006
030006
0300fe
02001c
ENDCHAR
STARTCHAR a55b
ENCODING 42331
SWIDTH 301 0
DWIDTH 24 0
BBX 24 24 0 -2
BITMAP
040000
070000
060000
060000
061906
fffdff
061986
061986
061986
061986
061986
061986
0c1986
0c1986
0c1986
0c1986
181986
181986
101986
303186
2031fe
607186
4fe184
80c100
ENDCHAR
STARTCHAR a55c
ENCODING 42332
SWIDTH 301 0
DWIDTH 24 0
BBX 24 24 0 -2
BITMAP
000200
000380
000300
00c300
ffe300
0c0306
0c7fff
0c0306
0c0306
0c0306
0c0306
0c0306
0c0306
0c0606
0c0606
0c6606
0f8c06
0e0c06
f81806
e01806
40300c
00601c
0187f8
0e0030
ENDCHAR
STARTCHAR a55d
ENCODING 42333
SWIDTH 301 0
DWIDTH 24 0
BBX 24 24 0 -2
BITMAP
080000
0e0000
0c0018
1ffffc
180018
180018
300018
300c18
6ffe18
4c0c18
8c0c18
0c0c18
0c0c18
0ffc18
0c0818
0c0030
0c07f2
0c0062
0c0002
0c0002
0c0003
0fffff
07fffe
000000
ENDCHAR
STARTCHAR a55e
ENCODING 42334
SWIDTH 301 0
DWIDTH 24 0
BBX 24 24 0 -2
BITMAP
040000
070000
060000
0c0006
0fffff
0c30c6
1830c6
1030c6
306186
266186
41c186
80f306
019b06
030e06
060706
180d86
6019c6
0030c6
006006
00c00e
01800c
06001c
380ff8
000070
ENDCHAR
STARTCHAR a55f
ENCODING 42335
SWIDTH 301 0
DWIDTH 24 0
BBX 24 24 0 -2
BITMAP
010400
01c700
018600
018600
018600
018600
018608
01861c
ff87fe
018600
018600
018600
018600
018600
018600
018600
018602
018602
018602
018602
0f8603
f987ff
6103fe
000000
ENDCHAR
STARTCHAR a560
ENCODING 42336
SWIDTH 301 0
DWIDTH 24 0
BBX 24 24 0 -2
BITMAP
200006
3fffff
300400
300700
300600
300600
32060c
33fffe
33060c
33060c
33060c
33060c
33060c
33060c
33060c
33060c
33067c
320618
300600
300600
300600
300406
7fffff
200000
ENDCHAR
STARTCHAR a561
ENCODING 42337
SWIDTH 301 0
DWIDTH 24 0
BBX 24 24 0 -2
BITMAP
040000
070038
0603fc
067f80
060300
0c0300
0c0300
180300
1c0300
3c0300
2c0306
4dffff
8c0300
0c0300
0c0300
0c0300
0c0300
0c0300
0c0300
0c0300
0c0300
0c0300
0c0300
080200
ENDCHAR
STARTCHAR a562
ENCODING 42338
SWIDTH 301 0
DWIDTH 24 0
BBX 24 24 0 -2
BITMAP
001000
001c10
20181c
181838
0c1830
061860
071840
021880
001918
3ffffc
001800
001800
001800
001800
001806
ffffff
001800
001800
001800
001800
001800
001800
001800
001000
ENDCHAR
STARTCHAR a563
ENCODING 42339
SWIDTH 301 0
DWIDTH 24 0
BBX 24 24 0 -2
BITMAP
001000
001c00
001800
001818
1ffffc
001800
001800
021880
0398e0
0310c0
0300c0
0300c0
0300c6
ffffff
0300c0
0300c0
0300c0
0300c0
0600c0
0600c0
0c00c0
1800c0
3000c0
400080
ENDCHAR
STARTCHAR a564
ENCODING 42340
SWIDTH 301 0
DWIDTH 24 0
BBX 24 24 0 -2
BITMAP
002000
003800
003000
003030
003ff8
003000
003000
003000
003006
ffffff
003000
003000
003000
003c00
003300
003180
0030c0
003060
003070
003030
003000
003000
003000
002000
ENDCHAR
STARTCHAR a565
ENCODING 42341
SWIDTH 301 0
DWIDTH 24 0
BBX 24 24 0 -2
BITMAP
002000
003800
003000
003008
00301c
003ffe
003000
003000
003000
003000
003000
103018
1ffffc
180018
180018
180018
180018
180018
180018
180018
180018
1ffff8
180018
100010
ENDCHAR
STARTCHAR a566
ENCODING 42342
SWIDTH 301 0
DWIDTH 24 0
BBX 24 24 0 -2
BITMAP
006000
21f206
3e03ff
300306
304306
307306
306306
306306
306306
306306
306306
306306
306306
306306
31e306
36c306
3cc306
19837e
01830c
030300
060300
0c0300
180300
600200
ENDCHAR
STARTCHAR a567
ENCODING 42343
SWIDTH 301 0
DWIDTH 24 0
BBX 24 24 0 -2
BITMAP
000038
0003fc
207f80
3f8000
300000
300000
300006
3fffff
300000
300000
310030
31fff8
318030
318030
318030
318030
318ff4
3180e4
318004
618004
618006
41fffe
80fffc
000000
ENDCHAR
STARTCHAR a568
ENCODING 42344
SWIDTH 301 0
DWIDTH 24 0
BBX 24 24 0 -2
BITMAP
001000
001c00
001800
001800
001800
001818
3ffffc
001800
001800
001800
001804
00180e
ffffff
002000
003800
007000
00e080
00c060
018030
030030
060018
1ffffc
1fe00c
0c000c
ENDCHAR
STARTCHAR a569
ENCODING 42345
SWIDTH 301 0
DWIDTH 24 0
BBX 24 24 0 -2
BITMAP
000004
00000e
ffffff
000030
000030
000030
081830
0ffc30
0c1830
0c1830
0c1830
0c1830
0c1830
0c1830
0c1830
0ff830
0c1030
080030
000030
000030
000030
000030
001ff0
0000e0
ENDCHAR
STARTCHAR a56a
ENCODING 42346
SWIDTH 301 0
DWIDTH 24 0
BBX 24 24 0 -2
BITMAP
001000
001c00
001800
001800
001804
00180e
ffffff
001800
001800
001800
001800
001800
081830
0ffff8
0c0030
0c0030
0c0030
0c0030
0c0030
0c0030
0c0030
0ffff0
0c0030
080020
ENDCHAR
STARTCHAR a56b
ENCODING 42347
SWIDTH 301 0
DWIDTH 24 0
BBX 24 24 0 -2
BITMAP
004000
007000
006000
006000
006006
ffffff
00c000
00c000
018000
018000
018000
030018
03fffc
078018
058018
0d8018
198018
318018
c18018
018018
018018
01fff8
018018
010010
ENDCHAR
STARTCHAR a56c
ENCODING 42348
SWIDTH 301 0
DWIDTH 24 0
BBX 24 24 0 -2
BITMAP
000018
7ffffc
00c018
00c018
00c018
018018
018018
018038
030030
030070
063fe0
0c01c0
180000
200030
cffff8
0c0030
0c0030
0c0030
0c0030
0c0030
0c0030
0c0030
0ffff0
080020
ENDCHAR
STARTCHAR a56d
ENCODING 42349
SWIDTH 301 0
DWIDTH 24 0
BBX 24 24 0 -2
BITMAP
000000
000006
007fff
4180c0
7fc0c0
6180c0
6180c0
6180c0
6180c0
6180c0
6180c0
6180c0
6180c0
6180c0
6180c0
6180c0
6180c0
7f80c0
6100c0
4000c0
0000c0
0000c0
001fc0
000180
ENDCHAR
STARTCHAR a56e
ENCODING 42350
SWIDTH 301 0
DWIDTH 24 0
BBX 24 24 0 -2
BITMAP
00080c
000ffe
418c0c
7fcc0c
618c0c
618c0c
618c0c
618c0c
618c0c
618c0c
618c0c
618c0c
618c0c
618c0c
618c0c
618c0c
618c0c
7f8c0c
610dfc
400c18
000c00
000c00
000c00
000800
ENDCHAR
STARTCHAR a56f
ENCODING 42351
SWIDTH 301 0
DWIDTH 24 0
BBX 24 24 0 -2
BITMAP
000000
000006
833fff
ff8306
c30306
c30306
c30306
c30306
c30306
c30306
c30306
c30306
c30306
c30606
c30606
c30606
ff0c06
c20c06
801806
001806
003006
00600e
0081fc
010038
ENDCHAR
STARTCHAR a570
ENCODING 42352
SWIDTH 301 0
DWIDTH 24 0
BBX 24 24 0 -2
BITMAP
000000
000006
833fff
ff8006
c30006
c30006
c30006
c30016
c30026
c30066
c300c6
c30186
c30306
c30706
c30e06
c31c06
c37806
ff7006
c22006
80000e
00000c
00001c
0007f8
000070
ENDCHAR
STARTCHAR a571
ENCODING 42353
SWIDTH 301 0
DWIDTH 24 0
BBX 24 24 0 -2
BITMAP
00000c
7ffffe
00000c
00000c
00000c
00018c
3fffcc
00000c
00000c
08060c
0fff0c
0c060c
0c060c
0c060c
0c060c
0c060c
0ffe0c
0c040c
08000c
00000c
00000c
00000c
0003fc
000038
ENDCHAR
STARTCHAR a572
ENCODING 42354
SWIDTH 301 0
DWIDTH 24 0
BBX 24 24 0 -2
BITMAP
200006
3fffff
300000
300000
300000
300000
310030
31fff8
318030
318030
318030
318030
318030
318030
31fff0
318020
310000
300000
300000
300000
300000
300006
7fffff
200000
ENDCHAR
STARTCHAR a573
ENCODING 42355
SWIDTH 301 0
DWIDTH 24 0
BBX 24 24 0 -2
BITMAP
000008
00000e
41880c
7fce0c
618c0c
618c0c
618c0c
618c0c
618c0c
618c0c
618c0c
618c0c
618c0c
618c0c
618c0c
618c0c
618c0c
619ffc
7f880c
61000c
40000c
00000c
00000c
000008
ENDCHAR
STARTCHAR a574
ENCODING 42356
SWIDTH 301 0
DWIDTH 24 0
BBX 24 24 0 -2
BITMAP
080030
0ffff8
0c0030
0c0030
0c0030
0c0030
0c0030
0ffff0
0c2020
083800
003000
003018
7ffffc
003018
006018
006018
00c018
00c018
018018
030018
060018
0c0030
181ff0
6000e0
ENDCHAR
STARTCHAR a575
ENCODING 42357
SWIDTH 301 0
DWIDTH 24 0
BBX 24 24 0 -2
BITMAP
000000
080030
0ffff8
0c0030
0c0030
0c0030
0c0030
0c0030
0c0030
0c0030
0c0030
0c0030
0ffff0
0c0020
080000
000000
010080
01c060
038030
070018
0c000c
18000e
300006
400006
ENDCHAR
STARTCHAR a576
ENCODING 42358
SWIDTH 301 0
DWIDTH 24 0
BBX 24 24 0 -2
BITMAP
001000
001c00
001800
001800
201818
3ffffc
301818
301818
301818
301818
301818
3ffff8
301818
201810
041800
023000
01b000
00e000
007000
00dc00
018780
0701f0
1c007f
e0001c
ENDCHAR
STARTCHAR a577
ENCODING 42359
SWIDTH 301 0
DWIDTH 24 0
BBX 24 24 0 -2
BITMAP
000800
000e00
000c00
000c00
418c00
7fcc00
618c00
618c0c
618c1e
618c70
618dc0
61be00
618c00
618c00
618c00
618c00
618c02
7f8c02
610c02
400c02
000c03
000fff
0007fe
000000
ENDCHAR
STARTCHAR a578
ENCODING 42360
SWIDTH 301 0
DWIDTH 24 0
BBX 24 24 0 -2
BITMAP
004000
007000
00e000
00c080
018040
030060
060030
0c0018
3ffffc
3f800c
18000c
000000
080030
0ffff8
0c0030
0c0030
0c0030
0c0030
0c0030
0c0030
0c0030
0ffff0
0c0020
080000
ENDCHAR
STARTCHAR a579
ENCODING 42361
SWIDTH 301 0
DWIDTH 24 0
BBX 24 24 0 -2
BITMAP
040000
070000
060000
060006
0fffff
0c0006
0c0006
180006
100006
220306
43ff86
030306
030306
030306
030306
030306
03ff06
030206
020006
00000c
00000c
00001c
000ff8
000070
ENDCHAR
STARTCHAR a57a
ENCODING 42362
SWIDTH 301 0
DWIDTH 24 0
BBX 24 24 0 -2
BITMAP
000600
000300
430300
7f8300
630180
630180
630180
631980
631d80
6318c0
6318c0
6318c0
6318c0
633060
633060
633060
636030
7f6030
62c038
40c018
01801c
03000e
06000f
180004
ENDCHAR
STARTCHAR a57b
ENCODING 42363
SWIDTH 301 0
DWIDTH 24 0
BBX 24 24 0 -2
BITMAP
000100
0001c0
000180
418180
7fc180
618186
61bfff
618186
618186
618186
618306
618306
618306
618306
618606
618606
618606
618c06
7f8c06
611806
40300c
00601c
00c3f8
010030
ENDCHAR
STARTCHAR a57c
ENCODING 42364
SWIDTH 301 0
DWIDTH 24 0
BBX 24 24 0 -2
BITMAP
000000
000000
400006
7fffff
60c306
60c306
60c306
60c306
60c306
60c306
618306
618306
6303f6
6301fe
660006
6c0006
700006
600006
600006
7ffffe
600006
400004
000000
000000
ENDCHAR
STARTCHAR a57d
ENCODING 42365
SWIDTH 301 0
DWIDTH 24 0
BBX 24 24 0 -2
BITMAP
000000
40000c
7ffffe
60000c
60200c
60380c
60300c
60300c
60300c
60300c
60680c
60680c
60440c
60c40c
60860c
61830c
6301cc
6600fc
6c004c
70000c
60000c
7ffffc
600008
400000
ENDCHAR
STARTCHAR a57e
ENCODING 42366
SWIDTH 301 0
DWIDTH 24 0
BBX 24 24 0 -2
BITMAP
020080
0380e0
0300c0
0618c0
07fcc0
0c18c0
0c18c0
1818c0
1818c0
3430c0
2330f0
41a0dc
81e0ce
00c0c7
00c0c3
0180c0
0180c0
0300c0
0600c0
0c00c0
1800c0
3000c0
c000c0
000080
ENDCHAR
STARTCHAR a5a1
ENCODING 42401
SWIDTH 301 0
DWIDTH 24 0
BBX 24 24 0 -2
BITMAP
001000
001c00
001800
001800
081830
0ffff8
0c1830
0c1830
0c1830
0c1830
0c1830
0c1830
0c1832
ffffff
003800
003400
006400
006200
00c300
018180
0300e0
060078
18003f
e0000e
ENDCHAR
STARTCHAR a5a2
ENCODING 42402
SWIDTH 301 0
DWIDTH 24 0
BBX 24 24 0 -2
BITMAP
001000
041c00
071800
0e1800
0c1818
1ffffc
181800
301800
601800
801800
001800
001806
ffffff
001800
003400
003400
006200
006300
00c180
0181c0
0300e0
060078
18003f
e0001c
ENDCHAR
STARTCHAR a5a3
ENCODING 42403
SWIDTH 301 0
DWIDTH 24 0
BBX 24 24 0 -2
BITMAP
100000
1c0000
18000c
193ffe
19880c
ffe80c
f1880c
318818
318818
318c18
318430
318430
618660
618260
6302c0
fb01c0
5e0180
0f03c0
0d86c0
18cc60
309830
60301c
80c00f
030006
ENDCHAR
STARTCHAR a5a4
ENCODING 42404
SWIDTH 301 0
DWIDTH 24 0
BBX 24 24 0 -2
BITMAP
100000
1c0030
18fff8
180630
190630
198630
ffe630
f18660
318666
3186ff
318646
318606
318c06
618c06
630c06
f30c06
5e1806
0f1806
0d9806
193006
303006
60600c
80c1fc
030038
ENDCHAR
STARTCHAR a5a5
ENCODING 42405
SWIDTH 301 0
DWIDTH 24 0
BBX 24 24 0 -2
BITMAP
000180
3fffc0
030180
030180
030306
0607ff
060206
0c0006
0c0086
1bffc6
300186
c0030c
001c7c
001818
001800
001806
ffffff
001800
001800
001800
001800
001800
03f800
007000
ENDCHAR
STARTCHAR a5a6
ENCODING 42406
SWIDTH 301 0
DWIDTH 24 0
BBX 24 24 0 -2
BITMAP
006000
003000
201800
201006
7fffff
600006
c00004
c20008
038000
030000
030060
0301f0
031f80
03f800
030000
030008
030008
030008
030008
030008
03000c
03fffc
01fff8
000000
ENDCHAR
STARTCHAR a5a7
ENCODING 42407
SWIDTH 301 0
DWIDTH 24 0
BBX 24 24 0 -2
BITMAP
10000c
1ffffe
18000c
18000c
18000c
18000c
1ffffc
180008
180000
188000
18e000
18c000
18c000
18c018
18fffc
18c000
18c002
10c002
30c002
30c002
20c003
60ffff
407ffe
800000
ENDCHAR
STARTCHAR a5a8
ENCODING 42408
SWIDTH 301 0
DWIDTH 24 0
BBX 24 24 0 -2
BITMAP
000000
00000c
7ffffe
180000
180000
180000
180000
180030
1ffff8
180030
180030
180030
180030
180030
1ffff0
180020
180000
180000
180000
180000
180006
ffffff
000000
000000
ENDCHAR
STARTCHAR a5a9
ENCODING 42409
SWIDTH 301 0
DWIDTH 24 0
BBX 24 24 0 -2
BITMAP
000000
000006
007fff
008600
ffc600
0c0600
0c0600
0c0c00
0c0c00
0c0c06
0c1fff
0c0806
0c0006
0c0006
0c0006
0ce006
0f8006
fe0006
70000c
00000c
000018
000038
000ff0
0001e0
ENDCHAR
STARTCHAR a5aa
ENCODING 42410
SWIDTH 301 0
DWIDTH 24 0
BBX 24 24 0 -2
BITMAP
004000
007000
006000
006000
006006
ffffff
00c000
00c000
00c000
018000
018000
01800c
03fffe
030300
060300
060300
0c0300
0c0300
180300
300300
600300
800306
0fffff
000000
ENDCHAR
STARTCHAR a5ab
ENCODING 42411
SWIDTH 301 0
DWIDTH 24 0
BBX 24 24 0 -2
BITMAP
006000
003800
001800
001006
ffffff
001800
001800
001800
101818
1ffffc
181818
181818
181818
181818
181818
181818
181818
181818
181818
1819f8
101870
001800
001800
001000
ENDCHAR
STARTCHAR a5ac
ENCODING 42412
SWIDTH 301 0
DWIDTH 24 0
BBX 24 24 0 -2
BITMAP
002000
003800
003000
006006
ffffff
006000
00c800
018e00
018c00
030c18
07fffc
0e0c18
160c18
260c18
c60c18
060c18
060c18
060c18
060c18
060df8
040c70
000c00
000c00
000800
ENDCHAR
STARTCHAR a5ad
ENCODING 42413
SWIDTH 301 0
DWIDTH 24 0
BBX 24 24 0 -2
BITMAP
000000
000018
3ffffc
001800
001800
101810
0c181c
061838
061830
031860
031840
031880
001900
001806
ffffff
001800
001800
001800
001800
001800
001800
001800
001800
001000
ENDCHAR
STARTCHAR a5ae
ENCODING 42414
SWIDTH 301 0
DWIDTH 24 0
BBX 24 24 0 -2
BITMAP
080100
0e01c0
0c0180
180180
180180
308186
30dfff
61c186
618186
c30186
630186
360186
1c0186
0c0306
190306
188306
30c606
30e606
676c0c
fc6c0c
60180c
00301c
0063f8
018070
ENDCHAR
STARTCHAR a5af
ENCODING 42415
SWIDTH 301 0
DWIDTH 24 0
BBX 24 24 0 -2
BITMAP
008000
00e000
01c080
030060
060030
0c0018
1ffffc
1fc00c
0c010c
0101c0
01c180
018180
018180
018186
ffffff
018180
018180
030180
030180
060180
0c0180
180180
300180
c00100
ENDCHAR
STARTCHAR a5b0
ENCODING 42416
SWIDTH 301 0
DWIDTH 24 0
BBX 24 24 0 -2
BITMAP
00c080
ffe0e0
00c0c0
00c0c0
00c0c0
00c0c0
40c0c0
7fc180
608180
600180
600180
c00180
c0c300
ffe300
c0c310
00c208
00c60c
00c604
00c406
00cc06
019ffb
039f83
7f0c03
0e0003
ENDCHAR
STARTCHAR a5b1
ENCODING 42417
SWIDTH 301 0
DWIDTH 24 0
BBX 24 24 0 -2
BITMAP
008200
00e380
00c300
00c30c
3ffffe
00c30c
00c30c
00c30c
10c30c
1ffffc
18c308
18c300
30c300
30c306
7fffff
20c306
00c306
018306
018306
03030e
03037c
060318
0c0300
300200
ENDCHAR
STARTCHAR a5b2
ENCODING 42418
SWIDTH 301 0
DWIDTH 24 0
BBX 24 24 0 -2
BITMAP
000000
038040
00e070
003860
001cc0
0008c0
0200c0
038180
030180
030310
230308
23060c
230604
230c06
231806
633003
636043
e3c043
c38040
c30040
070060
1bffe0
e1ffc0
000000
ENDCHAR
STARTCHAR a5b3
ENCODING 42419
SWIDTH 301 0
DWIDTH 24 0
BBX 24 24 0 -2
BITMAP
000840
000e30
000c18
000c18
200c06
3fffff
300c00
300c00
300c00
300c10
30061c
300618
300630
300330
300360
3001c0
6003c0
600382
6006c2
400c62
403032
80c01b
87000f
000006
ENDCHAR
STARTCHAR a5b4
ENCODING 42420
SWIDTH 301 0
DWIDTH 24 0
BBX 24 24 0 -2
BITMAP
080000
0e0000
0c0006
0c3fff
0c8060
ffc060
0c0060
0c0060
0c0060
0c0060
0cc060
0f8060
fe0060
ec0060
0c0060
0c0060
0c0060
0c0060
0c0060
0c0060
0c0060
0c0060
7c0fe0
1801c0
ENDCHAR
STARTCHAR a5b5
ENCODING 42421
SWIDTH 301 0
DWIDTH 24 0
BBX 24 24 0 -2
BITMAP
080000
0e0030
0cfff8
0c0c30
0c8c30
ffcc30
0c0c30
0c0c60
0c0c66
0c0cff
0c0c46
0fd806
ff1806
ec1806
4c1806
0c1806
0c3006
0c3006
0c2006
0c6006
0c4006
0cc00c
7c81fc
190038
ENDCHAR
STARTCHAR a5b6
ENCODING 42422
SWIDTH 301 0
DWIDTH 24 0
BBX 24 24 0 -2
BITMAP
080000
0e0180
0c00c0
0c00c0
0c8860
ffce60
0c0c60
0c0c60
0c0c60
0c0c60
0c0c60
1f9860
fe1830
ec1830
0c1830
0c1830
0c1830
0c3018
0c3018
0c600c
0c600c
0cc006
7c8007
190002
ENDCHAR
STARTCHAR a5b7
ENCODING 42423
SWIDTH 301 0
DWIDTH 24 0
BBX 24 24 0 -2
BITMAP
080200
0e0380
0c0300
0c0300
0c8300
ffc300
0c0300
0c0300
0c0300
0c03c0
0d8330
1f0318
fc030c
ec030e
0c0306
0c0306
0c0300
0c0300
0c0300
0c0300
0c0300
0c0300
7c0300
180200
ENDCHAR
STARTCHAR a5b8
ENCODING 42424
SWIDTH 301 0
DWIDTH 24 0
BBX 24 24 0 -2
BITMAP
0000f0
101ff8
1ffe00
180000
180000
180000
180000
180006
1fffff
180600
180600
180600
180600
180600
180780
1806e0
300670
300638
300618
200600
600600
400600
800600
000400
ENDCHAR
STARTCHAR a5b9
ENCODING 42425
SWIDTH 301 0
DWIDTH 24 0
BBX 24 24 0 -2
BITMAP
000000
080030
0ffff8
0c0030
0c0030
0c0030
0c0030
0c0030
0c0030
0ffff0
0c0030
0c0030
0c0030
0c0030
0c0030
0c0030
0ffff0
0c0020
080000
000000
000000
000006
ffffff
000000
ENDCHAR
STARTCHAR a5ba
ENCODING 42426
SWIDTH 301 0
DWIDTH 24 0
BBX 24 24 0 -2
BITMAP
001000
001c80
001860
001830
001830
001806
ffffff
001800
001800
041840
071870
061860
061860
061860
061860
061860
0c1860
0c1860
0c1860
181860
18187e
30183f
601800
801000
ENDCHAR
STARTCHAR a5bb
ENCODING 42427
SWIDTH 301 0
DWIDTH 24 0
BBX 24 24 0 -2
BITMAP
001000
001c00
001800
001800
001800
001806
ffffff
007a00
005a00
00db00
00d900
019980
019880
0318c0
031860
061830
0c1838
18189c
33ffcf
c01804
001800
001800
001800
001000
ENDCHAR
STARTCHAR a5bc
ENCODING 42428
SWIDTH 301 0
DWIDTH 24 0
BBX 24 24 0 -2
BITMAP
001000
001c00
001800
001800
001830
1ffff8
001800
001800
001800
001806
ffffff
007a00
00db00
00d900
019980
0198c0
0318e0
061870
0c183c
18181f
30180c
c01800
001800
001000
ENDCHAR
STARTCHAR a5bd
ENCODING 42429
SWIDTH 301 0
DWIDTH 24 0
BBX 24 24 0 -2
BITMAP
001000
001c00
001800
001806
ffffff
001800
001800
001800
001800
001830
1ffff8
007a00
00db00
00d900
019980
0198c0
0318e0
061870
0c183c
18181f
30180c
c01800
001800
001000
ENDCHAR
STARTCHAR a5be
ENCODING 42430
SWIDTH 301 0
DWIDTH 24 0
BBX 24 24 0 -2
BITMAP
040200
070380
060300
060300
060300
066300
fff300
060300
0e0300
0e0300
1e0300
170300
368300
26c300
666300
464300
860302
060302
060302
060302
060303
0603ff
0601fe
040000
ENDCHAR
STARTCHAR a5bf
ENCODING 42431
SWIDTH 301 0
DWIDTH 24 0
BBX 24 24 0 -2
BITMAP
000000
000018
3ffffc
001800
001800
001800
001800
001800
001800
001800
081800
0e1830
0c1ff8
0c1800
0c1800
0c1800
0c1800
0c1800
0c1800
0c1800
0c1804
0c180e
ffffff
000000
ENDCHAR
STARTCHAR a5c0
ENCODING 42432
SWIDTH 301 0
DWIDTH 24 0
BBX 24 24 0 -2
BITMAP
100060
1ffff0
180060
180060
184060
183060
181860
181860
180060
180066
ffffff
300060
300060
308060
306060
303060
303060
300060
300066
7fffff
2000c0
0001c0
003f80
000700
ENDCHAR
STARTCHAR a5c1
ENCODING 42433
SWIDTH 301 0
DWIDTH 24 0
BBX 24 24 0 -2
BITMAP
200018
3ffffc
300018
300018
300018
300018
300018
3ffff8
301810
301800
301800
301800
30180c
3ffffe
300c00
300c00
300600
300602
300302
304182
3180c2
330073
3e003f
18000e
ENDCHAR
STARTCHAR a5c2
ENCODING 42434
SWIDTH 301 0
DWIDTH 24 0
BBX 24 24 0 -2
BITMAP
000078
2007fc
3ffc00
300c00
300c00
300c00
300c00
300c00
300c0c
3ffffe
300c00
300c00
300c00
300600
300600
300600
300302
30c382
3381c2
3e00e2
1c0073
00063f
03ff0e
000000
ENDCHAR
STARTCHAR a5c3
ENCODING 42435
SWIDTH 301 0
DWIDTH 24 0
BBX 24 24 0 -2
BITMAP
00e000
003c00
000e00
000600
000000
001800
1ffc00
001808
00181e
019838
ffdcc0
019b00
019a00
031900
031980
0618c0
0618e0
0c1870
18183c
30181f
60180c
801800
01f800
003000
ENDCHAR
STARTCHAR a5c4
ENCODING 42436
SWIDTH 301 0
DWIDTH 24 0
BBX 24 24 0 -2
BITMAP
000200
600380
380300
180300
000300
020300
020300
c20306
64ffff
640300
0c0300
080300
180300
180300
300300
300300
f00300
600300
600300
600300
300300
300300
300300
300200
ENDCHAR
STARTCHAR a5c5
ENCODING 42437
SWIDTH 301 0
DWIDTH 24 0
BBX 24 24 0 -2
BITMAP
600000
380006
18ffff
0000c0
0000c0
0200c0
0200c0
c200c0
6400c0
6400c0
0c00c0
0c00c0
1800c0
1800c0
3000c0
3000c0
f000c0
6000c0
6000c0
6000c0
3000c0
3000c0
301fc0
300380
ENDCHAR
STARTCHAR a5c6
ENCODING 42438
SWIDTH 301 0
DWIDTH 24 0
BBX 24 24 0 -2
BITMAP
300000
18200c
0c3ffe
08300c
01300c
01300c
c1300c
62300c
32300c
26300c
04300c
0c300c
0c300c
1830fc
183038
383000
f03002
703002
303002
303002
183003
183fff
181ffe
180000
ENDCHAR
STARTCHAR a5c7
ENCODING 42439
SWIDTH 301 0
DWIDTH 24 0
BBX 24 24 0 -2
BITMAP
010000
83900c
631ffe
36180c
1c180c
18180c
1c180c
34180c
66180c
86180c
07180c
0f180c
0f19fc
1b1838
131800
331800
631800
831802
031802
031802
031803
061fff
7e0ffe
1c0000
ENDCHAR
STARTCHAR a5c8
ENCODING 42440
SWIDTH 301 0
DWIDTH 24 0
BBX 24 24 0 -2
BITMAP
003000
001c00
000c00
000806
7fffff
003000
003000
006000
006080
00c0e0
0181c0
030180
070300
018600
00cc00
007800
003040
006030
00c018
03001c
0407fc
1ffc0e
1f8006
0c0004
ENDCHAR
STARTCHAR a5c9
ENCODING 42441
SWIDTH 301 0
DWIDTH 24 0
BBX 24 24 0 -2
BITMAP
000000
00000c
7ffffe
001800
001800
001800
001800
001800
001800
001800
001818
3ffffc
001800
001800
001900
0018c0
001860
001830
001830
001800
001804
00180e
ffffff
000000
ENDCHAR
STARTCHAR a5ca
ENCODING 42442
SWIDTH 301 0
DWIDTH 24 0
BBX 24 24 0 -2
BITMAP
000070
0003fc
083f40
0fd840
0c1840
0c1840
0c1840
0c1840
0c1840
0c1860
0c1860
0c1820
0c1820
0c1820
0c3030
183030
183110
186098
1060d8
30c0cc
23ff6c
63f06e
418067
800004
ENDCHAR
STARTCHAR a5cb
ENCODING 42443
SWIDTH 301 0
DWIDTH 24 0
BBX 24 24 0 -2
BITMAP
000000
000006
ffffff
030000
030000
030000
030180
03ffc0
030180
060180
060180
068180
066180
063180
061982
061982
0c0182
0c0182
0c0182
0c0182
183983
1fc1ff
fe00fe
600000
ENDCHAR
STARTCHAR a5cc
ENCODING 42444
SWIDTH 301 0
DWIDTH 24 0
BBX 24 24 0 -2
BITMAP
040040
070070
060060
060060
060066
ffffff
060060
060060
060060
060060
060060
060060
060060
07ffe0
060060
060060
060060
060060
060060
060060
060060
07ffe0
060060
040040
ENDCHAR
STARTCHAR a5cd
ENCODING 42445
SWIDTH 301 0
DWIDTH 24 0
BBX 24 24 0 -2
BITMAP
001000
001c00
081800
0e1800
0c1800
0c1800
0c180c
1ffffe
181800
181800
301800
301800
601800
401818
8ffffc
001800
001800
001800
001800
001800
001804
00180e
ffffff
000000
ENDCHAR
STARTCHAR a5ce
ENCODING 42446
SWIDTH 301 0
DWIDTH 24 0
BBX 24 24 0 -2
BITMAP
10000c
1ffffe
18180c
18180c
18180c
18180c
18180c
1ffffc
18180c
18180c
18180c
18180c
18180c
1ffffc
18180c
18180c
18180c
30180c
30180c
30180c
60180c
60180c
4011fc
800038
ENDCHAR
STARTCHAR a5cf
ENCODING 42447
SWIDTH 301 0
DWIDTH 24 0
BBX 24 24 0 -2
BITMAP
100030
1ffff8
183030
183030
183030
183030
183030
1ffff0
183030
183030
183030
183030
183030
1ffff0
183030
183030
183032
303032
3033f2
303062
603003
603fff
401ffe
800000
ENDCHAR
STARTCHAR a5d0
ENCODING 42448
SWIDTH 301 0
DWIDTH 24 0
BBX 24 24 0 -2
BITMAP
000000
000000
20000c
3ffffe
30180c
30180c
30180c
30180c
30180c
30180c
30180c
3ffffc
30180c
30180c
30180c
30180c
30180c
30180c
30180c
30180c
3ffffc
30000c
200008
000000
ENDCHAR
STARTCHAR a5d1
ENCODING 42449
SWIDTH 301 0
DWIDTH 24 0
BBX 24 24 0 -2
BITMAP
001000
001c00
001800
001800
001800
20180c
3ffffe
30180c
30180c
30180c
30180c
30180c
30180c
3ffffc
30180c
30180c
30180c
30180c
30180c
30180c
30180c
3ffffc
30000c
200008
ENDCHAR
STARTCHAR a5d2
ENCODING 42450
SWIDTH 301 0
DWIDTH 24 0
BBX 24 24 0 -2
BITMAP
000000
100018
1ffffc
181818
181818
181818
181818
181818
1ffff8
181818
181818
181818
181818
181818
1ffff8
181818
101810
001800
001800
001800
001800
001800
001800
001000
ENDCHAR
STARTCHAR a5d3
ENCODING 42451
SWIDTH 301 0
DWIDTH 24 0
BBX 24 24 0 -2
BITMAP
002000
003800
003000
203018
3ffffc
303018
303018
303018
303018
303018
3ffff8
303018
303018
303018
303018
303018
3ffff8
303018
203010
003000
003000
003000
003000
002000
ENDCHAR
STARTCHAR a5d4
ENCODING 42452
SWIDTH 301 0
DWIDTH 24 0
BBX 24 24 0 -2
BITMAP
000000
00000c
fffffe
00180c
001818
001820
001800
001800
081800
0e1800
0c1818
0c1ffc
0c1800
0c1800
181800
181800
141800
361800
331800
219800
60f800
403fff
800ffc
000000
ENDCHAR
STARTCHAR a5d5
ENCODING 42453
SWIDTH 301 0
DWIDTH 24 0
BBX 24 24 0 -2
BITMAP
002000
003800
007000
00c000
110018
1ffffc
180018
180018
180018
180018
180018
180018
180018
1ffff8
180018
180018
180018
180018
180018
180018
180018
1ffff8
180018
100010
ENDCHAR
STARTCHAR a5d6
ENCODING 42454
SWIDTH 301 0
DWIDTH 24 0
BBX 24 24 0 -2
BITMAP
001000
001c00
001800
10180c
1ffffe
18180c
181808
181810
181800
181860
1ffff0
190060
190060
1880c0
18c0c0
186180
183300
301e00
300e00
201b00
6031c0
40c0f8
83003f
1c000c
ENDCHAR
STARTCHAR a5d7
ENCODING 42455
SWIDTH 301 0
DWIDTH 24 0
BBX 24 24 0 -2
BITMAP
000000
000000
000000
200018
3ffffc
30c618
30c618
30c618
30c618
30c618
30c618
30c618
30c618
30c618
30c618
30c618
30c618
30c618
30c618
30c618
30c61a
ffffff
000000
000000
ENDCHAR
STARTCHAR a5d8
ENCODING 42456
SWIDTH 301 0
DWIDTH 24 0
BBX 24 24 0 -2
BITMAP
000000
080030
0ffff8
0c0030
0c0030
0c0030
0c0030
0c0030
0ffff0
0c0030
0c0030
0c0030
0c0030
0c0030
0ffff0
0c0030
0c0030
0c0030
0c0030
0c0030
0c0030
0ffff0
0c0020
080000
ENDCHAR
STARTCHAR a5d9
ENCODING 42457
SWIDTH 301 0
DWIDTH 24 0
BBX 24 24 0 -2
BITMAP
000030
1ffff8
000030
000060
0180c0
007300
001c00
000e00
000606
ffffff
003c06
006c0c
006c08
00cc10
018c00
030c00
060c00
0c0c00
300c00
c00c00
000c00
000c00
01fc00
003800
ENDCHAR
STARTCHAR a5da
ENCODING 42458
SWIDTH 301 0
DWIDTH 24 0
BBX 24 24 0 -2
BITMAP
040000
070000
060000
0c0000
0c0018
1ffffc
181800
301800
401800
001800
001800
001806
ffffff
003400
003400
006200
006200
00c100
018180
0300c0
060070
0c003c
30001f
c0000c
ENDCHAR
STARTCHAR a5db
ENCODING 42459
SWIDTH 301 0
DWIDTH 24 0
BBX 24 24 0 -2
BITMAP
000004
00000e
ffffff
006000
006000
00c000
00c000
018000
018000
030000
030018
07fffc
0f0018
1b0018
330018
630018
830018
030018
030018
030018
030018
03fff8
030018
020010
ENDCHAR
STARTCHAR a5dc
ENCODING 42460
SWIDTH 301 0
DWIDTH 24 0
BBX 24 24 0 -2
BITMAP
000000
000018
1ffffc
000000
000000
000000
000000
000000
000006
ffffff
001800
001800
041800
071880
0e1860
0c1830
1c1818
18180c
30180e
601806
801800
001800
001800
001000
ENDCHAR
STARTCHAR a5dd
ENCODING 42461
SWIDTH 301 0
DWIDTH 24 0
BBX 24 24 0 -2
BITMAP
000030
0007f8
00ff80
3f9800
001800
001800
001800
001800
001806
ffffff
007a00
00db00
00d900
019980
0198c0
0318e0
061870
0c183c
18181f
60180c
801800
001800
001800
001000
ENDCHAR
STARTCHAR a5de
ENCODING 42462
SWIDTH 301 0
DWIDTH 24 0
BBX 24 24 0 -2
BITMAP
006000
003000
003800
201800
201006
3fffff
600006
600004
c00008
c00c00
000600
018200
01c200
018300
018100
030180
030180
0600c0
0600c0
0c0060
180070
10003c
20001f
40000c
ENDCHAR
STARTCHAR a5df
ENCODING 42463
SWIDTH 301 0
DWIDTH 24 0
BBX 24 24 0 -2
BITMAP
006000
003000
003800
001800
00100c
7ffffe
000000
000080
0800e0
0400c0
0600c0
020180
030180
030180
018100
018100
01c300
00c200
008600
000404
00080e
ffffff
000000
000000
ENDCHAR
STARTCHAR a5e0
ENCODING 42464
SWIDTH 301 0
DWIDTH 24 0
BBX 24 24 0 -2
BITMAP
000060
3ffff0
0000e0
000180
000300
001c10
019c1c
ffd818
019830
019c60
031a80
031a00
031900
061980
0618c0
0c1860
181838
30181f
60180c
81f800
003000
000006
ffffff
000000
ENDCHAR
STARTCHAR a5e1
ENCODING 42465
SWIDTH 301 0
DWIDTH 24 0
BBX 24 24 0 -2
BITMAP
000000
000030
3ffff8
001800
001800
001800
001860
0ffff0
001800
001800
001800
001806
ffffff
006000
007000
00e000
00c040
018020
030030
060018
0c07ec
3ffc0c
3f0006
180006
ENDCHAR
STARTCHAR a5e2
ENCODING 42466
SWIDTH 301 0
DWIDTH 24 0
BBX 24 24 0 -2
BITMAP
000070
0003f8
041f00
07e000
060000
060000
060018
07fffc
060180
060180
060180
060180
060180
060180
060186
ffffff
000000
010000
01c000
038000
070000
0c0000
300000
c00000
ENDCHAR
STARTCHAR a5e3
ENCODING 42467
SWIDTH 301 0
DWIDTH 24 0
BBX 24 24 0 -2
BITMAP
000070
0003f8
041f80
07e000
060000
060000
060018
07fffc
060180
060180
060180
060180
060180
060180
060186
ffffff
000000
000100
0000c0
000030
000018
00000c
00000e
000006
ENDCHAR
STARTCHAR a5e4
ENCODING 42468
SWIDTH 301 0
DWIDTH 24 0
BBX 24 24 0 -2
BITMAP
020080
0380e0
0300c0
0300c0
0300c0
0300c0
0318c0
03fcc0
0300c0
0300c0
0300c0
0300c0
0300c0
4318c0
7ffcc0
6018c0
6018c2
6018c2
6018c2
6018c2
6018c3
7ff8ff
60107e
400000
ENDCHAR
STARTCHAR a5e5
ENCODING 42469
SWIDTH 301 0
DWIDTH 24 0
BBX 24 24 0 -2
BITMAP
00000c
7ffffe
018000
018000
018000
018030
03fff8
030030
030030
032030
031830
060c60
060c60
060060
064060
0c3060
0c18c0
0c18c0
0000c0
0000c0
000180
000186
ffffff
000000
ENDCHAR
STARTCHAR a5e6
ENCODING 42470
SWIDTH 301 0
DWIDTH 24 0
BBX 24 24 0 -2
BITMAP
006000
003800
001800
00100c
7ffffe
000000
000000
0201c0
038070
03001c
06018e
0c81c6
188180
608300
004300
006600
003600
001c00
003c00
006600
01c380
0701f0
1c007f
e0001c
ENDCHAR
STARTCHAR a5e7
ENCODING 42471
SWIDTH 301 0
DWIDTH 24 0
BBX 24 24 0 -2
BITMAP
006000
003800
001800
001006
ffffff
00c300
00c300
00c300
08c300
0cc340
0cc330
0cc318
18c30c
18c30c
318306
218307
618303
430303
830302
060300
0c0300
180300
307f00
c00e00
ENDCHAR
STARTCHAR a5e8
ENCODING 42472
SWIDTH 301 0
DWIDTH 24 0
BBX 24 24 0 -2
BITMAP
003000
001c00
000c00
000806
ffffff
001000
003c00
007000
00c100
0181c0
070380
030700
018e00
00d840
003070
00e0e0
0181c0
060300
380680
000c60
003030
00c018
03001c
3c000c
ENDCHAR
STARTCHAR a5e9
ENCODING 42473
SWIDTH 301 0
DWIDTH 24 0
BBX 24 24 0 -2
BITMAP
040600
070300
060380
060180
0e0106
0cffff
0c0c00
180c00
1c0c00
3c0c0c
2c0ffe
4c0c0c
8c0c0c
0c0c0c
0c0c0c
0c0c0c
0c180c
0c180c
0c180c
0c300c
0c300c
0c6018
0cc3f8
090070
ENDCHAR
STARTCHAR a5ea
ENCODING 42474
SWIDTH 301 0
DWIDTH 24 0
BBX 24 24 0 -2
BITMAP
040800
070600
060300
0e0300
0c0206
0dffff
180000
180000
1c1060
3c1ff0
2c1860
4c1860
8c1860
0c1860
0c1860
0c1860
0c1860
0c1862
0c3062
0c3062
0c6063
0cc07f
0c803e
090000
ENDCHAR
STARTCHAR a5eb
ENCODING 42475
SWIDTH 301 0
DWIDTH 24 0
BBX 24 24 0 -2
BITMAP
040400
070700
060600
060600
0c0608
0d060e
18861c
18c618
384630
386620
586640
984600
180700
180700
180d00
180d80
181880
1818c0
183060
186070
18c038
19801c
1a000f
140004
ENDCHAR
STARTCHAR a5ec
ENCODING 42476
SWIDTH 301 0
DWIDTH 24 0
BBX 24 24 0 -2
BITMAP
080000
0e0018
0cfffc
0c0618
180618
180618
180618
30061a
33ffff
780c18
580c18
980c18
180c18
180c18
18fff8
181818
181810
181800
183000
183000
186000
186000
18c000
110000
ENDCHAR
STARTCHAR a5ed
ENCODING 42477
SWIDTH 301 0
DWIDTH 24 0
BBX 24 24 0 -2
BITMAP
040200
070380
060300
060300
0c0318
0cfffc
0c0300
180300
1c0300
3c0300
2c0300
4c0306
8dffff
0c0700
0c0680
0c0680
0c0cc0
0c0c40
0c1860
0c1830
0c3038
0c601e
0cc00f
090004
ENDCHAR
STARTCHAR a5ee
ENCODING 42478
SWIDTH 301 0
DWIDTH 24 0
BBX 24 24 0 -2
BITMAP
080000
0e000c
0cfffe
0c0600
180600
180600
180600
300600
380c00
380c30
78fff8
580c30
980c30
180c30
181830
181830
181830
181830
183030
183030
183030
183036
1bffff
100000
ENDCHAR
STARTCHAR a5ef
ENCODING 42479
SWIDTH 301 0
DWIDTH 24 0
BBX 24 24 0 -2
BITMAP
040800
070e80
060c60
060c30
0c0c30
0c0c00
180c0c
1bfffe
380c00
380c00
780c08
58060e
98061c
180618
180330
180360
1803c0
180180
180382
1806c2
180c62
18303b
19c01f
100006
ENDCHAR
STARTCHAR a5f0
ENCODING 42480
SWIDTH 301 0
DWIDTH 24 0
BBX 24 24 0 -2
BITMAP
040200
070380
060300
060300
0c0300
0c0306
19ffff
180300
380300
380780
580f80
980b40
181b60
183320
183330
186318
18c31c
19830f
1a0304
180300
180300
180300
180300
100200
ENDCHAR
STARTCHAR a5f1
ENCODING 42481
SWIDTH 301 0
DWIDTH 24 0
BBX 24 24 0 -2
BITMAP
040200
0703a0
060318
06030c
0c030c
0c0300
180300
180306
3dffff
2c0300
4c0380
8c0680
0c06c0
0c0640
0c0c40
0c0c60
0c0c20
0c1830
0c1810
0c3018
0c600c
0c400e
0c8007
090002
ENDCHAR
STARTCHAR a5f2
ENCODING 42482
SWIDTH 301 0
DWIDTH 24 0
BBX 24 24 0 -2
BITMAP
040100
0701c0
060180
060180
0c4186
0c7fff
186186
186186
3c6186
2c6186
4c6186
8c6186
0c6186
0c6186
0c7ffe
0c6184
0c4180
0c0180
0c0180
0c0180
0c0180
0c0180
0c0180
080100
ENDCHAR
STARTCHAR a5f3
ENCODING 42483
SWIDTH 301 0
DWIDTH 24 0
BBX 24 24 0 -2
BITMAP
040200
070380
064300
067300
0c6300
0c630c
18fffe
18c300
388300
398300
590300
9a0300
180300
180306
1bffff
180300
180300
180300
180300
180300
180300
180300
180300
100200
ENDCHAR
STARTCHAR a5f4
ENCODING 42484
SWIDTH 301 0
DWIDTH 24 0
BBX 24 24 0 -2
BITMAP
040000
070000
06000c
06fffe
060300
0c0300
0c0300
180300
1c0300
3c0300
2c0300
4c0306
8dffff
0c0300
0c0300
0c0300
0c0300
0c0300
0c0300
0c0300
0c0300
0c030c
0cfffe
080000
ENDCHAR
STARTCHAR a5f5
ENCODING 42485
SWIDTH 301 0
DWIDTH 24 0
BBX 24 24 0 -2
BITMAP
080000
0e0800
0c9d06
0cf1ff
18c186
18c186
18c186
10c186
38c186
38c186
78c186
58c186
98c186
18c186
18c186
18c586
18d986
18f1be
18618c
180180
180180
180180
180180
100100
ENDCHAR
STARTCHAR a5f6
ENCODING 42486
SWIDTH 301 0
DWIDTH 24 0
BBX 24 24 0 -2
BITMAP
040000
074080
0670e0
0660c0
0c60c0
0c60c0
0c60c0
1860c0
1c60c0
3c64c4
2c7efe
4c60c0
8c60c0
0c60c0
0c60c0
0c60c0
0c60c0
0c60c2
0c60c2
0c62c2
0c6cc3
0c78ff
0c307e
080000
ENDCHAR
STARTCHAR a5f7
ENCODING 42487
SWIDTH 301 0
DWIDTH 24 0
BBX 24 24 0 -2
BITMAP
080080
0e1040
0c1c40
0c1860
181820
183030
183030
306018
38c01c
79800f
5a0034
98fff8
180c30
180c30
180c30
180c30
181830
181830
183030
183030
186030
18c060
1987e0
1200c0
ENDCHAR
STARTCHAR a5f8
ENCODING 42488
SWIDTH 301 0
DWIDTH 24 0
BBX 24 24 0 -2
BITMAP
003800
003000
006800
006400
00c600
018300
030180
0600c0
0c0070
18103c
301c1f
c0180c
001800
041800
071860
061ff0
061800
061800
061800
061800
061800
06180c
7ffffe
000000
ENDCHAR
STARTCHAR a5f9
ENCODING 42489
SWIDTH 301 0
DWIDTH 24 0
BBX 24 24 0 -2
BITMAP
080030
0efff8
0c1830
0c1830
181860
181860
181860
3018c0
3818cc
381ffe
58180c
981c0c
183418
183218
183218
186330
186130
1841e0
18c0c0
1881e0
190330
1a061c
18180f
10e004
ENDCHAR
STARTCHAR a5fa
ENCODING 42490
SWIDTH 301 0
DWIDTH 24 0
BBX 24 24 0 -2
BITMAP
001000
001c00
001810
10181c
0c1838
061830
031860
031840
001884
00180e
ffffff
00c300
00c300
00c300
00c300
00c302
00c302
018302
018302
030302
060303
0c03ff
3001fe
c00000
ENDCHAR
STARTCHAR a5fb
ENCODING 42491
SWIDTH 301 0
DWIDTH 24 0
BBX 24 24 0 -2
BITMAP
000200
200388
39830e
30660c
303c0c
301c0c
30360c
30630c
30c30c
33000c
30000c
3ffffc
20c308
00c300
00c300
00c302
00c302
018302
018302
030302
060303
0c03ff
3001fe
c00000
ENDCHAR
STARTCHAR a5fc
ENCODING 42492
SWIDTH 301 0
DWIDTH 24 0
BBX 24 24 0 -2
BITMAP
008400
00e700
00c600
00c600
00c608
20c60e
18c61c
0cc630
06c660
06c780
00c600
00c600
00c780
03c660
1cc638
f0c61c
61860c
018600
030602
030602
060603
0c07ff
3003fe
c00000
ENDCHAR
STARTCHAR a5fd
ENCODING 42493
SWIDTH 301 0
DWIDTH 24 0
BBX 24 24 0 -2
BITMAP
001000
041c00
071800
061800
0c1818
0ffffc
181800
101800
201800
401800
001806
ffffff
00c300
00c300
00c300
00c302
00c302
018302
018302
030302
060303
0c03ff
3001fe
c00000
ENDCHAR
STARTCHAR a5fe
ENCODING 42494
SWIDTH 301 0
DWIDTH 24 0
BBX 24 24 0 -2
BITMAP
007000
003000
006800
006400
00c600
018300
030180
0600c0
0c0070
18003c
3000df
cfffec
001800
001800
001800
001820
1ffff0
001800
001800
001800
001800
00180c
7ffffe
000000
ENDCHAR
STARTCHAR a640
ENCODING 42560
SWIDTH 301 0
DWIDTH 24 0
BBX 24 24 0 -2
BITMAP
010100
01c1c0
018180
018180
018180
01818c
7ffffe
018180
018180
018180
018180
018180
018184
01818e
ffffff
000000
000000
010080
01c060
038030
06001c
0c000e
300007
c00003
ENDCHAR
STARTCHAR a641
ENCODING 42561
SWIDTH 301 0
DWIDTH 24 0
BBX 24 24 0 -2
BITMAP
00000c
7ffffe
001800
001800
081830
0ffff8
0c1830
0c1830
0c1830
0c1830
0ffff0
0c1830
0c1830
0c1830
0c1836
ffffff
0c0030
0c0030
0c0030
0c0030
0c0030
0c0030
0c0ff0
080060
ENDCHAR
STARTCHAR a642
ENCODING 42562
SWIDTH 301 0
DWIDTH 24 0
BBX 24 24 0 -2
BITMAP
000200
000380
c00300
600300
300300
320304
023307
05fb0e
04338c
0c3398
0c3390
183360
183340
306360
306320
706330
e0c330
60c318
61831c
33030f
360304
380300
307f00
000600
ENDCHAR
STARTCHAR a643
ENCODING 42563
SWIDTH 301 0
DWIDTH 24 0
BBX 24 24 0 -2
BITMAP
000004
001807
fffd06
0301c6
030186
030186
060186
063186
0ff986
0c3186
183186
183186
303186
686186
8c6186
06c186
06c186
018186
030106
060006
0c0006
300006
c000fe
00000c
ENDCHAR
STARTCHAR a644
ENCODING 42564
SWIDTH 301 0
DWIDTH 24 0
BBX 24 24 0 -2
BITMAP
000004
003007
fff906
18c1c6
18c186
18c186
18c186
18c186
18c186
18d986
fffd86
18c186
18c186
18c186
18c186
18c186
18c186
30c186
30c106
20c006
60c006
40c006
80c0fe
00800c
ENDCHAR
STARTCHAR a645
ENCODING 42565
SWIDTH 301 0
DWIDTH 24 0
BBX 24 24 0 -2
BITMAP
080004
0e8007
0c6086
0c30e6
0c30c6
0c00c6
0c18c6
fffcc6
0c00c6
0c00c6
0c20c6
0c38c6
0c70c6
0c60c6
0cc0c6
0580c6
0710c6
0610c6
0f1086
1b1006
319006
40d806
80787e
00301c
ENDCHAR
STARTCHAR a646
ENCODING 42566
SWIDTH 301 0
DWIDTH 24 0
BBX 24 24 0 -2
BITMAP
200004
380007
300086
3000e6
200cc6
7ffec6
6cccc6
4cccc6
8cccc6
0cccc6
18ccc6
198cc6
198cc6
318cc6
330cc6
630cc6
460cc6
860cc6
0c0c86
181c06
301806
c03806
0ff0fe
00e00c
ENDCHAR
STARTCHAR a647
ENCODING 42567
SWIDTH 301 0
DWIDTH 24 0
BBX 24 24 0 -2
BITMAP
000004
103007
1ff906
1831c6
183186
183186
183186
183186
1ff186
183186
183186
183186
183186
183186
1ff186
183186
183186
183186
303106
303006
203006
603006
43f0fe
80e01c
ENDCHAR
STARTCHAR a648
ENCODING 42568
SWIDTH 301 0
DWIDTH 24 0
BBX 24 24 0 -2
BITMAP
001000
001c00
021840
039830
06180c
0c1806
301843
c018f3
0011c0
000700
003c00
01e000
0f1000
f01c00
00180c
1ffffe
00300c
00300c
00600c
00c00c
01800c
07001c
1c0ff8
f00070
ENDCHAR
STARTCHAR a649
ENCODING 42569
SWIDTH 301 0
DWIDTH 24 0
BBX 24 24 0 -2
BITMAP
080000
0e0000
0c0000
0c0006
1fffff
180006
100806
300e06
200c06
518c86
9c78e6
1830c6
1838c6
186cc6
18c6c6
1986c6
1a00c6
1800c6
1800c6
1fffce
10008c
00001c
0007f8
000030
ENDCHAR
STARTCHAR a64a
ENCODING 42570
SWIDTH 301 0
DWIDTH 24 0
BBX 24 24 0 -2
BITMAP
200006
3fffff
300000
300000
300018
31fffc
300600
300600
300600
300600
300630
30fff8
300600
300600
300600
300600
300600
30060c
33fffe
300000
300000
300006
7fffff
200000
ENDCHAR
STARTCHAR a64b
ENCODING 42571
SWIDTH 301 0
DWIDTH 24 0
BBX 24 24 0 -2
BITMAP
20000c
3ffffe
300000
300070
3087f8
30fc00
30c000
30c000
30c000
30c00c
30fffe
30c180
30c180
30c180
30c180
30c180
308180
318180
310180
310180
320180
300106
7fffff
200000
ENDCHAR
STARTCHAR a64c
ENCODING 42572
SWIDTH 301 0
DWIDTH 24 0
BBX 24 24 0 -2
BITMAP
004000
00f000
23840c
3e07fe
30060c
30060c
30060c
30060c
30460c
3fe60c
30060c
30060c
30060c
30060c
30060c
30760c
33c60c
fe060c
7006fc
400638
000600
000600
000600
000400
ENDCHAR
STARTCHAR a64d
ENCODING 42573
SWIDTH 301 0
DWIDTH 24 0
BBX 24 24 0 -2
BITMAP
038000
030180
07ffc0
0c0180
180300
300606
7fffff
980000
180000
190060
19fff0
198060
198060
198060
198060
198060
198fe0
1981c4
318004
318004
218006
61fffe
40fffc
800000
ENDCHAR
STARTCHAR a64e
ENCODING 42574
SWIDTH 301 0
DWIDTH 24 0
BBX 24 24 0 -2
BITMAP
001000
001c00
001800
001800
001806
ffffff
001800
001800
001800
001800
001818
3ffffc
000000
000000
080030
0ffff8
0c0030
0c0030
0c0030
0c0030
0c0030
0c0030
0ffff0
080020
ENDCHAR
STARTCHAR a64f
ENCODING 42575
SWIDTH 301 0
DWIDTH 24 0
BBX 24 24 0 -2
BITMAP
001000
001c00
001806
ffffff
001800
001800
101818
1ffffc
181818
181818
181818
181818
1ffff8
181810
101800
023000
013000
00f000
006000
00f000
019e00
0607e0
1800ff
e0001c
ENDCHAR
STARTCHAR a650
ENCODING 42576
SWIDTH 301 0
DWIDTH 24 0
BBX 24 24 0 -2
BITMAP
000000
40000c
7ffffe
60000c
60000c
60018c
67ffcc
60000c
60000c
61030c
61ff8c
61830c
61830c
61830c
61830c
61830c
61830c
61830c
61ff0c
61820c
61000c
60000c
6001fc
400038
ENDCHAR
STARTCHAR a651
ENCODING 42577
SWIDTH 301 0
DWIDTH 24 0
BBX 24 24 0 -2
BITMAP
080030
0ffff8
0c0030
0c0030
0c0030
0c0030
0c0030
0c0030
0ffff0
081820
001800
001800
20180c
3ffffe
30180c
30180c
30180c
30180c
30180c
30180c
30180c
3018fc
201818
001000
ENDCHAR
STARTCHAR a652
ENCODING 42578
SWIDTH 301 0
DWIDTH 24 0
BBX 24 24 0 -2
BITMAP
000100
0001c0
430180
7f8180
630180
630180
630180
630180
63018c
637ffe
630180
630180
630180
630180
630180
630180
630180
7f0180
630180
420180
000180
000186
01ffff
000000
ENDCHAR
STARTCHAR a653
ENCODING 42579
SWIDTH 301 0
DWIDTH 24 0
BBX 24 24 0 -2
BITMAP
00000c
863ffe
ff0180
c60180
c60180
c60180
c60180
c60180
c60180
c60186
c67fff
c60180
c60180
c60180
c60180
c60180
fe0180
c40180
800180
000180
000180
000180
001f80
000300
ENDCHAR
STARTCHAR a654
ENCODING 42580
SWIDTH 301 0
DWIDTH 24 0
BBX 24 24 0 -2
BITMAP
000020
000038
430030
7f8030
630030
630032
637fff
630030
630030
631030
630c30
630630
630630
630330
630330
630030
7f0030
630030
620030
400030
000030
000030
0007f0
0000e0
ENDCHAR
STARTCHAR a655
ENCODING 42581
SWIDTH 301 0
DWIDTH 24 0
BBX 24 24 0 -2
BITMAP
020000
038000
030060
07fff0
0600e0
0c00c0
190180
10c300
206600
403c00
001c00
007700
00c3c0
0380f8
0e003f
3fffec
e60060
060060
060060
060060
060060
060060
07ffe0
040040
ENDCHAR
STARTCHAR a656
ENCODING 42582
SWIDTH 301 0
DWIDTH 24 0
BBX 24 24 0 -2
BITMAP
004000
007000
00c000
018000
22000c
3ffffe
30000c
30000c
30000c
31018c
31ffcc
31818c
31818c
31818c
31818c
31818c
31818c
31ff8c
31810c
31000c
30000c
30000c
3003fc
200038
ENDCHAR
STARTCHAR a657
ENCODING 42583
SWIDTH 301 0
DWIDTH 24 0
BBX 24 24 0 -2
BITMAP
008000
00e000
00c060
01fff0
018060
030060
0600c0
0d80c0
18c180
306300
c06600
001c00
003800
006018
01fffc
070018
1f0018
e30018
030018
030018
030018
03fff8
030010
020000
ENDCHAR
STARTCHAR a658
ENCODING 42584
SWIDTH 301 0
DWIDTH 24 0
BBX 24 24 0 -2
BITMAP
003800
003000
006800
006400
00c600
018300
030180
0600c0
0c0070
1801bc
37ffdf
c0000c
000000
000000
0400c0
07ffe0
0600c0
0600c0
0600c0
0600c0
0600c0
0600c0
07ffc0
040080
ENDCHAR
STARTCHAR a659
ENCODING 42585
SWIDTH 301 0
DWIDTH 24 0
BBX 24 24 0 -2
BITMAP
000800
000e00
430c00
7f9806
631fff
633000
632000
634000
638018
631ffc
630018
630030
630060
6300c0
630180
630302
7f0602
620c02
401802
003002
003003
003fff
001ffe
000000
ENDCHAR
STARTCHAR a65a
ENCODING 42586
SWIDTH 301 0
DWIDTH 24 0
BBX 24 24 0 -2
BITMAP
000070
0007f8
10ff80
1fc000
180000
180000
180006
1fffff
180000
180000
180000
180000
190018
19fffc
318018
318018
318018
318018
218018
618018
418018
41fff8
818010
010000
ENDCHAR
STARTCHAR a65b
ENCODING 42587
SWIDTH 301 0
DWIDTH 24 0
BBX 24 24 0 -2
BITMAP
000100
0001c0
430180
7f8300
630300
630600
630c00
630c10
63181c
633838
631c30
630c60
630660
6303c0
630180
630388
630304
630606
7f0c06
621803
40307f
007fc3
007e03
003000
ENDCHAR
STARTCHAR a65c
ENCODING 42588
SWIDTH 301 0
DWIDTH 24 0
BBX 24 24 0 -2
BITMAP
00001c
00007e
4307f0
7fbe00
630600
630600
630600
630600
630600
630606
637fff
630600
630600
630600
630600
630600
630602
7f0602
620602
400602
000603
0007ff
0003fe
000000
ENDCHAR
STARTCHAR a65d
ENCODING 42589
SWIDTH 301 0
DWIDTH 24 0
BBX 24 24 0 -2
BITMAP
20000c
3ffffe
30000c
30100c
301c0c
30180c
30180c
3018cc
33ffec
30180c
30340c
30340c
30660c
30620c
30c30c
30c18c
3181cc
3300ec
34004c
30000c
30000c
3ffffc
30000c
200008
ENDCHAR
STARTCHAR a65e
ENCODING 42590
SWIDTH 301 0
DWIDTH 24 0
BBX 24 24 0 -2
BITMAP
000000
20000c
3ffffe
30000c
30000c
30000c
31018c
31ffcc
31818c
31818c
31818c
31818c
31818c
31818c
31818c
31ff8c
31818c
31010c
30000c
30000c
30000c
3ffffc
30000c
200008
ENDCHAR
STARTCHAR a65f
ENCODING 42591
SWIDTH 301 0
DWIDTH 24 0
BBX 24 24 0 -2
BITMAP
400006
7fffff
600006
600006
6000c6
67ffe6
6000c6
600186
600706
601c06
601806
601866
6ffff6
601806
601806
601806
601806
601806
601806
61f806
603006
600006
7ffffe
400004
ENDCHAR
STARTCHAR a660
ENCODING 42592
SWIDTH 301 0
DWIDTH 24 0
BBX 24 24 0 -2
BITMAP
001004
101c07
1c1886
1818e6
1818c6
1818c6
1918c6
ff98c6
1818c6
1818c6
1818c6
1818c6
1818c6
1818c6
1818c6
1818c6
19b0c6
1e30c6
f830c6
e030c6
406086
006006
004006
008004
ENDCHAR
STARTCHAR a661
ENCODING 42593
SWIDTH 301 0
DWIDTH 24 0
BBX 24 24 0 -2
BITMAP
000100
1001c0
1c0180
182180
183980
18318c
1831be
1931cc
ffb38c
183d8c
18f18c
183198
183198
183190
183180
183180
183180
19b102
1e3002
f83002
603003
003fff
001ffe
000000
ENDCHAR
STARTCHAR a662
ENCODING 42594
SWIDTH 301 0
DWIDTH 24 0
BBX 24 24 0 -2
BITMAP
004000
007000
006000
006006
ffffff
00c000
00c000
018200
018380
030300
030300
060300
0c030c
1cfffe
2c0300
4c0300
8c0300
0c0300
0c0300
0c0300
0c0300
0c0306
0dffff
080000
ENDCHAR
STARTCHAR a663
ENCODING 42595
SWIDTH 301 0
DWIDTH 24 0
BBX 24 24 0 -2
BITMAP
001000
001c00
001800
001818
3ffffc
001800
001800
001800
001800
001806
ffffff
000000
001000
001c00
001800
001818
3ffffc
001800
001800
001800
001800
001806
ffffff
000000
ENDCHAR
STARTCHAR a664
ENCODING 42596
SWIDTH 301 0
DWIDTH 24 0
BBX 24 24 0 -2
BITMAP
000000
100018
1c3ffc
180000
180000
180000
180006
18ffff
190c00
ff8c00
181800
18180c
183ffe
18100c
18000c
18000c
18000c
19800c
1e000c
f80018
e00018
400070
000fe0
000180
ENDCHAR
STARTCHAR a665
ENCODING 42597
SWIDTH 301 0
DWIDTH 24 0
BBX 24 24 0 -2
BITMAP
000000
08100c
0e1ffe
0c180c
0c180c
0c180c
0c180c
0c980c
ffd80c
0c180c
0c1ffc
0c1808
0c1800
0c1800
0c1800
0c1800
0c1800
0dd802
0f1802
fc1802
e01803
401fff
000ffe
000000
ENDCHAR
STARTCHAR a666
ENCODING 42598
SWIDTH 301 0
DWIDTH 24 0
BBX 24 24 0 -2
BITMAP
08000c
0e3ffe
0c00c0
0c00c0
0c00c0
0c00c0
0c80c0
ffc0c0
0c00c0
0c00c6
0c7fff
0c00c0
0c00c0
0c00c0
0c00c0
0c00c0
0c00c0
0dc0c0
0f00c0
fc00c0
f000c0
4000c0
000fc0
000180
ENDCHAR
STARTCHAR a667
ENCODING 42599
SWIDTH 301 0
DWIDTH 24 0
BBX 24 24 0 -2
BITMAP
200018
3ffffc
300018
300018
300098
33ffd8
306018
306018
306198
30ffd8
30c198
318198
310318
32c318
326618
346618
300c18
201819
203019
60600d
40c00d
41000f
820007
040002
ENDCHAR
STARTCHAR a668
ENCODING 42600
SWIDTH 301 0
DWIDTH 24 0
BBX 24 24 0 -2
BITMAP
004000
007060
00fff0
018060
0380c0
06c180
186300
206e00
003800
00e800
038e00
0e180c
703ffe
00600c
01c018
033030
0c1c60
300ec0
000580
000700
001c00
007000
03c000
3e0000
ENDCHAR
STARTCHAR a669
ENCODING 42601
SWIDTH 301 0
DWIDTH 24 0
BBX 24 24 0 -2
BITMAP
001c00
001806
ffffff
001800
001818
3ffffc
001818
001818
101818
1ffff8
301810
301800
601806
ffffff
401806
003406
003406
00623e
00c30c
018180
0300e0
060078
18003f
e0000c
ENDCHAR
STARTCHAR a66a
ENCODING 42602
SWIDTH 301 0
DWIDTH 24 0
BBX 24 24 0 -2
BITMAP
001000
001c00
003800
003006
ffffff
00c180
0180c0
030060
06ffb0
0c001c
30000f
c00032
1ffff8
018000
018000
018060
03fff0
010060
000060
000060
0000c0
0001c0
007f80
000f00
ENDCHAR
STARTCHAR a66b
ENCODING 42603
SWIDTH 301 0
DWIDTH 24 0
BBX 24 24 0 -2
BITMAP
001800
000c00
000806
ffffff
0c0000
0c0000
0c0000
0c0000
0ffff8
07fffc
008000
00e000
00c080
00c0c6
ffffff
0180c0
0180c0
030180
07f180
021f00
000fc0
00f8f0
07c038
7e0018
ENDCHAR
STARTCHAR a66c
ENCODING 42604
SWIDTH 301 0
DWIDTH 24 0
BBX 24 24 0 -2
BITMAP
100000
1c000c
181ffe
190180
198180
ffe180
798180
198180
198180
198180
198186
31bfff
318180
330180
7b0180
2e0180
070180
0d8180
0cc180
188180
300180
200180
400180
000100
ENDCHAR
STARTCHAR a66d
ENCODING 42605
SWIDTH 301 0
DWIDTH 24 0
BBX 24 24 0 -2
BITMAP
100000
1c000c
181ffe
19000c
19800c
ffe00c
79800c
19800c
19800c
19900c
199ffc
199808
319800
319800
331800
7b1800
2e1802
071802
0d9802
0cd802
189803
301fff
400ffe
000000
ENDCHAR
STARTCHAR a66e
ENCODING 42606
SWIDTH 301 0
DWIDTH 24 0
BBX 24 24 0 -2
BITMAP
100000
1c0006
183fff
188006
18c00c
fff018
78c060
18c0c0
18c0c0
18c0c0
18c0c6
30dfff
30c0c0
3180c0
7980c0
2f00c0
0780c0
06c0c0
0c60c0
1840c0
1000c0
2000c0
401fc0
800180
ENDCHAR
STARTCHAR a66f
ENCODING 42607
SWIDTH 301 0
DWIDTH 24 0
BBX 24 24 0 -2
BITMAP
200080
3800e0
3000c0
3210c0
331cc0
ffd8c6
f318ff
331fc6
33f8c6
3318c6
3318c6
6318cc
6318cc
6618c8
f618c0
5c18c2
0e1882
1b1802
199802
311802
601803
401fff
800ffe
000000
ENDCHAR
STARTCHAR a670
ENCODING 42608
SWIDTH 301 0
DWIDTH 24 0
BBX 24 24 0 -2
BITMAP
080000
0e0000
0c0000
0c4206
0c63ff
fffb06
7c6306
186306
186306
186306
186306
186306
306306
30c306
30c306
7cc306
278306
03c306
076306
063306
0c23fe
180304
300200
400000
ENDCHAR
STARTCHAR a671
ENCODING 42609
SWIDTH 301 0
DWIDTH 24 0
BBX 24 24 0 -2
BITMAP
100400
1c0700
180600
190600
198c06
ffefff
799806
199806
199006
19a006
198006
198806
318606
318306
330186
7b0186
2e0006
070006
0d8006
0cc00c
18800c
30001c
2003f8
400070
ENDCHAR
STARTCHAR a672
ENCODING 42610
SWIDTH 301 0
DWIDTH 24 0
BBX 24 24 0 -2
BITMAP
006000
003800
201800
201006
7fffff
600006
c00004
c000c8
0fffe0
0001c0
000300
001e00
001800
001806
ffffff
001800
001800
001800
001800
001800
001800
001800
03f800
007000
ENDCHAR
STARTCHAR a673
ENCODING 42611
SWIDTH 301 0
DWIDTH 24 0
BBX 24 24 0 -2
BITMAP
008000
00e000
00c000
00c006
ffffff
018000
018000
030030
033ff8
060030
0c0060
1c00c0
3c0380
6c0300
8c030c
0cfffe
0c0300
0c0300
0c0300
0c0300
0c0300
0c0300
0c3f00
080e00
ENDCHAR
STARTCHAR a674
ENCODING 42612
SWIDTH 301 0
DWIDTH 24 0
BBX 24 24 0 -2
BITMAP
006000
003800
201800
201006
7fffff
600006
c00004
c000c8
0fffe0
001800
001800
001800
001800
001806
ffffff
001800
001800
001800
001800
001800
001800
001800
03f800
007000
ENDCHAR
STARTCHAR a675
ENCODING 42613
SWIDTH 301 0
DWIDTH 24 0
BBX 24 24 0 -2
BITMAP
006000
003800
201800
201006
7fffff
600006
c00004
c00108
0001c0
000180
000186
ffffff
000180
000180
040180
030180
018180
01c180
00c180
000180
000180
000180
00ff80
000f00
ENDCHAR
STARTCHAR a676
ENCODING 42614
SWIDTH 301 0
DWIDTH 24 0
BBX 24 24 0 -2
BITMAP
006000
203800
201806
7fffff
600006
c00004
c00188
0007c0
00fe00
1fe000
006000
006000
006000
00600c
fffffe
006000
006000
006002
006002
006002
006003
007fff
003ffe
000000
ENDCHAR
STARTCHAR a677
ENCODING 42615
SWIDTH 301 0
DWIDTH 24 0
BBX 24 24 0 -2
BITMAP
006000
003800
201800
201006
7fffff
600006
c08004
c0e008
00c080
00c0e0
0180c6
ffffff
0180c0
0300c0
030180
060180
060300
0fe300
043e00
000f00
0019c0
007070
03c01c
3e000c
ENDCHAR
STARTCHAR a678
ENCODING 42616
SWIDTH 301 0
DWIDTH 24 0
BBX 24 24 0 -2
BITMAP
001000
001c00
001800
00180c
7ffffe
001800
001800
001800
001830
1ffff8
000000
000080
0000e0
0000cc
7ffffe
0000c0
0200c0
0180c0
00c0c0
00c0c0
0000c0
0000c0
001fc0
000380
ENDCHAR
STARTCHAR a679
ENCODING 42617
SWIDTH 301 0
DWIDTH 24 0
BBX 24 24 0 -2
BITMAP
001000
001c00
041840
071830
0e1818
0c180c
181806
301807
601802
801000
000000
001000
001c00
001806
ffffff
003800
007400
006200
00c300
018180
0300e0
060078
18001f
e00006
ENDCHAR
STARTCHAR a67a
ENCODING 42618
SWIDTH 301 0
DWIDTH 24 0
BBX 24 24 0 -2
BITMAP
080400
0e0700
0c0600
0c0600
0c0c06
0c0fff
8cc800
ec9800
cc9000
ccb018
ccaffc
cc8038
cc8060
cc80c0
cc8180
cc8300
cc8600
cc8600
cc8c02
ff9802
c09802
c01803
000fff
0007fe
ENDCHAR
STARTCHAR a67b
ENCODING 42619
SWIDTH 301 0
DWIDTH 24 0
BBX 24 24 0 -2
BITMAP
040008
07080e
060e0c
060c0c
060c0c
060c0c
060c0c
060c0c
060c0c
7efdfc
060c0c
060c0c
060c0c
060c0c
060c0c
060c0c
0c0c0c
0c0c0c
0c0c0c
180c0c
180c0c
30080c
20000c
400008
ENDCHAR
STARTCHAR a67c
ENCODING 42620
SWIDTH 301 0
DWIDTH 24 0
BBX 24 24 0 -2
BITMAP
080000
0e0818
0c0ffc
0c0c18
8ccc18
ffec18
cccc18
cccc18
cccc18
ccce18
cccd18
cccd98
ccccd8
ccccd8
ccccd8
cccc18
cfd81a
8d981a
0c181a
0c301a
0c301b
0c601f
0c400e
088000
ENDCHAR
STARTCHAR a67d
ENCODING 42621
SWIDTH 301 0
DWIDTH 24 0
BBX 24 24 0 -2
BITMAP
040080
0300e0
01c1c0
00c180
00820c
7ffffe
018180
018180
018180
018180
018180
018180
018186
ffffff
030180
030180
030180
060180
060180
0c0180
0c0180
180180
300180
c00100
ENDCHAR
STARTCHAR a67e
ENCODING 42622
SWIDTH 301 0
DWIDTH 24 0
BBX 24 24 0 -2
BITMAP
040000
070000
060000
0c000c
0ffffe
180c00
180c00
300c00
240c18
47fffc
860c00
060c00
060c00
060c00
060c00
060c06
ffffff
000c00
000c00
000c00
000c00
000c00
000c00
000800
ENDCHAR
STARTCHAR a6a1
ENCODING 42657
SWIDTH 301 0
DWIDTH 24 0
BBX 24 24 0 -2
BITMAP
000400
000740
000630
000618
000618
000606
ffffff
000600
000600
000600
000600
006600
7ff600
060600
060300
060300
060182
060182
0600c2
0638c2
0fc063
fe003b
70001f
00000e
ENDCHAR
STARTCHAR a6a2
ENCODING 42658
SWIDTH 301 0
DWIDTH 24 0
BBX 24 24 0 -2
BITMAP
030080
7f80e0
0300c0
0310c0
031cc0
0318c6
2318cf
3f19f6
321ec6
3078c6
3018c6
6018c6
6318cc
ff98cc
4318c8
0318c0
0318c2
031882
031802
031803
031803
061fff
7e0ffe
1c0000
ENDCHAR
STARTCHAR a6a3
ENCODING 42659
SWIDTH 301 0
DWIDTH 24 0
BBX 24 24 0 -2
BITMAP
100000
1c0400
180300
180180
1801c0
1800c0
5c0086
5affff
5b3000
db3000
d83000
d83000
183000
183000
183000
183000
183000
183000
183000
183000
183ffe
181fff
180000
100000
ENDCHAR
STARTCHAR a6a4
ENCODING 42660
SWIDTH 301 0
DWIDTH 24 0
BBX 24 24 0 -2
BITMAP
080020
0e0038
0c0030
0c0030
0c0030
4c0036
4e7fff
4d0030
4d8030
cd9030
cc0830
cc0c30
0c0630
0c0630
0c0330
0c0330
0c0030
0c0030
0c0030
0c0030
0c0030
0c0030
0c07f0
080060
ENDCHAR
ENDFONT
